{
.appVersion = "973";
DisplayStrings = (
AT
);
classes = (
{
automatic = 1;
code = "A Aacute Abreve Abreveacute Abrevedotbelow Abrevegrave Abrevehookabove Abrevetilde Acircumflex Acircumflexacute Acircumflexdotbelow Acircumflexgrave Acircumflexhookabove Acircumflextilde Adieresis Adotbelow Agrave Ahookabove Amacron Aogonek Aring Aringacute Atilde AE AEacute B C Cacute Ccaron Ccedilla Ccircumflex Cdotaccent D DZ DZcaron Eth Dcaron Dcroat Ddotbelow Dz Dzcaron E Eacute Ebreve Ecaron Ecircumflex Ecircumflexacute Ecircumflexdotbelow Ecircumflexgrave Ecircumflexhookabove Ecircumflextilde Edieresis Edotaccent Edotbelow Egrave Ehookabove Emacron Eogonek Etilde F G Gbreve Gcircumflex Gcommaaccent Gdotaccent H Hbar Hcircumflex Hdotbelow I IJ Iacute Ibreve Icircumflex Idieresis Idotaccent Idotbelow Igrave Ihookabove Imacron Iogonek Itilde J Jcircumflex K Kcommaaccent L LJ Lacute Lcaron Lcommaaccent Ldot Lj Lslash M N NJ Nacute Ncaron Ncommaaccent Ndotaccent Eng Nj Ntilde O Oacute Obreve Ocircumflex Ocircumflexacute Ocircumflexdotbelow Ocircumflexgrave Ocircumflexhookabove Ocircumflextilde Odieresis Odotbelow Ograve Ohookabove Ohorn Ohornacute Ohorndotbelow Ohorngrave Ohornhookabove Ohorntilde Ohungarumlaut Omacron Oogonek Oslash Oslashacute Otilde OE P Thorn Q R Racute Rcaron Rcommaaccent Rdotbelow S Sacute Scaron Scedilla Scircumflex Scommaaccent Sdotbelow Germandbls Schwa T Tbar Tcaron Tcedilla Tcommaaccent Tdotbelow U Uacute Ubreve Ucircumflex Udieresis Udotbelow Ugrave Uhookabove Uhorn Uhornacute Uhorndotbelow Uhorngrave Uhornhookabove Uhorntilde Uhungarumlaut Umacron Uogonek Uring Utilde V W Wacute Wcircumflex Wdieresis Wgrave X Y Yacute Ycircumflex Ydieresis Ydotbelow Ygrave Yhookabove Ytilde Z Zacute Zcaron Zdotaccent Zdotbelow Iacute_J.loclNLD Y.loclGUA Yacute.loclGUA Ycircumflex.loclGUA Ydieresis.loclGUA Ydotbelow.loclGUA Ygrave.loclGUA Yhookabove.loclGUA Ytilde.loclGUA Cacute.loclPLK Nacute.loclPLK Oacute.loclPLK Sacute.loclPLK Zacute.loclPLK Delta Omega";

glyphs = (
{
color = 4;
glyphname = A;
layers = (
{
anchors = (
{
name = bottom;
position = "{279, 0}";
},
{
name = ogonek;
position = "{539, 0}";
},
{
name = top;
position = "{342, 700}";
}
);
guideLines = (
{
position = "{467, 1016}";
},
{
position = "{536, 974}";
},
{
position = "{533, 731}";
},
{
position = "{587, 764}";
}
);
layerId = UUID0;
paths = (
{
closed = 1;
nodes = (
"23 -2 LINE SMOOTH",
"43 -2 OFFCURVE",
"59 2 OFFCURVE",
"64 14 CURVE SMOOTH",
"138 178 LINE",
"432 178 LINE",
"474 14 LINE SMOOTH",
"477 2 OFFCURVE",
"493 -2 OFFCURVE",
"513 -2 CURVE SMOOTH",
"521 -2 LINE SMOOTH",
"555 -2 OFFCURVE",
"565 7 OFFCURVE",
"565 18 CURVE SMOOTH",
"565 21 OFFCURVE",
"565 24 OFFCURVE",
"564 28 CURVE SMOOTH",
"396 686 LINE SMOOTH",
"393 698 OFFCURVE",
"377 702 OFFCURVE",
"357 702 CURVE SMOOTH",
"328 702 LINE SMOOTH",
"307 702 OFFCURVE",
"292 698 OFFCURVE",
"287 686 CURVE SMOOTH",
"-18 29 LINE SMOOTH",
"-21 23 OFFCURVE",
"-23 18 OFFCURVE",
"-23 14 CURVE SMOOTH",
"-23 3 OFFCURVE",
"-10 -2 OFFCURVE",
"18 -2 CURVE SMOOTH"
);
},
{
closed = 1;
nodes = (
"311 552 LINE SMOOTH",
"319 570 OFFCURVE",
"326 591 OFFCURVE",
"332 610 CURVE",
"334 610 LINE",
"334 591 OFFCURVE",
"335 571 OFFCURVE",
"340 552 CURVE SMOOTH",
"413 254 LINE",
"174 254 LINE"
);
}
);
width = 613;
},
{
anchors = (
{
name = bottom;
position = "{301, 0}";
},
{
name = ogonek;
position = "{552, 0}";
},
{
name = top;
position = "{345, 700}";
}
);
layerId = "DE974D70-A5B4-43AB-B940-69E4F08CB641";
paths = (
{
closed = 1;
nodes = (
"61 -2 LINE SMOOTH",
"85 -2 OFFCURVE",
"102 4 OFFCURVE",
"109 19 CURVE SMOOTH",
"164 141 LINE",
"406 141 LINE",
"435 19 LINE SMOOTH",
"439 3 OFFCURVE",
"459 -2 OFFCURVE",
"489 -2 CURVE SMOOTH",
"533 -2 LINE SMOOTH",
"568 -2 OFFCURVE",
"587 7 OFFCURVE",
"587 21 CURVE SMOOTH",
"587 24 OFFCURVE",
"585 35 OFFCURVE",
"584 38 CURVE SMOOTH",
"426 681 LINE SMOOTH",
"422 697 OFFCURVE",
"400 702 OFFCURVE",
"371 702 CURVE SMOOTH",
"319 702 LINE SMOOTH",
"290 702 OFFCURVE",
"267 697 OFFCURVE",
"260 681 CURVE SMOOTH",
"-31 38 LINE SMOOTH",
"-35 30 OFFCURVE",
"-37 24 OFFCURVE",
"-37 18 CURVE SMOOTH",
"-37 5 OFFCURVE",
"-18 -2 OFFCURVE",
"21 -2 CURVE SMOOTH"
);
},
{
closed = 1;
nodes = (
"301 451 LINE SMOOTH",
"310 471 OFFCURVE",
"317 494 OFFCURVE",
"323 515 CURVE",
"327 515 LINE",
"328 494 OFFCURVE",
"330 472 OFFCURVE",
"335 451 CURVE SMOOTH",
"375 273 LINE",
"221 273 LINE"
);
}
);
width = 613;
}
);
leftKerningGroup = A;
rightKerningGroup = A;
unicode = 0041;
},
{
color = 4;
glyphname = Aringacute;
layers = (
{
components = (
{
name = ring;
transform = "{1, 0, 0, 1, 188, 60}";
}
);
layerId = UUID0;
paths = (
{
closed = 1;
nodes = (
"409 929 OFFCURVE",
"389 923 OFFCURVE",
"376 903 CURVE SMOOTH",
"362 881 OFFCURVE",
"353 868 OFFCURVE",
"331 832 CURVE SMOOTH",
"331 825 OFFCURVE",
"337 822 OFFCURVE",
"353 822 CURVE SMOOTH",
"374 822 OFFCURVE",
"394 828 OFFCURVE",
"406 840 CURVE SMOOTH",
"477 904 OFFCURVE",
"487 909 OFFCURVE",
"487 916 CURVE SMOOTH",
"488 926 OFFCURVE",
"473 929 OFFCURVE",
"441 929 CURVE SMOOTH"
);
},
{
closed = 1;
nodes = (
"23 -2 LINE SMOOTH",
"43 -2 OFFCURVE",
"59 2 OFFCURVE",
"64 14 CURVE SMOOTH",
"138 178 LINE",
"432 178 LINE",
"474 14 LINE SMOOTH",
"477 2 OFFCURVE",
"493 -2 OFFCURVE",
"513 -2 CURVE SMOOTH",
"521 -2 LINE SMOOTH",
"555 -2 OFFCURVE",
"565 7 OFFCURVE",
"565 18 CURVE SMOOTH",
"565 21 OFFCURVE",
"565 24 OFFCURVE",
"564 28 CURVE SMOOTH",
"396 686 LINE",
"355 642 LINE",
"326 642 LINE",
"287 686 LINE",
"-18 29 LINE SMOOTH",
"-21 23 OFFCURVE",
"-23 18 OFFCURVE",
"-23 14 CURVE SMOOTH",
"-23 3 OFFCURVE",
"-10 -2 OFFCURVE",
"18 -2 CURVE SMOOTH"
);
},
{
closed = 1;
nodes = (
"311 552 LINE SMOOTH",
"319 570 OFFCURVE",
"326 591 OFFCURVE",
"332 610 CURVE",
"334 610 LINE",
"334 591 OFFCURVE",
"335 571 OFFCURVE",
"340 552 CURVE SMOOTH",
"413 254 LINE",
"174 254 LINE"
);
}
);
width = 613;
},
{
components = (
{
name = ring;
transform = "{1, 0, 0, 1, 186, 47}";
}
);
layerId = "DE974D70-A5B4-43AB-B940-69E4F08CB641";
paths = (
{
closed = 1;
nodes = (
"409 931 OFFCURVE",
"376 925 OFFCURVE",
"361 904 CURVE SMOOTH",
"344 881 OFFCURVE",
"332 864 OFFCURVE",
"312 827 CURVE SMOOTH",
"311 816 OFFCURVE",
"318 812 OFFCURVE",
"342 812 CURVE SMOOTH",
"389 812 OFFCURVE",
"407 825 OFFCURVE",
"419 837 CURVE SMOOTH",
"502 907 OFFCURVE",
"507 909 OFFCURVE",
"508 917 CURVE SMOOTH",
"509 928 OFFCURVE",
"489 931 OFFCURVE",
"449 931 CURVE SMOOTH"
);
},
{
closed = 1;
nodes = (
"61 -2 LINE SMOOTH",
"85 -2 OFFCURVE",
"102 4 OFFCURVE",
"109 19 CURVE SMOOTH",
"164 141 LINE",
"406 141 LINE",
"435 19 LINE SMOOTH",
"439 3 OFFCURVE",
"459 -2 OFFCURVE",
"489 -2 CURVE SMOOTH",
"533 -2 LINE SMOOTH",
"568 -2 OFFCURVE",
"587 7 OFFCURVE",
"587 21 CURVE SMOOTH",
"587 24 OFFCURVE",
"585 35 OFFCURVE",
"584 38 CURVE SMOOTH",
"426 681 LINE",
"369 632 LINE",
"317 632 LINE",
"260 681 LINE",
"-31 38 LINE SMOOTH",
"-35 30 OFFCURVE",
"-37 24 OFFCURVE",
"-37 18 CURVE SMOOTH",
"-37 5 OFFCURVE",
"-18 -2 OFFCURVE",
"21 -2 CURVE SMOOTH"
);
},
{
closed = 1;
nodes = (
"301 451 LINE SMOOTH",
"310 471 OFFCURVE",
"317 494 OFFCURVE",
"323 515 CURVE",
"327 515 LINE",
"328 494 OFFCURVE",
"330 472 OFFCURVE",
"335 451 CURVE SMOOTH",
"375 273 LINE",
"221 273 LINE"
);
}
);
width = 613;
}
);
leftKerningGroup = A;
rightKerningGroup = A;
rightMetricsKey = "=A";
unicode = 01FA;
},
{
color = 4;
glyphname = AE;
layers = (
{
anchors = (
{
name = top;
position = "{458, 700}";
}
);
layerId = UUID0;
paths = (
{
closed = 1;
nodes = (
"-4 -2 LINE SMOOTH",
"14 -2 OFFCURVE",
"30 3 OFFCURVE",
"37 14 CURVE SMOOTH",
"134 178 LINE",
"429 178 LINE",
"445 29 LINE SMOOTH",
"447 9 OFFCURVE",
"457 0 OFFCURVE",
"478 0 CURVE SMOOTH",
"770 0 LINE SMOOTH",
"793 0 OFFCURVE",
"795 27 OFFCURVE",
"795 50 CURVE SMOOTH",
"795 54 LINE SMOOTH",
"795 69 OFFCURVE",
"790 76 OFFCURVE",
"778 76 CURVE SMOOTH",
"530 76 LINE",
"502 320 LINE",
"771 320 LINE SMOOTH",
"795 320 OFFCURVE",
"796 347 OFFCURVE",
"796 370 CURVE SMOOTH",
"796 374 LINE SMOOTH",
"796 389 OFFCURVE",
"791 396 OFFCURVE",
"779 396 CURVE SMOOTH",
"494 396 LINE",
"468 624 LINE",
"834 624 LINE SMOOTH",
"858 624 OFFCURVE",
"859 651 OFFCURVE",
"859 674 CURVE SMOOTH",
"859 678 LINE SMOOTH",
"859 693 OFFCURVE",
"854 700 OFFCURVE",
"842 700 CURVE SMOOTH",
"392 700 LINE SMOOTH",
"371 700 OFFCURVE",
"358 692 OFFCURVE",
"347 673 CURVE SMOOTH",
"-41 31 LINE SMOOTH",
"-45 24 OFFCURVE",
"-47 17 OFFCURVE",
"-47 13 CURVE SMOOTH",
"-47 3 OFFCURVE",
"-38 -2 OFFCURVE",
"-9 -2 CURVE SMOOTH"
);
},
{
closed = 1;
nodes = (
"360 552 LINE",
"387 610 LINE",
"389 610 LINE",
"389 552 LINE",
"419 253 LINE",
"180 253 LINE"
);
}
);
width = 915;
},
{
anchors = (
{
name = top;
position = "{458, 700}";
}
);
layerId = "DE974D70-A5B4-43AB-B940-69E4F08CB641";
paths = (
{
closed = 1;
nodes = (
"62 -2 LINE SMOOTH",
"86 -2 OFFCURVE",
"101 5 OFFCURVE",
"110 19 CURVE SMOOTH",
"183 141 LINE",
"426 141 LINE",
"435 30 LINE SMOOTH",
"437 9 OFFCURVE",
"445 0 OFFCURVE",
"467 0 CURVE SMOOTH",
"801 0 LINE SMOOTH",
"829 0 OFFCURVE",
"838 35 OFFCURVE",
"839 84 CURVE SMOOTH",
"839 91 LINE SMOOTH",
"839 119 OFFCURVE",
"831 131 OFFCURVE",
"813 131 CURVE SMOOTH",
"579 131 LINE",
"565 293 LINE",
"804 293 LINE SMOOTH",
"832 293 OFFCURVE",
"841 329 OFFCURVE",
"842 377 CURVE SMOOTH",
"842 384 LINE SMOOTH",
"842 412 OFFCURVE",
"834 424 OFFCURVE",
"816 424 CURVE SMOOTH",
"552 424 LINE",
"540 569 LINE",
"860 569 LINE SMOOTH",
"888 569 OFFCURVE",
"897 605 OFFCURVE",
"898 655 CURVE SMOOTH",
"898 660 LINE SMOOTH",
"898 688 OFFCURVE",
"890 700 OFFCURVE",
"872 700 CURVE SMOOTH",
"406 700 LINE SMOOTH",
"385 700 OFFCURVE",
"372 692 OFFCURVE",
"360 673 CURVE SMOOTH",
"-27 38 LINE SMOOTH",
"-32 31 OFFCURVE",
"-35 25 OFFCURVE",
"-35 20 CURVE SMOOTH",
"-35 0 OFFCURVE",
"1 -2 OFFCURVE",
"25 -2 CURVE SMOOTH"
);
},
{
closed = 1;
nodes = (
"370 455 LINE",
"406 537 LINE",
"410 537 LINE",
"402 454 LINE",
"416 273 LINE",
"262 273 LINE"
);
}
);
width = 915;
}
);
leftKerningGroup = AE;
rightKerningGroup = E;
unicode = 00C6;
},
{
color = 4;
glyphname = B;
layers = (
{
anchors = (
{
name = bottom;
position = "{270, 0}";
},
{
name = top;
position = "{343, 700}";
}
);
layerId = UUID0;
paths = (
{
closed = 1;
nodes = (
"255 0 LINE SMOOTH",
"424 0 OFFCURVE",
"541 67 OFFCURVE",
"541 219 CURVE SMOOTH",
"541 336 OFFCURVE",
"414 367 OFFCURVE",
"414 367 CURVE",
"415 371 LINE",
"483 389 OFFCURVE",
"545 469 OFFCURVE",
"545 544 CURVE SMOOTH",
"545 637 OFFCURVE",
"474 700 OFFCURVE",
"335 700 CURVE SMOOTH",
"151 700 LINE SMOOTH",
"130 700 OFFCURVE",
"120 691 OFFCURVE",
"118 668 CURVE SMOOTH",
"51 31 LINE SMOOTH",
"49 7 OFFCURVE",
"59 0 OFFCURVE",
"78 0 CURVE SMOOTH"
);
},
{
closed = 1;
nodes = (
"170 322 LINE",
"304 322 LINE SMOOTH",
"400 322 OFFCURVE",
"450 284 OFFCURVE",
"450 220 CURVE SMOOTH",
"450 132 OFFCURVE",
"388 76 OFFCURVE",
"295 76 CURVE SMOOTH",
"144 76 LINE"
);
},
{
closed = 1;
nodes = (
"201 624 LINE",
"318 624 LINE SMOOTH",
"410 624 OFFCURVE",
"453 594 OFFCURVE",
"453 532 CURVE SMOOTH",
"453 459 OFFCURVE",
"389 398 OFFCURVE",
"299 398 CURVE SMOOTH",
"178 398 LINE"
);
}
);
width = 593;
},
{
anchors = (
{
name = bottom;
position = "{270, 0}";
},
{
name = top;
position = "{343, 700}";
}
);
layerId = "DE974D70-A5B4-43AB-B940-69E4F08CB641";
paths = (
{
closed = 1;
nodes = (
"288 0 LINE SMOOTH",
"458 0 OFFCURVE",
"560 80 OFFCURVE",
"560 220 CURVE SMOOTH",
"560 290 OFFCURVE",
"514 352 OFFCURVE",
"441 367 CURVE",
"441 371 LINE",
"512 400 OFFCURVE",
"566 467 OFFCURVE",
"566 546 CURVE SMOOTH",
"566 638 OFFCURVE",
"503 700 OFFCURVE",
"347 700 CURVE SMOOTH",
"149 700 LINE SMOOTH",
"121 700 OFFCURVE",
"108 688 OFFCURVE",
"105 660 CURVE SMOOTH",
"40 36 LINE SMOOTH",
"38 12 OFFCURVE",
"49 0 OFFCURVE",
"76 0 CURVE SMOOTH"
);
},
{
closed = 1;
nodes = (
"220 290 LINE",
"302 290 LINE SMOOTH",
"367 290 OFFCURVE",
"402 267 OFFCURVE",
"402 221 CURVE SMOOTH",
"402 163 OFFCURVE",
"361 131 OFFCURVE",
"301 131 CURVE SMOOTH",
"203 131 LINE"
);
},
{
closed = 1;
nodes = (
"250 570 LINE",
"321 570 LINE SMOOTH",
"377 570 OFFCURVE",
"404 549 OFFCURVE",
"404 507 CURVE SMOOTH",
"404 460 OFFCURVE",
"368 421 OFFCURVE",
"303 421 CURVE SMOOTH",
"234 421 LINE"
);
}
);
width = 593;
}
);
unicode = 0042;
},
{
color = 4;
glyphname = C;
layers = (
{
anchors = (
{
name = bottom;
position = "{310, 0}";
},
{
name = top;
position = "{389, 700}";
}
);
layerId = UUID0;
paths = (
{
closed = 1;
nodes = (
"376 -6 OFFCURVE",
"483 5 OFFCURVE",
"512 39 CURVE SMOOTH",
"524 55 OFFCURVE",
"526 94 OFFCURVE",
"526 107 CURVE SMOOTH",
"526 118 OFFCURVE",
"521 118 OFFCURVE",
"519 118 CURVE SMOOTH",
"510 118 OFFCURVE",
"443 70 OFFCURVE",
"334 70 CURVE SMOOTH",
"195 70 OFFCURVE",
"128 138 OFFCURVE",
"128 286 CURVE SMOOTH",
"128 481 OFFCURVE",
"200 630 OFFCURVE",
"392 630 CURVE SMOOTH",
"488 630 OFFCURVE",
"539 586 OFFCURVE",
"550 586 CURVE SMOOTH",
"563 586 OFFCURVE",
"590 629 OFFCURVE",
"590 645 CURVE SMOOTH",
"590 654 OFFCURVE",
"579 665 OFFCURVE",
"561 674 CURVE SMOOTH",
"528 692 OFFCURVE",
"470 706 OFFCURVE",
"407 706 CURVE SMOOTH",
"125 706 OFFCURVE",
"38 501 OFFCURVE",
"38 274 CURVE SMOOTH",
"38 83 OFFCURVE",
"131 -6 OFFCURVE",
"326 -6 CURVE SMOOTH"
);
}
);
width = 619;
},
{
anchors = (
{
name = bottom;
position = "{310, 0}";
},
{
name = top;
position = "{399, 700}";
}
);
layerId = "DE974D70-A5B4-43AB-B940-69E4F08CB641";
paths = (
{
closed = 1;
nodes = (
"396 -8 OFFCURVE",
"505 6 OFFCURVE",
"538 47 CURVE SMOOTH",
"556 69 OFFCURVE",
"564 145 OFFCURVE",
"564 163 CURVE SMOOTH",
"564 176 OFFCURVE",
"558 178 OFFCURVE",
"552 178 CURVE SMOOTH",
"538 178 OFFCURVE",
"464 123 OFFCURVE",
"351 123 CURVE SMOOTH",
"250 123 OFFCURVE",
"201 183 OFFCURVE",
"201 298 CURVE SMOOTH",
"201 483 OFFCURVE",
"272 576 OFFCURVE",
"400 576 CURVE SMOOTH",
"495 576 OFFCURVE",
"532 544 OFFCURVE",
"544 544 CURVE SMOOTH",
"569 544 OFFCURVE",
"619 613 OFFCURVE",
"619 640 CURVE SMOOTH",
"619 653 OFFCURVE",
"607 665 OFFCURVE",
"587 675 CURVE SMOOTH",
"547 696 OFFCURVE",
"475 708 OFFCURVE",
"417 708 CURVE SMOOTH",
"133 708 OFFCURVE",
"42 506 OFFCURVE",
"42 276 CURVE SMOOTH",
"42 82 OFFCURVE",
"137 -8 OFFCURVE",
"337 -8 CURVE SMOOTH"
);
}
);
width = 619;
}
);
leftKerningGroup = O;
rightKerningGroup = C;
unicode = 0043;
},
{
color = 4;
glyphname = D;
layers = (
{
anchors = (
{
name = bottom;
position = "{291, 0}";
},
{
name = center;
position = "{348, 350}";
},
{
name = top;
position = "{348, 700}";
}
);
layerId = UUID0;
paths = (
{
closed = 1;
nodes = (
"292 0 LINE SMOOTH",
"471 0 OFFCURVE",
"643 105 OFFCURVE",
"643 415 CURVE SMOOTH",
"643 624 OFFCURVE",
"522 700 OFFCURVE",
"365 700 CURVE SMOOTH",
"150 700 LINE SMOOTH",
"129 700 OFFCURVE",
"119 691 OFFCURVE",
"117 670 CURVE",
"50 24 LINE",
"50 7 OFFCURVE",
"58 0 OFFCURVE",
"77 0 CURVE SMOOTH"
);
},
{
closed = 1;
nodes = (
"200 624 LINE",
"350 624 LINE SMOOTH",
"464 624 OFFCURVE",
"552 567 OFFCURVE",
"552 401 CURVE SMOOTH",
"552 163 OFFCURVE",
"423 76 OFFCURVE",
"293 76 CURVE SMOOTH",
"143 76 LINE"
);
}
);
width = 695;
},
{
anchors = (
{
name = bottom;
position = "{291, 0}";
},
{
name = center;
position = "{348, 350}";
},
{
name = top;
position = "{348, 700}";
}
);
layerId = "DE974D70-A5B4-43AB-B940-69E4F08CB641";
paths = (
{
closed = 1;
nodes = (
"300 0 LINE SMOOTH",
"519 0 OFFCURVE",
"660 146 OFFCURVE",
"660 411 CURVE SMOOTH",
"660 598 OFFCURVE",
"560 700 OFFCURVE",
"373 700 CURVE SMOOTH",
"149 700 LINE SMOOTH",
"121 700 OFFCURVE",
"108 688 OFFCURVE",
"105 660 CURVE SMOOTH",
"40 33 LINE SMOOTH",
"40 9 OFFCURVE",
"49 0 OFFCURVE",
"76 0 CURVE SMOOTH"
);
},
{
closed = 1;
nodes = (
"251 569 LINE",
"360 569 LINE SMOOTH",
"454 569 OFFCURVE",
"501 509 OFFCURVE",
"501 397 CURVE SMOOTH",
"501 225 OFFCURVE",
"428 131 OFFCURVE",
"313 131 CURVE SMOOTH",
"204 131 LINE"
);
}
);
width = 695;
}
);
rightKerningGroup = O;
unicode = 0044;
},
{
glyphname = Eth;
layers = (
{
components = (
{
name = D;
}
);
layerId = UUID0;
paths = (
{
closed = 1;
nodes = (
"280 320 LINE",
"305 320 OFFCURVE",
"305 351 OFFCURVE",
"305 374 CURVE SMOOTH",
"305 389 OFFCURVE",
"300 396 OFFCURVE",
"288 396 CURVE",
"24 396 LINE",
"-1 396 OFFCURVE",
"-1 365 OFFCURVE",
"-1 342 CURVE SMOOTH",
"-1 327 OFFCURVE",
"4 320 OFFCURVE",
"16 320 CURVE"
);
}
);
width = 695;
},
{
components = (
{
name = D;
}
);
layerId = "DE974D70-A5B4-43AB-B940-69E4F08CB641";
paths = (
{
closed = 1;
nodes = (
"280 290 LINE",
"309 290 OFFCURVE",
"318 329 OFFCURVE",
"318 381 CURVE SMOOTH",
"318 409 OFFCURVE",
"310 421 OFFCURVE",
"292 421 CURVE",
"47 421 LINE",
"18 421 OFFCURVE",
"9 382 OFFCURVE",
"9 330 CURVE SMOOTH",
"9 302 OFFCURVE",
"17 290 OFFCURVE",
"35 290 CURVE"
);
}
);
width = 695;
}
);
rightKerningGroup = O;
rightMetricsKey = "=D";
unicode = 00D0;
},
{
color = 4;
glyphname = E;
layers = (
{
anchors = (
{
name = bottom;
position = "{251, 0}";
},
{
name = ogonek;
position = "{426, 0}";
},
{
name = top;
position = "{323, 700}";
}
);
layerId = UUID0;
paths = (
{
closed = 1;
nodes = (
"426 0 LINE SMOOTH",
"449 0 OFFCURVE",
"451 27 OFFCURVE",
"451 49 CURVE SMOOTH",
"451 54 LINE SMOOTH",
"451 69 OFFCURVE",
"446 76 OFFCURVE",
"434 76 CURVE SMOOTH",
"138 76 LINE",
"163 320 LINE",
"427 320 LINE SMOOTH",
"450 320 OFFCURVE",
"452 346 OFFCURVE",
"452 368 CURVE SMOOTH",
"452 374 LINE SMOOTH",
"452 389 OFFCURVE",
"447 396 OFFCURVE",
"435 396 CURVE SMOOTH",
"171 396 LINE",
"195 624 LINE",
"490 624 LINE SMOOTH",
"513 624 OFFCURVE",
"515 650 OFFCURVE",
"515 673 CURVE SMOOTH",
"515 678 LINE SMOOTH",
"515 693 OFFCURVE",
"510 700 OFFCURVE",
"498 700 CURVE SMOOTH",
"145 700 LINE SMOOTH",
"124 700 OFFCURVE",
"114 691 OFFCURVE",
"112 670 CURVE SMOOTH",
"45 24 LINE SMOOTH",
"45 7 OFFCURVE",
"53 0 OFFCURVE",
"72 0 CURVE SMOOTH"
);
}
);
width = 546;
},
{
anchors = (
{
name = bottom;
position = "{253, 0}";
},
{
name = ogonek;
position = "{444, 0}";
},
{
name = top;
position = "{328, 700}";
}
);
layerId = "DE974D70-A5B4-43AB-B940-69E4F08CB641";
paths = (
{
closed = 1;
nodes = (
"444 0 LINE SMOOTH",
"471 0 OFFCURVE",
"481 34 OFFCURVE",
"482 82 CURVE SMOOTH",
"482 91 LINE SMOOTH",
"482 119 OFFCURVE",
"474 131 OFFCURVE",
"456 131 CURVE SMOOTH",
"204 131 LINE",
"222 293 LINE",
"447 293 LINE SMOOTH",
"475 293 OFFCURVE",
"484 328 OFFCURVE",
"485 376 CURVE SMOOTH",
"485 384 LINE SMOOTH",
"485 412 OFFCURVE",
"477 424 OFFCURVE",
"459 424 CURVE SMOOTH",
"235 424 LINE",
"251 569 LINE",
"503 569 LINE SMOOTH",
"530 569 OFFCURVE",
"540 604 OFFCURVE",
"541 651 CURVE SMOOTH",
"541 660 LINE SMOOTH",
"541 688 OFFCURVE",
"533 700 OFFCURVE",
"515 700 CURVE SMOOTH",
"149 700 LINE SMOOTH",
"121 700 OFFCURVE",
"108 688 OFFCURVE",
"105 660 CURVE SMOOTH",
"40 32 LINE SMOOTH",
"40 8 OFFCURVE",
"49 0 OFFCURVE",
"76 0 CURVE SMOOTH"
);
}
);
width = 546;
}
);
rightKerningGroup = E;
unicode = 0045;
},
{
color = 4;
glyphname = F;
layers = (
{
anchors = (
{
name = bottom;
position = "{91, 0}";
},
{
name = top;
position = "{298, 700}";
}
);
layerId = UUID0;
paths = (
{
closed = 1;
nodes = (
"95 -2 LINE SMOOTH",
"120 -2 OFFCURVE",
"135 6 OFFCURVE",
"137 20 CURVE SMOOTH",
"168 320 LINE",
"419 320 LINE SMOOTH",
"442 320 OFFCURVE",
"444 345 OFFCURVE",
"444 367 CURVE SMOOTH",
"444 374 LINE SMOOTH",
"444 389 OFFCURVE",
"439 396 OFFCURVE",
"427 396 CURVE SMOOTH",
"176 396 LINE",
"200 624 LINE",
"459 624 LINE SMOOTH",
"481 624 OFFCURVE",
"484 649 OFFCURVE",
"484 671 CURVE SMOOTH",
"484 678 LINE SMOOTH",
"484 693 OFFCURVE",
"479 700 OFFCURVE",
"467 700 CURVE SMOOTH",
"150 700 LINE SMOOTH",
"129 700 OFFCURVE",
"119 691 OFFCURVE",
"117 670 CURVE SMOOTH",
"49 20 LINE SMOOTH",
"49 6 OFFCURVE",
"57 -2 OFFCURVE",
"87 -2 CURVE SMOOTH"
);
}
);
width = 503;
},
{
anchors = (
{
name = bottom;
position = "{116, 0}";
},
{
name = top;
position = "{298, 700}";
}
);
layerId = "DE974D70-A5B4-43AB-B940-69E4F08CB641";
paths = (
{
closed = 1;
nodes = (
"134 -2 LINE SMOOTH",
"173 -2 OFFCURVE",
"195 9 OFFCURVE",
"197 30 CURVE SMOOTH",
"225 292 LINE",
"439 292 LINE SMOOTH",
"466 292 OFFCURVE",
"476 326 OFFCURVE",
"477 372 CURVE SMOOTH",
"477 383 LINE SMOOTH",
"477 411 OFFCURVE",
"469 423 OFFCURVE",
"451 423 CURVE SMOOTH",
"238 423 LINE",
"254 569 LINE",
"475 569 LINE SMOOTH",
"502 569 OFFCURVE",
"511 602 OFFCURVE",
"513 648 CURVE SMOOTH",
"513 660 LINE SMOOTH",
"513 688 OFFCURVE",
"505 700 OFFCURVE",
"487 700 CURVE SMOOTH",
"152 700 LINE SMOOTH",
"124 700 OFFCURVE",
"111 688 OFFCURVE",
"108 660 CURVE SMOOTH",
"42 29 LINE SMOOTH",
"42 0 OFFCURVE",
"82 -2 OFFCURVE",
"99 -2 CURVE SMOOTH"
);
}
);
width = 503;
}
);
rightKerningGroup = F;
unicode = 0046;
},
{
color = 4;
glyphname = G;
layers = (
{
anchors = (
{
name = bottom;
position = "{336, 0}";
},
{
name = top;
position = "{396, 700}";
}
);
layerId = UUID0;
paths = (
{
closed = 1;
nodes = (
"442 -6 OFFCURVE",
"553 10 OFFCURVE",
"559 66 CURVE SMOOTH",
"587 337 LINE SMOOTH",
"587 353 OFFCURVE",
"579 361 OFFCURVE",
"560 361 CURVE SMOOTH",
"384 361 LINE SMOOTH",
"364 361 OFFCURVE",
"359 341 OFFCURVE",
"359 321 CURVE SMOOTH",
"359 307 LINE SMOOTH",
"359 292 OFFCURVE",
"364 285 OFFCURVE",
"376 285 CURVE SMOOTH",
"494 285 LINE",
"468 45 LINE",
"485 87 LINE",
"465 79 OFFCURVE",
"404 70 OFFCURVE",
"342 70 CURVE SMOOTH",
"190 70 OFFCURVE",
"144 165 OFFCURVE",
"144 288 CURVE SMOOTH",
"144 501 OFFCURVE",
"228 630 OFFCURVE",
"404 630 CURVE SMOOTH",
"506 630 OFFCURVE",
"551 586 OFFCURVE",
"562 586 CURVE SMOOTH",
"575 586 OFFCURVE",
"602 629 OFFCURVE",
"602 645 CURVE SMOOTH",
"602 672 OFFCURVE",
"515 706 OFFCURVE",
"418 706 CURVE SMOOTH",
"196 706 OFFCURVE",
"52 572 OFFCURVE",
"52 275 CURVE SMOOTH",
"52 84 OFFCURVE",
"149 -6 OFFCURVE",
"328 -6 CURVE SMOOTH"
);
}
);
width = 672;
},
{
anchors = (
{
name = bottom;
position = "{336, 0}";
},
{
name = top;
position = "{397, 700}";
}
);
layerId = "DE974D70-A5B4-43AB-B940-69E4F08CB641";
paths = (
{
closed = 1;
nodes = (
"406 -8 OFFCURVE",
"569 2 OFFCURVE",
"577 71 CURVE SMOOTH",
"608 358 LINE SMOOTH",
"608 381 OFFCURVE",
"598 389 OFFCURVE",
"571 389 CURVE SMOOTH",
"367 389 LINE SMOOTH",
"343 389 OFFCURVE",
"331 362 OFFCURVE",
"330 324 CURVE SMOOTH",
"329 298 LINE SMOOTH",
"329 270 OFFCURVE",
"337 258 OFFCURVE",
"355 258 CURVE SMOOTH",
"442 258 LINE",
"421 63 LINE",
"480 142 LINE",
"426 128 OFFCURVE",
"394 123 OFFCURVE",
"350 123 CURVE SMOOTH",
"249 123 OFFCURVE",
"200 183 OFFCURVE",
"200 298 CURVE SMOOTH",
"200 483 OFFCURVE",
"271 576 OFFCURVE",
"399 576 CURVE SMOOTH",
"495 576 OFFCURVE",
"532 544 OFFCURVE",
"544 544 CURVE SMOOTH",
"569 544 OFFCURVE",
"619 613 OFFCURVE",
"619 640 CURVE SMOOTH",
"619 681 OFFCURVE",
"502 708 OFFCURVE",
"416 708 CURVE SMOOTH",
"175 708 OFFCURVE",
"41 565 OFFCURVE",
"41 276 CURVE SMOOTH",
"41 82 OFFCURVE",
"136 -8 OFFCURVE",
"336 -8 CURVE SMOOTH"
);
}
);
width = 672;
}
);
leftKerningGroup = O;
unicode = 0047;
},
{
color = 4;
glyphname = H;
layers = (
{
anchors = (
{
name = bottom;
position = "{349, 2}";
},
{
name = center;
position = "{376, 522}";
},
{
name = top;
position = "{405, 700}";
}
);
layerId = UUID0;
paths = (
{
closed = 1;
nodes = (
"108 -2 LINE SMOOTH",
"134 -2 OFFCURVE",
"148 6 OFFCURVE",
"150 20 CURVE SMOOTH",
"181 321 LINE",
"543 321 LINE",
"512 20 LINE",
"512 6 OFFCURVE",
"520 -2 OFFCURVE",
"550 -2 CURVE SMOOTH",
"558 -2 LINE SMOOTH",
"584 -2 OFFCURVE",
"598 6 OFFCURVE",
"600 20 CURVE SMOOTH",
"669 680 LINE",
"669 694 OFFCURVE",
"660 702 OFFCURVE",
"631 702 CURVE SMOOTH",
"623 702 LINE SMOOTH",
"594 702 OFFCURVE",
"582 694 OFFCURVE",
"581 680 CURVE SMOOTH",
"551 397 LINE",
"189 397 LINE",
"219 680 LINE",
"219 694 OFFCURVE",
"210 702 OFFCURVE",
"181 702 CURVE SMOOTH",
"173 702 LINE SMOOTH",
"145 702 OFFCURVE",
"132 694 OFFCURVE",
"131 680 CURVE SMOOTH",
"62 20 LINE",
"62 6 OFFCURVE",
"70 -2 OFFCURVE",
"100 -2 CURVE SMOOTH"
);
}
);
width = 733;
},
{
anchors = (
{
name = bottom;
position = "{341, 0}";
},
{
name = center;
position = "{381, 523}";
},
{
name = top;
position = "{399, 700}";
}
);
layerId = "DE974D70-A5B4-43AB-B940-69E4F08CB641";
paths = (
{
closed = 1;
nodes = (
"134 -2 LINE SMOOTH",
"173 -2 OFFCURVE",
"195 9 OFFCURVE",
"197 30 CURVE SMOOTH",
"224 291 LINE",
"494 291 LINE",
"467 29 LINE",
"467 0 OFFCURVE",
"507 -2 OFFCURVE",
"524 -2 CURVE SMOOTH",
"559 -2 LINE SMOOTH",
"598 -2 OFFCURVE",
"620 9 OFFCURVE",
"622 30 CURVE SMOOTH",
"689 671 LINE",
"689 700 OFFCURVE",
"649 702 OFFCURVE",
"632 702 CURVE SMOOTH",
"597 702 LINE SMOOTH",
"558 702 OFFCURVE",
"536 691 OFFCURVE",
"534 670 CURVE SMOOTH",
"508 423 LINE",
"238 423 LINE",
"264 671 LINE",
"264 700 OFFCURVE",
"224 702 OFFCURVE",
"207 702 CURVE SMOOTH",
"172 702 LINE SMOOTH",
"133 702 OFFCURVE",
"111 691 OFFCURVE",
"109 670 CURVE SMOOTH",
"42 29 LINE",
"42 0 OFFCURVE",
"82 -2 OFFCURVE",
"99 -2 CURVE SMOOTH"
);
}
);
width = 733;
}
);
unicode = 0048;
},
{
color = 4;
glyphname = I;
layers = (
{
anchors = (
{
name = bottom;
position = "{101, 0}";
},
{
name = ogonek;
position = "{128, 0}";
},
{
name = top;
position = "{180, 700}";
}
);
layerId = UUID0;
paths = (
{
closed = 1;
nodes = (
"108 -2 LINE SMOOTH",
"134 -2 OFFCURVE",
"148 6 OFFCURVE",
"150 20 CURVE SMOOTH",
"219 680 LINE",
"219 694 OFFCURVE",
"210 702 OFFCURVE",
"181 702 CURVE SMOOTH",
"173 702 LINE SMOOTH",
"145 702 OFFCURVE",
"132 694 OFFCURVE",
"131 680 CURVE SMOOTH",
"62 20 LINE",
"62 6 OFFCURVE",
"70 -2 OFFCURVE",
"100 -2 CURVE SMOOTH"
);
}
);
width = 282;
},
{
anchors = (
{
name = bottom;
position = "{103, 0}";
},
{
name = ogonek;
position = "{142, 0}";
},
{
name = top;
position = "{181, 700}";
}
);
layerId = "DE974D70-A5B4-43AB-B940-69E4F08CB641";
paths = (
{
closed = 1;
nodes = (
"122 -2 LINE SMOOTH",
"161 -2 OFFCURVE",
"183 9 OFFCURVE",
"185 30 CURVE SMOOTH",
"252 671 LINE",
"252 700 OFFCURVE",
"212 702 OFFCURVE",
"195 702 CURVE SMOOTH",
"160 702 LINE SMOOTH",
"121 702 OFFCURVE",
"99 691 OFFCURVE",
"97 670 CURVE SMOOTH",
"30 29 LINE",
"30 0 OFFCURVE",
"70 -2 OFFCURVE",
"87 -2 CURVE SMOOTH"
);
}
);
width = 282;
}
);
unicode = 0049;
},
{
color = 4;
glyphname = J;
layers = (
{
anchors = (
{
name = top;
position = "{308, 702}";
}
);
layerId = UUID0;
paths = (
{
closed = 1;
nodes = (
"224 -6 OFFCURVE",
"291 79 OFFCURVE",
"304 205 CURVE SMOOTH",
"354 680 LINE",
"354 694 OFFCURVE",
"345 702 OFFCURVE",
"316 702 CURVE SMOOTH",
"308 702 LINE SMOOTH",
"279 702 OFFCURVE",
"267 694 OFFCURVE",
"266 680 CURVE SMOOTH",
"215 201 LINE SMOOTH",
"206 115 OFFCURVE",
"163 76 OFFCURVE",
"70 76 CURVE SMOOTH",
"30 76 OFFCURVE",
"13 85 OFFCURVE",
"4 85 CURVE SMOOTH",
"-5 85 OFFCURVE",
"-11 70 OFFCURVE",
"-11 26 CURVE SMOOTH",
"-11 1 OFFCURVE",
"34 -6 OFFCURVE",
"77 -6 CURVE SMOOTH"
);
}
);
width = 402;
},
{
anchors = (
{
name = top;
position = "{290, 700}";
}
);
layerId = "DE974D70-A5B4-43AB-B940-69E4F08CB641";
paths = (
{
closed = 1;
nodes = (
"228 -8 OFFCURVE",
"299 75 OFFCURVE",
"313 202 CURVE SMOOTH",
"363 671 LINE",
"363 700 OFFCURVE",
"323 702 OFFCURVE",
"306 702 CURVE SMOOTH",
"271 702 LINE SMOOTH",
"232 702 OFFCURVE",
"210 691 OFFCURVE",
"208 670 CURVE SMOOTH",
"161 227 LINE SMOOTH",
"153 154 OFFCURVE",
"126 123 OFFCURVE",
"66 123 CURVE SMOOTH",
"22 123 OFFCURVE",
"11 132 OFFCURVE",
"3 132 CURVE SMOOTH",
"-4 132 OFFCURVE",
"-17 121 OFFCURVE",
"-17 35 CURVE SMOOTH",
"-17 -2 OFFCURVE",
"39 -8 OFFCURVE",
"79 -8 CURVE SMOOTH"
);
}
);
width = 402;
}
);
leftKerningGroup = J;
unicode = 004A;
},
{
color = 4;
glyphname = K;
layers = (
{
anchors = (
{
name = bottom;
position = "{260, 0}";
},
{
name = top;
position = "{315, 700}";
}
);
layerId = UUID0;
paths = (
{
closed = 1;
nodes = (
"90 -2 LINE SMOOTH",
"115 -2 OFFCURVE",
"130 6 OFFCURVE",
"132 20 CURVE SMOOTH",
"165 333 LINE",
"169 333 LINE",
"421 11 LINE SMOOTH",
"430 0 OFFCURVE",
"446 -2 OFFCURVE",
"475 -2 CURVE SMOOTH",
"482 -2 LINE SMOOTH",
"513 -2 OFFCURVE",
"526 1 OFFCURVE",
"527 12 CURVE SMOOTH",
"527 16 OFFCURVE",
"526 20 OFFCURVE",
"520 28 CURVE SMOOTH",
"259 360 LINE",
"537 669 LINE SMOOTH",
"545 677 OFFCURVE",
"549 684 OFFCURVE",
"549 690 CURVE SMOOTH",
"549 696 OFFCURVE",
"538 702 OFFCURVE",
"515 702 CURVE SMOOTH",
"505 702 LINE SMOOTH",
"483 702 OFFCURVE",
"460 699 OFFCURVE",
"450 688 CURVE SMOOTH",
"173 374 LINE",
"169 374 LINE",
"201 680 LINE",
"201 694 OFFCURVE",
"192 702 OFFCURVE",
"163 702 CURVE SMOOTH",
"155 702 LINE SMOOTH",
"127 702 OFFCURVE",
"114 694 OFFCURVE",
"113 680 CURVE SMOOTH",
"44 20 LINE",
"44 6 OFFCURVE",
"52 -2 OFFCURVE",
"82 -2 CURVE SMOOTH"
);
}
);
width = 576;
},
{
anchors = (
{
name = bottom;
position = "{270, 0}";
},
{
name = top;
position = "{340, 700}";
}
);
layerId = "DE974D70-A5B4-43AB-B940-69E4F08CB641";
paths = (
{
closed = 1;
nodes = (
"127 -2 LINE SMOOTH",
"169 -2 OFFCURVE",
"188 9 OFFCURVE",
"190 30 CURVE SMOOTH",
"220 320 LINE",
"224 321 LINE",
"381 17 LINE SMOOTH",
"388 2 OFFCURVE",
"408 -2 OFFCURVE",
"440 -2 CURVE SMOOTH",
"498 -2 LINE SMOOTH",
"542 -2 OFFCURVE",
"555 5 OFFCURVE",
"555 16 CURVE SMOOTH",
"555 20 OFFCURVE",
"553 26 OFFCURVE",
"549 34 CURVE SMOOTH",
"366 370 LINE",
"590 666 LINE SMOOTH",
"597 675 OFFCURVE",
"600 683 OFFCURVE",
"600 688 CURVE SMOOTH",
"600 696 OFFCURVE",
"583 702 OFFCURVE",
"545 702 CURVE SMOOTH",
"498 702 LINE SMOOTH",
"469 702 OFFCURVE",
"447 698 OFFCURVE",
"436 683 CURVE SMOOTH",
"233 401 LINE",
"229 402 LINE",
"257 670 LINE",
"257 691 OFFCURVE",
"243 702 OFFCURVE",
"200 702 CURVE SMOOTH",
"165 702 LINE SMOOTH",
"123 702 OFFCURVE",
"104 691 OFFCURVE",
"102 670 CURVE SMOOTH",
"35 30 LINE",
"35 9 OFFCURVE",
"49 -2 OFFCURVE",
"92 -2 CURVE SMOOTH"
);
}
);
width = 576;
}
);
rightKerningGroup = K;
unicode = 004B;
},
{
color = 4;
glyphname = L;
layers = (
{
anchors = (
{
name = bottom;
position = "{242, 0}";
},
{
name = caron;
position = "{292, 700}";
},
{
name = top;
position = "{168, 702}";
}
);
layerId = UUID0;
paths = (
{
closed = 1;
nodes = (
"426 0 LINE SMOOTH",
"449 0 OFFCURVE",
"451 26 OFFCURVE",
"451 48 CURVE SMOOTH",
"451 54 LINE SMOOTH",
"451 69 OFFCURVE",
"446 76 OFFCURVE",
"434 76 CURVE SMOOTH",
"143 76 LINE",
"206 680 LINE",
"206 694 OFFCURVE",
"197 702 OFFCURVE",
"168 702 CURVE SMOOTH",
"160 702 LINE SMOOTH",
"132 702 OFFCURVE",
"119 694 OFFCURVE",
"118 680 CURVE SMOOTH",
"50 30 LINE",
"50 9 OFFCURVE",
"55 0 OFFCURVE",
"77 0 CURVE SMOOTH"
);
}
);
width = 484;
},
{
anchors = (
{
name = bottom;
position = "{218, 0}";
},
{
name = caron;
position = "{281, 700}";
},
{
name = top;
position = "{184, 700}";
}
);
layerId = "DE974D70-A5B4-43AB-B940-69E4F08CB641";
paths = (
{
closed = 1;
nodes = (
"412 0 LINE SMOOTH",
"440 0 OFFCURVE",
"449 36 OFFCURVE",
"450 85 CURVE SMOOTH",
"450 91 LINE SMOOTH",
"450 119 OFFCURVE",
"442 131 OFFCURVE",
"424 131 CURVE SMOOTH",
"201 131 LINE",
"258 671 LINE",
"258 700 OFFCURVE",
"218 702 OFFCURVE",
"201 702 CURVE SMOOTH",
"166 702 LINE SMOOTH",
"127 702 OFFCURVE",
"105 691 OFFCURVE",
"103 670 CURVE SMOOTH",
"36 32 LINE",
"36 8 OFFCURVE",
"45 0 OFFCURVE",
"72 0 CURVE SMOOTH"
);
}
);
width = 484;
}
);
rightKerningGroup = L;
unicode = 004C;
},
{
glyphname = LJ;
layers = (
{
background = {
paths = (
{
closed = 1;
nodes = (
"162 702 LINE SMOOTH",
"134 702 OFFCURVE",
"121 694 OFFCURVE",
"120 680 CURVE SMOOTH",
"51 30 LINE SMOOTH",
"49 9 OFFCURVE",
"57 0 OFFCURVE",
"78 0 CURVE SMOOTH",
"341 0 LINE SMOOTH",
"355 0 OFFCURVE",
"362 9 OFFCURVE",
"364 30 CURVE SMOOTH",
"366 46 LINE SMOOTH",
"368 67 OFFCURVE",
"363 76 OFFCURVE",
"349 76 CURVE SMOOTH",
"144 76 LINE",
"208 680 LINE SMOOTH",
"209 694 OFFCURVE",
"198 702 OFFCURVE",
"170 702 CURVE SMOOTH"
);
},
{
closed = 1;
nodes = (
"610 702 LINE SMOOTH",
"582 702 OFFCURVE",
"569 694 OFFCURVE",
"568 680 CURVE SMOOTH",
"501 45 LINE SMOOTH",
"492 -41 OFFCURVE",
"447 -78 OFFCURVE",
"348 -78 CURVE SMOOTH",
"316 -78 OFFCURVE",
"294 -69 OFFCURVE",
"286 -69 CURVE SMOOTH",
"270 -69 OFFCURVE",
"259 -120 OFFCURVE",
"258 -124 CURVE SMOOTH",
"255 -151 OFFCURVE",
"318 -156 OFFCURVE",
"356 -156 CURVE SMOOTH",
"510 -156 OFFCURVE",
"577 -71 OFFCURVE",
"590 55 CURVE SMOOTH",
"656 680 LINE SMOOTH",
"657 694 OFFCURVE",
"646 702 OFFCURVE",
"618 702 CURVE SMOOTH"
);
}
);
};
layerId = UUID0;
paths = (
{
closed = 1;
nodes = (
"160 702 LINE SMOOTH",
"132 702 OFFCURVE",
"119 694 OFFCURVE",
"118 680 CURVE SMOOTH",
"50 30 LINE",
"50 9 OFFCURVE",
"55 0 OFFCURVE",
"77 0 CURVE SMOOTH",
"342 0 LINE SMOOTH",
"367 0 OFFCURVE",
"367 31 OFFCURVE",
"367 54 CURVE SMOOTH",
"367 69 OFFCURVE",
"362 76 OFFCURVE",
"350 76 CURVE SMOOTH",
"143 76 LINE",
"206 680 LINE",
"206 694 OFFCURVE",
"197 702 OFFCURVE",
"168 702 CURVE SMOOTH"
);
},
{
closed = 1;
nodes = (
"611 702 LINE SMOOTH",
"582 702 OFFCURVE",
"570 694 OFFCURVE",
"569 680 CURVE SMOOTH",
"502 48 LINE SMOOTH",
"493 -38 OFFCURVE",
"450 -77 OFFCURVE",
"357 -77 CURVE SMOOTH",
"317 -77 OFFCURVE",
"300 -68 OFFCURVE",
"291 -68 CURVE SMOOTH",
"282 -68 OFFCURVE",
"276 -83 OFFCURVE",
"276 -127 CURVE SMOOTH",
"276 -152 OFFCURVE",
"321 -159 OFFCURVE",
"364 -159 CURVE SMOOTH",
"511 -159 OFFCURVE",
"578 -74 OFFCURVE",
"591 52 CURVE SMOOTH",
"657 680 LINE",
"657 694 OFFCURVE",
"648 702 OFFCURVE",
"619 702 CURVE SMOOTH"
);
}
);
width = 718;
},
{
background = {
paths = (
{
closed = 1;
nodes = (
"166 702 LINE SMOOTH",
"124 702 OFFCURVE",
"105 691 OFFCURVE",
"103 670 CURVE SMOOTH",
"37 40 LINE SMOOTH",
"34 12 OFFCURVE",
"45 0 OFFCURVE",
"73 0 CURVE SMOOTH",
"340 0 LINE SMOOTH",
"361 0 OFFCURVE",
"371 15 OFFCURVE",
"375 50 CURVE SMOOTH",
"378 81 LINE SMOOTH",
"382 116 OFFCURVE",
"374 131 OFFCURVE",
"353 131 CURVE SMOOTH",
"200 131 LINE",
"257 670 LINE SMOOTH",
"259 691 OFFCURVE",
"242 702 OFFCURVE",
"200 702 CURVE SMOOTH"
);
},
{
closed = 1;
nodes = (
"602 703 LINE SMOOTH",
"560 703 OFFCURVE",
"541 691 OFFCURVE",
"539 670 CURVE SMOOTH",
"474 54 LINE SMOOTH",
"467 -19 OFFCURVE",
"439 -50 OFFCURVE",
"379 -50 CURVE SMOOTH",
"347 -50 OFFCURVE",
"334 -42 OFFCURVE",
"324 -42 CURVE",
"293 -45 OFFCURVE",
"275 -117 OFFCURVE",
"273 -135 CURVE SMOOTH",
"269 -178 OFFCURVE",
"369 -181 OFFCURVE",
"393 -181 CURVE SMOOTH",
"542 -181 OFFCURVE",
"615 -85 OFFCURVE",
"628 42 CURVE SMOOTH",
"694 670 LINE SMOOTH",
"696 691 OFFCURVE",
"679 703 OFFCURVE",
"637 703 CURVE SMOOTH"
);
}
);
};
layerId = "DE974D70-A5B4-43AB-B940-69E4F08CB641";
paths = (
{
closed = 1;
nodes = (
"166 702 LINE SMOOTH",
"127 702 OFFCURVE",
"105 691 OFFCURVE",
"103 670 CURVE SMOOTH",
"36 32 LINE",
"36 8 OFFCURVE",
"45 0 OFFCURVE",
"72 0 CURVE SMOOTH",
"342 0 LINE SMOOTH",
"371 0 OFFCURVE",
"380 39 OFFCURVE",
"380 91 CURVE SMOOTH",
"380 119 OFFCURVE",
"372 131 OFFCURVE",
"354 131 CURVE SMOOTH",
"201 131 LINE",
"258 671 LINE",
"258 700 OFFCURVE",
"218 702 OFFCURVE",
"201 702 CURVE SMOOTH"
);
},
{
closed = 1;
nodes = (
"604 702 LINE SMOOTH",
"565 702 OFFCURVE",
"543 691 OFFCURVE",
"541 670 CURVE SMOOTH",
"474 53 LINE SMOOTH",
"466 -20 OFFCURVE",
"439 -51 OFFCURVE",
"379 -51 CURVE SMOOTH",
"335 -51 OFFCURVE",
"324 -42 OFFCURVE",
"316 -42 CURVE SMOOTH",
"309 -42 OFFCURVE",
"296 -53 OFFCURVE",
"296 -139 CURVE SMOOTH",
"296 -176 OFFCURVE",
"352 -182 OFFCURVE",
"392 -182 CURVE SMOOTH",
"541 -182 OFFCURVE",
"612 -99 OFFCURVE",
"626 28 CURVE SMOOTH",
"696 671 LINE",
"696 700 OFFCURVE",
"656 702 OFFCURVE",
"639 702 CURVE SMOOTH"
);
}
);
width = 718;
}
);
unicode = 01C7;
},
{
glyphname = Lslash;
layers = (
{
components = (
{
name = L;
}
);
layerId = UUID0;
paths = (
{
closed = 1;
nodes = (
"4 304 OFFCURVE",
"8 306 OFFCURVE",
"12 308 CURVE SMOOTH",
"292 465 LINE SMOOTH",
"305 472 OFFCURVE",
"315 481 OFFCURVE",
"315 501 CURVE SMOOTH",
"315 502 LINE SMOOTH",
"315 511 OFFCURVE",
"313 515 OFFCURVE",
"308 515 CURVE SMOOTH",
"305 515 OFFCURVE",
"301 513 OFFCURVE",
"297 511 CURVE SMOOTH",
"17 354 LINE SMOOTH",
"5 347 OFFCURVE",
"-5 338 OFFCURVE",
"-5 318 CURVE SMOOTH",
"-5 317 LINE SMOOTH",
"-5 309 OFFCURVE",
"-3 304 OFFCURVE",
"2 304 CURVE SMOOTH"
);
}
);
width = 486;
},
{
components = (
{
name = L;
}
);
layerId = "DE974D70-A5B4-43AB-B940-69E4F08CB641";
paths = (
{
closed = 1;
nodes = (
"33 283 OFFCURVE",
"38 285 OFFCURVE",
"45 289 CURVE SMOOTH",
"322 448 LINE SMOOTH",
"340 458 OFFCURVE",
"355 472 OFFCURVE",
"355 512 CURVE SMOOTH",
"355 514 LINE SMOOTH",
"355 526 OFFCURVE",
"353 534 OFFCURVE",
"346 534 CURVE SMOOTH",
"342 534 OFFCURVE",
"337 532 OFFCURVE",
"330 528 CURVE SMOOTH",
"53 369 LINE SMOOTH",
"35 358 OFFCURVE",
"20 344 OFFCURVE",
"20 305 CURVE SMOOTH",
"20 303 LINE SMOOTH",
"20 291 OFFCURVE",
"22 283 OFFCURVE",
"29 283 CURVE SMOOTH"
);
}
);
width = 486;
}
);
rightKerningGroup = L;
unicode = 0141;
},
{
color = 4;
glyphname = M;
layers = (
{
background = {
paths = (
{
closed = 0;
nodes = (
"193 514 LINE SMOOTH",
"195 530 OFFCURVE",
"197 547 OFFCURVE",
"196 563 CURVE",
"200 564 LINE",
"205 550 OFFCURVE",
"210 537 OFFCURVE",
"217 524 CURVE SMOOTH"
);
},
{
closed = 0;
nodes = (
"680 501 LINE SMOOTH",
"681 514 OFFCURVE",
"684 538 OFFCURVE",
"688 554 CURVE",
"684 556 LINE",
"677 544 OFFCURVE",
"669 532 OFFCURVE",
"660 520 CURVE SMOOTH"
);
}
);
};
layerId = UUID0;
paths = (
{
closed = 1;
nodes = (
"425 195 LINE SMOOTH",
"436 195 OFFCURVE",
"443 199 OFFCURVE",
"449 208 CURVE SMOOTH",
"660 520 LINE SMOOTH",
"669 533 OFFCURVE",
"676 544 OFFCURVE",
"683 556 CURVE",
"687 554 LINE",
"684 540 OFFCURVE",
"681 513 OFFCURVE",
"680 501 CURVE SMOOTH",
"630 20 LINE SMOOTH",
"630 6 OFFCURVE",
"638 -2 OFFCURVE",
"668 -2 CURVE SMOOTH",
"675 -2 LINE SMOOTH",
"701 -2 OFFCURVE",
"715 6 OFFCURVE",
"717 20 CURVE SMOOTH",
"786 680 LINE",
"786 694 OFFCURVE",
"777 702 OFFCURVE",
"748 702 CURVE SMOOTH",
"715 702 LINE SMOOTH",
"691 702 OFFCURVE",
"679 695 OFFCURVE",
"672 684 CURVE SMOOTH",
"448 350 LINE SMOOTH",
"438 335 OFFCURVE",
"426 316 OFFCURVE",
"416 293 CURVE",
"412 316 OFFCURVE",
"404 339 OFFCURVE",
"396 356 CURVE SMOOTH",
"242 684 LINE SMOOTH",
"237 695 OFFCURVE",
"225 702 OFFCURVE",
"201 702 CURVE SMOOTH",
"165 702 LINE SMOOTH",
"137 702 OFFCURVE",
"124 694 OFFCURVE",
"123 680 CURVE SMOOTH",
"54 20 LINE",
"54 6 OFFCURVE",
"62 -2 OFFCURVE",
"92 -2 CURVE SMOOTH",
"99 -2 LINE SMOOTH",
"125 -2 OFFCURVE",
"139 6 OFFCURVE",
"141 20 CURVE SMOOTH",
"193 514 LINE SMOOTH",
"195 530 OFFCURVE",
"197 547 OFFCURVE",
"196 563 CURVE",
"200 564 LINE",
"205 550 OFFCURVE",
"211 537 OFFCURVE",
"217 524 CURVE SMOOTH",
"365 208 LINE SMOOTH",
"369 199 OFFCURVE",
"375 195 OFFCURVE",
"385 195 CURVE SMOOTH"
);
}
);
width = 843;
},
{
background = {
paths = (
{
closed = 0;
nodes = (
"255 405 LINE",
"249 418 OFFCURVE",
"243 431 OFFCURVE",
"237 445 CURVE",
"233 444 LINE",
"232 428 OFFCURVE",
"230 411 OFFCURVE",
"228 395 CURVE SMOOTH"
);
},
{
closed = 0;
nodes = (
"635 395 LINE SMOOTH",
"636 406 OFFCURVE",
"639 435 OFFCURVE",
"640 444 CURVE",
"635 445 LINE",
"628 433 OFFCURVE",
"623 425 OFFCURVE",
"614 412 CURVE"
);
}
);
};
layerId = "DE974D70-A5B4-43AB-B940-69E4F08CB641";
paths = (
{
closed = 1;
nodes = (
"422 167 LINE SMOOTH",
"441 167 OFFCURVE",
"454 174 OFFCURVE",
"464 186 CURVE",
"614 412 LINE SMOOTH",
"623 425 OFFCURVE",
"628 433 OFFCURVE",
"635 445 CURVE",
"640 444 LINE",
"639 435 OFFCURVE",
"636 406 OFFCURVE",
"635 395 CURVE SMOOTH",
"597 30 LINE",
"597 9 OFFCURVE",
"611 -2 OFFCURVE",
"654 -2 CURVE SMOOTH",
"683 -2 LINE SMOOTH",
"725 -2 OFFCURVE",
"744 9 OFFCURVE",
"746 30 CURVE SMOOTH",
"813 670 LINE",
"813 691 OFFCURVE",
"799 702 OFFCURVE",
"756 702 CURVE SMOOTH",
"704 702 LINE SMOOTH",
"675 702 OFFCURVE",
"652 695 OFFCURVE",
"639 675 CURVE SMOOTH",
"449 394 LINE SMOOTH",
"442 383 OFFCURVE",
"435 373 OFFCURVE",
"428 362 CURVE",
"423 373 OFFCURVE",
"418 383 OFFCURVE",
"413 394 CURVE SMOOTH",
"285 675 LINE SMOOTH",
"276 695 OFFCURVE",
"253 702 OFFCURVE",
"224 702 CURVE SMOOTH",
"171 702 LINE SMOOTH",
"129 702 OFFCURVE",
"110 691 OFFCURVE",
"108 670 CURVE SMOOTH",
"41 30 LINE",
"41 9 OFFCURVE",
"55 -2 OFFCURVE",
"98 -2 CURVE SMOOTH",
"127 -2 LINE SMOOTH",
"169 -2 OFFCURVE",
"188 9 OFFCURVE",
"190 30 CURVE SMOOTH",
"228 395 LINE SMOOTH",
"230 411 OFFCURVE",
"232 428 OFFCURVE",
"233 444 CURVE",
"237 445 LINE",
"243 431 OFFCURVE",
"249 418 OFFCURVE",
"255 405 CURVE SMOOTH",
"355 186 LINE",
"363 174 OFFCURVE",
"374 167 OFFCURVE",
"393 167 CURVE SMOOTH"
);
}
);
width = 843;
}
);
unicode = 004D;
},
{
color = 4;
glyphname = N;
layers = (
{
anchors = (
{
name = bottom;
position = "{336, 0}";
},
{
name = top;
position = "{391, 700}";
}
);
background = {
paths = (
{
closed = 0;
nodes = (
"189 494 LINE",
"192 518 OFFCURVE",
"193 540 OFFCURVE",
"193 560 CURVE",
"200 561 LINE",
"205 539 OFFCURVE",
"211 522 OFFCURVE",
"222 501 CURVE SMOOTH"
);
},
{
closed = 0;
nodes = (
"530 212 LINE",
"527 188 OFFCURVE",
"526 166 OFFCURVE",
"526 146 CURVE",
"519 145 LINE",
"514 167 OFFCURVE",
"508 184 OFFCURVE",
"497 205 CURVE SMOOTH"
);
}
);
};
layerId = UUID0;
paths = (
{
closed = 1;
nodes = (
"97 -2 LINE SMOOTH",
"123 -2 OFFCURVE",
"137 6 OFFCURVE",
"139 20 CURVE SMOOTH",
"189 494 LINE SMOOTH",
"192 518 OFFCURVE",
"193 540 OFFCURVE",
"193 560 CURVE",
"200 561 LINE",
"205 539 OFFCURVE",
"211 522 OFFCURVE",
"222 501 CURVE SMOOTH",
"501 12 LINE SMOOTH",
"506 3 OFFCURVE",
"516 -2 OFFCURVE",
"535 -2 CURVE SMOOTH",
"555 -2 LINE SMOOTH",
"581 -2 OFFCURVE",
"595 6 OFFCURVE",
"597 20 CURVE SMOOTH",
"666 680 LINE",
"666 694 OFFCURVE",
"657 702 OFFCURVE",
"628 702 CURVE SMOOTH",
"621 702 LINE SMOOTH",
"593 702 OFFCURVE",
"580 694 OFFCURVE",
"579 680 CURVE SMOOTH",
"530 212 LINE SMOOTH",
"527 188 OFFCURVE",
"526 166 OFFCURVE",
"526 146 CURVE",
"519 145 LINE",
"514 167 OFFCURVE",
"508 184 OFFCURVE",
"497 205 CURVE SMOOTH",
"224 683 LINE SMOOTH",
"216 697 OFFCURVE",
"206 702 OFFCURVE",
"184 702 CURVE SMOOTH",
"163 702 LINE SMOOTH",
"135 702 OFFCURVE",
"122 694 OFFCURVE",
"121 680 CURVE SMOOTH",
"52 20 LINE",
"52 6 OFFCURVE",
"60 -2 OFFCURVE",
"90 -2 CURVE SMOOTH"
);
}
);
width = 719;
},
{
anchors = (
{
name = bottom;
position = "{341, 0}";
},
{
name = top;
position = "{396, 700}";
}
);
background = {
paths = (
{
closed = 0;
nodes = (
"219 366 LINE",
"222 391 OFFCURVE",
"224 411 OFFCURVE",
"224 434 CURVE",
"230 435 LINE",
"237 415 OFFCURVE",
"248 395 OFFCURVE",
"259 376 CURVE SMOOTH"
);
},
{
closed = 0;
nodes = (
"499 338 LINE",
"496 313 OFFCURVE",
"494 293 OFFCURVE",
"494 270 CURVE",
"488 269 LINE",
"481 289 OFFCURVE",
"471 309 OFFCURVE",
"460 329 CURVE SMOOTH"
);
}
);
};
layerId = "DE974D70-A5B4-43AB-B940-69E4F08CB641";
paths = (
{
closed = 1;
nodes = (
"121 -2 LINE SMOOTH",
"163 -2 OFFCURVE",
"182 9 OFFCURVE",
"184 30 CURVE SMOOTH",
"219 366 LINE SMOOTH",
"222 391 OFFCURVE",
"224 411 OFFCURVE",
"224 434 CURVE",
"230 435 LINE",
"237 415 OFFCURVE",
"248 395 OFFCURVE",
"259 376 CURVE SMOOTH",
"451 25 LINE SMOOTH",
"464 2 OFFCURVE",
"486 -2 OFFCURVE",
"515 -2 CURVE SMOOTH",
"553 -2 LINE SMOOTH",
"595 -2 OFFCURVE",
"614 9 OFFCURVE",
"616 30 CURVE SMOOTH",
"683 670 LINE",
"683 691 OFFCURVE",
"669 702 OFFCURVE",
"626 702 CURVE SMOOTH",
"597 702 LINE SMOOTH",
"555 702 OFFCURVE",
"536 691 OFFCURVE",
"534 670 CURVE SMOOTH",
"499 338 LINE SMOOTH",
"496 313 OFFCURVE",
"494 293 OFFCURVE",
"494 270 CURVE",
"488 269 LINE",
"481 289 OFFCURVE",
"471 309 OFFCURVE",
"460 329 CURVE SMOOTH",
"272 675 LINE SMOOTH",
"259 698 OFFCURVE",
"237 702 OFFCURVE",
"208 702 CURVE SMOOTH",
"165 702 LINE SMOOTH",
"123 702 OFFCURVE",
"104 691 OFFCURVE",
"102 670 CURVE SMOOTH",
"35 30 LINE",
"35 9 OFFCURVE",
"49 -2 OFFCURVE",
"92 -2 CURVE SMOOTH"
);
}
);
width = 719;
}
);
unicode = 004E;
},
{
glyphname = Eng;
layers = (
{
layerId = UUID0;
paths = (
{
closed = 1;
nodes = (
"506 -212 OFFCURVE",
"575 -190 OFFCURVE",
"587 -74 CURVE",
"666 680 LINE",
"666 694 OFFCURVE",
"657 702 OFFCURVE",
"628 702 CURVE SMOOTH",
"621 702 LINE SMOOTH",
"593 702 OFFCURVE",
"580 694 OFFCURVE",
"579 680 CURVE SMOOTH",
"530 212 LINE SMOOTH",
"527 188 OFFCURVE",
"526 166 OFFCURVE",
"526 146 CURVE",
"519 145 LINE",
"514 167 OFFCURVE",
"508 184 OFFCURVE",
"497 205 CURVE",
"224 683 LINE SMOOTH",
"216 697 OFFCURVE",
"206 702 OFFCURVE",
"184 702 CURVE SMOOTH",
"163 702 LINE SMOOTH",
"135 702 OFFCURVE",
"122 694 OFFCURVE",
"121 680 CURVE SMOOTH",
"52 20 LINE",
"52 6 OFFCURVE",
"60 -2 OFFCURVE",
"90 -2 CURVE SMOOTH",
"97 -2 LINE SMOOTH",
"123 -2 OFFCURVE",
"137 6 OFFCURVE",
"139 20 CURVE",
"189 494 LINE SMOOTH",
"192 518 OFFCURVE",
"193 540 OFFCURVE",
"193 560 CURVE",
"200 561 LINE",
"205 539 OFFCURVE",
"211 522 OFFCURVE",
"222 501 CURVE",
"511 -5 LINE",
"504 -66 LINE SMOOTH",
"498 -126 OFFCURVE",
"475 -140 OFFCURVE",
"444 -140 CURVE SMOOTH",
"409 -140 OFFCURVE",
"396 -123 OFFCURVE",
"388 -123 CURVE SMOOTH",
"383 -123 OFFCURVE",
"377 -129 OFFCURVE",
"377 -171 CURVE SMOOTH",
"377 -195 OFFCURVE",
"409 -212 OFFCURVE",
"455 -212 CURVE SMOOTH"
);
}
);
width = 719;
},
{
layerId = "DE974D70-A5B4-43AB-B940-69E4F08CB641";
paths = (
{
closed = 1;
nodes = (
"540 -212 OFFCURVE",
"596 -152 OFFCURVE",
"607 -50 CURVE",
"683 670 LINE",
"683 691 OFFCURVE",
"669 702 OFFCURVE",
"626 702 CURVE SMOOTH",
"597 702 LINE SMOOTH",
"555 702 OFFCURVE",
"536 691 OFFCURVE",
"534 670 CURVE SMOOTH",
"499 338 LINE SMOOTH",
"496 313 OFFCURVE",
"494 293 OFFCURVE",
"494 270 CURVE",
"488 269 LINE",
"481 289 OFFCURVE",
"471 309 OFFCURVE",
"460 329 CURVE SMOOTH",
"272 675 LINE SMOOTH",
"259 698 OFFCURVE",
"237 702 OFFCURVE",
"208 702 CURVE SMOOTH",
"165 702 LINE SMOOTH",
"123 702 OFFCURVE",
"104 691 OFFCURVE",
"102 670 CURVE SMOOTH",
"35 30 LINE",
"35 9 OFFCURVE",
"49 -2 OFFCURVE",
"92 -2 CURVE SMOOTH",
"121 -2 LINE SMOOTH",
"163 -2 OFFCURVE",
"182 9 OFFCURVE",
"184 30 CURVE SMOOTH",
"219 366 LINE SMOOTH",
"222 391 OFFCURVE",
"224 411 OFFCURVE",
"224 434 CURVE",
"230 435 LINE",
"237 415 OFFCURVE",
"248 395 OFFCURVE",
"259 376 CURVE SMOOTH",
"465 -1 LINE",
"459 -52 LINE SMOOTH",
"456 -82 OFFCURVE",
"444 -95 OFFCURVE",
"419 -95 CURVE SMOOTH",
"399 -95 OFFCURVE",
"389 -90 OFFCURVE",
"384 -90 CURVE SMOOTH",
"375 -90 OFFCURVE",
"366 -110 OFFCURVE",
"366 -173 CURVE SMOOTH",
"366 -211 OFFCURVE",
"414 -212 OFFCURVE",
"444 -212 CURVE SMOOTH"
);
}
);
width = 719;
}
);
unicode = 014A;
},
{
color = 4;
glyphname = O;
layers = (
{
anchors = (
{
name = bottom;
position = "{327, 0}";
},
{
name = horn;
position = "{503, 682}";
},
{
name = ogonek;
position = "{403, 0}";
},
{
name = top;
position = "{402, 700}";
}
);
layerId = UUID0;
paths = (
{
closed = 1;
nodes = (
"541 -6 OFFCURVE",
"678 142 OFFCURVE",
"678 420 CURVE SMOOTH",
"678 609 OFFCURVE",
"582 706 OFFCURVE",
"402 706 CURVE SMOOTH",
"139 706 OFFCURVE",
"53 492 OFFCURVE",
"53 282 CURVE SMOOTH",
"53 93 OFFCURVE",
"148 -6 OFFCURVE",
"327 -6 CURVE SMOOTH"
);
},
{
closed = 1;
nodes = (
"210 70 OFFCURVE",
"144 146 OFFCURVE",
"144 291 CURVE SMOOTH",
"144 515 OFFCURVE",
"242 630 OFFCURVE",
"394 630 CURVE SMOOTH",
"519 630 OFFCURVE",
"586 556 OFFCURVE",
"586 410 CURVE SMOOTH",
"586 189 OFFCURVE",
"485 70 OFFCURVE",
"335 70 CURVE SMOOTH"
);
}
);
width = 731;
},
{
anchors = (
{
name = bottom;
position = "{327, 0}";
},
{
name = horn;
position = "{517, 682}";
},
{
name = ogonek;
position = "{423, 0}";
},
{
name = top;
position = "{396, 700}";
}
);
layerId = "DE974D70-A5B4-43AB-B940-69E4F08CB641";
paths = (
{
closed = 1;
nodes = (
"562 -8 OFFCURVE",
"689 143 OFFCURVE",
"689 414 CURVE SMOOTH",
"689 604 OFFCURVE",
"589 708 OFFCURVE",
"403 708 CURVE SMOOTH",
"140 708 OFFCURVE",
"41 496 OFFCURVE",
"41 284 CURVE SMOOTH",
"41 95 OFFCURVE",
"142 -8 OFFCURVE",
"328 -8 CURVE SMOOTH"
);
},
{
closed = 1;
nodes = (
"248 123 OFFCURVE",
"200 184 OFFCURVE",
"200 298 CURVE SMOOTH",
"200 478 OFFCURVE",
"273 576 OFFCURVE",
"389 576 CURVE SMOOTH",
"483 576 OFFCURVE",
"531 515 OFFCURVE",
"531 400 CURVE SMOOTH",
"531 221 OFFCURVE",
"456 123 OFFCURVE",
"342 123 CURVE SMOOTH"
);
}
);
width = 731;
}
);
leftKerningGroup = O;
rightKerningGroup = O;
unicode = 004F;
},
{
glyphname = Ohorn;
layers = (
{
anchors = (
{
name = bottom;
position = "{327, 0}";
},
{
name = ogonek;
position = "{403, 0}";
},
{
name = top;
position = "{402, 700}";
}
);
layerId = UUID0;
paths = (
{
closed = 1;
nodes = (
"541 -6 OFFCURVE",
"678 142 OFFCURVE",
"678 420 CURVE SMOOTH",
"678 526 OFFCURVE",
"648 603 OFFCURVE",
"590 650 CURVE",
"654 658 OFFCURVE",
"690 700 OFFCURVE",
"690 746 CURVE SMOOTH",
"690 774 OFFCURVE",
"678 813 OFFCURVE",
"655 813 CURVE SMOOTH",
"651 813 OFFCURVE",
"647 812 OFFCURVE",
"643 809 CURVE",
"617 793 LINE SMOOTH",
"610 789 OFFCURVE",
"606 783 OFFCURVE",
"606 777 CURVE SMOOTH",
"606 765 OFFCURVE",
"627 745 OFFCURVE",
"627 722 CURVE SMOOTH",
"627 695 OFFCURVE",
"605 683 OFFCURVE",
"574 682 CURVE SMOOTH",
"555 682 OFFCURVE",
"535 686 OFFCURVE",
"513 691 CURVE SMOOTH",
"473 700 OFFCURVE",
"443 706 OFFCURVE",
"402 706 CURVE SMOOTH",
"139 706 OFFCURVE",
"53 492 OFFCURVE",
"53 282 CURVE SMOOTH",
"53 93 OFFCURVE",
"148 -6 OFFCURVE",
"327 -6 CURVE SMOOTH"
);
},
{
closed = 1;
nodes = (
"210 70 OFFCURVE",
"144 146 OFFCURVE",
"144 291 CURVE SMOOTH",
"144 515 OFFCURVE",
"242 630 OFFCURVE",
"394 630 CURVE SMOOTH",
"519 630 OFFCURVE",
"586 556 OFFCURVE",
"586 410 CURVE SMOOTH",
"586 189 OFFCURVE",
"485 70 OFFCURVE",
"335 70 CURVE SMOOTH"
);
}
);
width = 731;
},
{
anchors = (
{
name = bottom;
position = "{327, 0}";
},
{
name = ogonek;
position = "{423, 0}";
},
{
name = top;
position = "{396, 700}";
}
);
layerId = "DE974D70-A5B4-43AB-B940-69E4F08CB641";
paths = (
{
closed = 1;
nodes = (
"562 -8 OFFCURVE",
"689 143 OFFCURVE",
"689 414 CURVE SMOOTH",
"689 515 OFFCURVE",
"661 591 OFFCURVE",
"607 641 CURVE",
"679 649 OFFCURVE",
"717 686 OFFCURVE",
"717 737 CURVE SMOOTH",
"717 763 OFFCURVE",
"705 816 OFFCURVE",
"679 816 CURVE SMOOTH",
"673 816 OFFCURVE",
"668 815 OFFCURVE",
"662 811 CURVE SMOOTH",
"628 789 LINE SMOOTH",
"620 784 OFFCURVE",
"615 777 OFFCURVE",
"615 770 CURVE SMOOTH",
"615 757 OFFCURVE",
"636 740 OFFCURVE",
"636 722 CURVE SMOOTH",
"636 692 OFFCURVE",
"612 681 OFFCURVE",
"580 682 CURVE SMOOTH",
"560 682 OFFCURVE",
"536 688 OFFCURVE",
"513 693 CURVE SMOOTH",
"475 702 OFFCURVE",
"444 708 OFFCURVE",
"403 708 CURVE SMOOTH",
"140 708 OFFCURVE",
"41 496 OFFCURVE",
"41 284 CURVE SMOOTH",
"41 95 OFFCURVE",
"142 -8 OFFCURVE",
"328 -8 CURVE SMOOTH"
);
},
{
closed = 1;
nodes = (
"248 123 OFFCURVE",
"200 184 OFFCURVE",
"200 298 CURVE SMOOTH",
"200 478 OFFCURVE",
"273 576 OFFCURVE",
"389 576 CURVE SMOOTH",
"483 576 OFFCURVE",
"531 515 OFFCURVE",
"531 400 CURVE SMOOTH",
"531 221 OFFCURVE",
"456 123 OFFCURVE",
"342 123 CURVE SMOOTH"
);
}
);
width = 731;
}
);
leftKerningGroup = O;
rightKerningGroup = Ohorn;
unicode = 01A0;
},
{
glyphname = Oslash;
layers = (
{
anchors = (
{
name = top;
position = "{406, 700}";
}
);
components = (
{
name = O;
}
);
layerId = UUID0;
paths = (
{
closed = 1;
nodes = (
"696 669 LINE SMOOTH",
"701 674 OFFCURVE",
"703 678 OFFCURVE",
"703 683 CURVE SMOOTH",
"703 692 OFFCURVE",
"692 702 OFFCURVE",
"683 702 CURVE SMOOTH",
"678 702 OFFCURVE",
"674 700 OFFCURVE",
"669 695 CURVE",
"7 35 LINE",
"2 30 OFFCURVE",
"-1 25 OFFCURVE",
"-1 21 CURVE SMOOTH",
"-1 12 OFFCURVE",
"11 1 OFFCURVE",
"19 1 CURVE SMOOTH",
"23 1 OFFCURVE",
"28 4 OFFCURVE",
"33 9 CURVE SMOOTH"
);
}
);
width = 731;
},
{
anchors = (
{
name = top;
position = "{396, 700}";
}
);
components = (
{
name = O;
}
);
layerId = "DE974D70-A5B4-43AB-B940-69E4F08CB641";
paths = (
{
closed = 1;
nodes = (
"672 658 LINE",
"679 665 OFFCURVE",
"682 672 OFFCURVE",
"682 678 CURVE SMOOTH",
"682 695 OFFCURVE",
"647 724 OFFCURVE",
"634 724 CURVE SMOOTH",
"626 724 OFFCURVE",
"619 720 OFFCURVE",
"612 712 CURVE",
"29 54 LINE",
"22 47 OFFCURVE",
"19 40 OFFCURVE",
"19 34 CURVE SMOOTH",
"19 17 OFFCURVE",
"54 -12 OFFCURVE",
"67 -12 CURVE SMOOTH",
"74 -12 OFFCURVE",
"82 -8 OFFCURVE",
"89 0 CURVE"
);
}
);
width = 731;
}
);
leftKerningGroup = Oslash;
rightKerningGroup = Oslash;
unicode = 00D8;
},
{
glyphname = OE;
layers = (
{
anchors = (
{
name = bottom;
position = "{520, 0}";
},
{
name = ogonek;
position = "{934, 10}";
},
{
name = top;
position = "{511, 700}";
}
);
layerId = UUID0;
paths = (
{
closed = 1;
nodes = (
"429 -6 OFFCURVE",
"516 28 OFFCURVE",
"573 90 CURVE",
"569 177 LINE",
"551 24 LINE SMOOTH",
"549 7 OFFCURVE",
"559 0 OFFCURVE",
"578 0 CURVE SMOOTH",
"932 0 LINE SMOOTH",
"956 0 OFFCURVE",
"957 27 OFFCURVE",
"957 50 CURVE SMOOTH",
"957 54 LINE SMOOTH",
"957 69 OFFCURVE",
"952 76 OFFCURVE",
"940 76 CURVE SMOOTH",
"644 76 LINE",
"669 320 LINE",
"933 320 LINE SMOOTH",
"955 320 OFFCURVE",
"958 345 OFFCURVE",
"958 366 CURVE",
"958 374 LINE",
"958 389 OFFCURVE",
"953 396 OFFCURVE",
"941 396 CURVE SMOOTH",
"677 396 LINE",
"701 624 LINE",
"996 624 LINE SMOOTH",
"1019 624 OFFCURVE",
"1021 650 OFFCURVE",
"1021 672 CURVE",
"1021 678 LINE",
"1021 693 OFFCURVE",
"1016 700 OFFCURVE",
"1004 700 CURVE SMOOTH",
"651 700 LINE SMOOTH",
"630 700 OFFCURVE",
"620 691 OFFCURVE",
"618 670 CURVE SMOOTH",
"608 591 LINE",
"628 612 LINE",
"582 671 OFFCURVE",
"503 706 OFFCURVE",
"402 706 CURVE SMOOTH",
"187 706 OFFCURVE",
"53 562 OFFCURVE",
"53 282 CURVE SMOOTH",
"53 93 OFFCURVE",
"148 -6 OFFCURVE",
"327 -6 CURVE SMOOTH"
);
},
{
closed = 1;
nodes = (
"210 70 OFFCURVE",
"144 146 OFFCURVE",
"144 291 CURVE SMOOTH",
"144 515 OFFCURVE",
"242 630 OFFCURVE",
"394 630 CURVE SMOOTH",
"519 630 OFFCURVE",
"586 556 OFFCURVE",
"586 410 CURVE SMOOTH",
"586 189 OFFCURVE",
"485 70 OFFCURVE",
"335 70 CURVE SMOOTH"
);
}
);
width = 1021;
},
{
anchors = (
{
name = bottom;
position = "{490, 0}";
},
{
name = ogonek;
position = "{914, 10}";
},
{
name = top;
position = "{571, 700}";
}
);
layerId = "DE974D70-A5B4-43AB-B940-69E4F08CB641";
paths = (
{
closed = 1;
nodes = (
"401 -8 OFFCURVE",
"471 14 OFFCURVE",
"534 61 CURVE",
"496 103 LINE",
"496 32 LINE",
"496 8 OFFCURVE",
"505 0 OFFCURVE",
"532 0 CURVE SMOOTH",
"900 0 LINE SMOOTH",
"927 0 OFFCURVE",
"937 34 OFFCURVE",
"938 80 CURVE SMOOTH",
"938 91 LINE SMOOTH",
"938 119 OFFCURVE",
"930 131 OFFCURVE",
"912 131 CURVE SMOOTH",
"660 131 LINE",
"678 293 LINE",
"903 293 LINE SMOOTH",
"930 293 OFFCURVE",
"939 326 OFFCURVE",
"941 372 CURVE SMOOTH",
"941 384 LINE SMOOTH",
"941 412 OFFCURVE",
"933 424 OFFCURVE",
"915 424 CURVE SMOOTH",
"691 424 LINE",
"707 569 LINE",
"959 569 LINE SMOOTH",
"986 569 OFFCURVE",
"995 602 OFFCURVE",
"997 647 CURVE SMOOTH",
"997 660 LINE SMOOTH",
"997 688 OFFCURVE",
"989 700 OFFCURVE",
"971 700 CURVE SMOOTH",
"605 700 LINE SMOOTH",
"574 700 OFFCURVE",
"563 685 OFFCURVE",
"560 651 CURVE SMOOTH",
"554 588 LINE",
"593 635 LINE",
"544 684 OFFCURVE",
"477 708 OFFCURVE",
"393 708 CURVE SMOOTH",
"178 708 OFFCURVE",
"41 556 OFFCURVE",
"41 282 CURVE SMOOTH",
"41 94 OFFCURVE",
"138 -8 OFFCURVE",
"318 -8 CURVE SMOOTH"
);
},
{
closed = 1;
nodes = (
"248 123 OFFCURVE",
"200 184 OFFCURVE",
"200 298 CURVE SMOOTH",
"200 478 OFFCURVE",
"273 576 OFFCURVE",
"389 576 CURVE SMOOTH",
"483 576 OFFCURVE",
"531 515 OFFCURVE",
"531 400 CURVE SMOOTH",
"531 221 OFFCURVE",
"456 123 OFFCURVE",
"342 123 CURVE SMOOTH"
);
}
);
width = 1021;
}
);
leftKerningGroup = O;
unicode = 0152;
},
{
color = 4;
glyphname = P;
layers = (
{
anchors = (
{
name = bottom;
position = "{92, 0}";
},
{
name = top;
position = "{331, 700}";
}
);
layerId = UUID0;
paths = (
{
closed = 1;
nodes = (
"96 -2 LINE SMOOTH",
"122 -2 OFFCURVE",
"136 6 OFFCURVE",
"138 20 CURVE SMOOTH",
"167 298 LINE",
"322 298 LINE SMOOTH",
"374 298 OFFCURVE",
"559 323 OFFCURVE",
"559 533 CURVE SMOOTH",
"559 676 OFFCURVE",
"435 700 OFFCURVE",
"354 700 CURVE SMOOTH",
"151 700 LINE SMOOTH",
"130 700 OFFCURVE",
"120 691 OFFCURVE",
"118 670 CURVE SMOOTH",
"50 20 LINE",
"50 6 OFFCURVE",
"58 -2 OFFCURVE",
"88 -2 CURVE SMOOTH"
);
},
{
closed = 1;
nodes = (
"201 624 LINE",
"343 624 LINE SMOOTH",
"398 624 OFFCURVE",
"467 605 OFFCURVE",
"467 521 CURVE SMOOTH",
"467 397 OFFCURVE",
"370 374 OFFCURVE",
"331 374 CURVE SMOOTH",
"175 374 LINE"
);
}
);
width = 570;
},
{
anchors = (
{
name = bottom;
position = "{108, 0}";
},
{
name = top;
position = "{331, 700}";
}
);
layerId = "DE974D70-A5B4-43AB-B940-69E4F08CB641";
paths = (
{
closed = 1;
nodes = (
"125 -2 LINE SMOOTH",
"167 -2 OFFCURVE",
"186 9 OFFCURVE",
"188 30 CURVE SMOOTH",
"212 262 LINE",
"325 262 LINE SMOOTH",
"393 262 OFFCURVE",
"578 291 OFFCURVE",
"578 517 CURVE SMOOTH",
"578 677 OFFCURVE",
"444 700 OFFCURVE",
"361 700 CURVE SMOOTH",
"144 700 LINE SMOOTH",
"116 700 OFFCURVE",
"103 688 OFFCURVE",
"100 660 CURVE SMOOTH",
"34 30 LINE",
"34 9 OFFCURVE",
"48 -2 OFFCURVE",
"91 -2 CURVE SMOOTH"
);
},
{
closed = 1;
nodes = (
"245 569 LINE",
"341 569 LINE SMOOTH",
"376 569 OFFCURVE",
"419 555 OFFCURVE",
"419 496 CURVE SMOOTH",
"419 411 OFFCURVE",
"362 394 OFFCURVE",
"322 394 CURVE SMOOTH",
"226 394 LINE"
);
}
);
width = 570;
}
);
unicode = 0050;
},
{
glyphname = Thorn;
layers = (
{
layerId = UUID0;
paths = (
{
closed = 1;
nodes = (
"96 -2 LINE SMOOTH",
"122 -2 OFFCURVE",
"136 6 OFFCURVE",
"138 20 CURVE SMOOTH",
"154 176 LINE",
"309 176 LINE SMOOTH",
"376 176 OFFCURVE",
"546 201 OFFCURVE",
"546 411 CURVE SMOOTH",
"546 554 OFFCURVE",
"422 578 OFFCURVE",
"341 578 CURVE SMOOTH",
"196 578 LINE",
"207 680 LINE",
"207 694 OFFCURVE",
"198 702 OFFCURVE",
"169 702 CURVE SMOOTH",
"161 702 LINE SMOOTH",
"133 702 OFFCURVE",
"121 694 OFFCURVE",
"119 680 CURVE SMOOTH",
"50 20 LINE",
"50 6 OFFCURVE",
"58 -2 OFFCURVE",
"88 -2 CURVE SMOOTH"
);
},
{
closed = 1;
nodes = (
"188 502 LINE",
"330 502 LINE SMOOTH",
"385 502 OFFCURVE",
"454 483 OFFCURVE",
"454 399 CURVE SMOOTH",
"454 275 OFFCURVE",
"357 252 OFFCURVE",
"318 252 CURVE SMOOTH",
"162 252 LINE"
);
}
);
width = 567;
},
{
layerId = "DE974D70-A5B4-43AB-B940-69E4F08CB641";
paths = (
{
closed = 1;
nodes = (
"125 -2 LINE SMOOTH",
"167 -2 OFFCURVE",
"186 9 OFFCURVE",
"188 30 CURVE SMOOTH",
"201 155 LINE",
"314 155 LINE SMOOTH",
"370 155 OFFCURVE",
"567 184 OFFCURVE",
"567 408 CURVE SMOOTH",
"567 570 OFFCURVE",
"433 593 OFFCURVE",
"350 593 CURVE SMOOTH",
"247 593 LINE",
"255 670 LINE",
"255 691 OFFCURVE",
"241 702 OFFCURVE",
"198 702 CURVE SMOOTH",
"164 702 LINE SMOOTH",
"122 702 OFFCURVE",
"103 691 OFFCURVE",
"101 670 CURVE SMOOTH",
"34 30 LINE",
"34 9 OFFCURVE",
"48 -2 OFFCURVE",
"91 -2 CURVE SMOOTH"
);
},
{
closed = 1;
nodes = (
"233 462 LINE",
"329 462 LINE SMOOTH",
"364 462 OFFCURVE",
"408 448 OFFCURVE",
"408 389 CURVE SMOOTH",
"408 304 OFFCURVE",
"350 287 OFFCURVE",
"311 287 CURVE SMOOTH",
"215 287 LINE"
);
}
);
width = 567;
}
);
unicode = 00DE;
},
{
color = 4;
glyphname = Q;
layers = (
{
layerId = UUID0;
paths = (
{
closed = 1;
nodes = (
"640 -157 OFFCURVE",
"650 -147 OFFCURVE",
"650 -82 CURVE SMOOTH",
"650 -71 OFFCURVE",
"648 -66 OFFCURVE",
"638 -62 CURVE",
"444 1 LINE",
"444 5 LINE",
"590 43 OFFCURVE",
"685 187 OFFCURVE",
"685 417 CURVE SMOOTH",
"685 606 OFFCURVE",
"590 706 OFFCURVE",
"410 706 CURVE SMOOTH",
"196 706 OFFCURVE",
"60 557 OFFCURVE",
"60 278 CURVE SMOOTH",
"60 138 OFFCURVE",
"112 47 OFFCURVE",
"217 6 CURVE SMOOTH",
"248 -6 OFFCURVE",
"612 -157 OFFCURVE",
"629 -157 CURVE SMOOTH"
);
},
{
closed = 1;
nodes = (
"220 67 OFFCURVE",
"152 145 OFFCURVE",
"152 290 CURVE SMOOTH",
"152 509 OFFCURVE",
"254 630 OFFCURVE",
"402 630 CURVE SMOOTH",
"526 630 OFFCURVE",
"593 550 OFFCURVE",
"593 404 CURVE SMOOTH",
"593 187 OFFCURVE",
"492 67 OFFCURVE",
"343 67 CURVE SMOOTH"
);
}
);
width = 731;
},
{
layerId = "DE974D70-A5B4-43AB-B940-69E4F08CB641";
paths = (
{
closed = 1;
nodes = (
"636 -162 OFFCURVE",
"654 -155 OFFCURVE",
"654 -54 CURVE SMOOTH",
"654 -40 OFFCURVE",
"650 -32 OFFCURVE",
"637 -27 CURVE SMOOTH",
"495 27 LINE",
"496 31 LINE",
"614 89 OFFCURVE",
"689 223 OFFCURVE",
"689 414 CURVE SMOOTH",
"689 604 OFFCURVE",
"590 706 OFFCURVE",
"404 706 CURVE SMOOTH",
"143 706 OFFCURVE",
"41 499 OFFCURVE",
"41 286 CURVE",
"42 149 OFFCURVE",
"93 57 OFFCURVE",
"192 16 CURVE SMOOTH",
"396 -68 OFFCURVE",
"615 -162 OFFCURVE",
"625 -162 CURVE SMOOTH"
);
},
{
closed = 1;
nodes = (
"248 119 OFFCURVE",
"200 181 OFFCURVE",
"200 297 CURVE SMOOTH",
"200 477 OFFCURVE",
"274 576 OFFCURVE",
"390 576 CURVE SMOOTH",
"483 576 OFFCURVE",
"531 516 OFFCURVE",
"531 403 CURVE SMOOTH",
"531 219 OFFCURVE",
"457 119 OFFCURVE",
"342 119 CURVE SMOOTH"
);
}
);
width = 731;
}
);
leftKerningGroup = O;
unicode = 0051;
},
{
color = 4;
glyphname = R;
layers = (
{
anchors = (
{
name = bottom;
position = "{275, 0}";
},
{
name = top;
position = "{305, 700}";
}
);
layerId = UUID0;
paths = (
{
closed = 1;
nodes = (
"96 -2 LINE SMOOTH",
"121 -2 OFFCURVE",
"136 6 OFFCURVE",
"138 20 CURVE SMOOTH",
"168 308 LINE",
"258 308 LINE SMOOTH",
"336 308 OFFCURVE",
"375 288 OFFCURVE",
"397 210 CURVE SMOOTH",
"452 14 LINE SMOOTH",
"455 2 OFFCURVE",
"471 -2 OFFCURVE",
"491 -2 CURVE SMOOTH",
"501 -2 LINE SMOOTH",
"534 -2 OFFCURVE",
"545 5 OFFCURVE",
"545 17 CURVE SMOOTH",
"545 20 OFFCURVE",
"544 24 OFFCURVE",
"543 28 CURVE SMOOTH",
"485 225 LINE SMOOTH",
"465 291 OFFCURVE",
"447 336 OFFCURVE",
"409 350 CURVE",
"409 354 LINE",
"488 384 OFFCURVE",
"543 448 OFFCURVE",
"543 548 CURVE SMOOTH",
"543 656 OFFCURVE",
"464 700 OFFCURVE",
"319 700 CURVE SMOOTH",
"151 700 LINE SMOOTH",
"130 700 OFFCURVE",
"120 691 OFFCURVE",
"118 670 CURVE SMOOTH",
"50 20 LINE",
"50 6 OFFCURVE",
"58 -2 OFFCURVE",
"88 -2 CURVE SMOOTH"
);
},
{
closed = 1;
nodes = (
"201 624 LINE",
"326 624 LINE SMOOTH",
"401 624 OFFCURVE",
"450 593 OFFCURVE",
"450 525 CURVE SMOOTH",
"450 451 OFFCURVE",
"388 384 OFFCURVE",
"308 384 CURVE SMOOTH",
"176 384 LINE"
);
}
);
width = 610;
},
{
anchors = (
{
name = bottom;
position = "{276, 0}";
},
{
name = top;
position = "{332, 700}";
}
);
layerId = "DE974D70-A5B4-43AB-B940-69E4F08CB641";
paths = (
{
closed = 1;
nodes = (
"126 -2 LINE SMOOTH",
"168 -2 OFFCURVE",
"187 9 OFFCURVE",
"189 30 CURVE SMOOTH",
"215 274 LINE",
"254 274 LINE SMOOTH",
"319 274 OFFCURVE",
"333 254 OFFCURVE",
"348 214 CURVE",
"407 19 LINE SMOOTH",
"412 3 OFFCURVE",
"433 -2 OFFCURVE",
"463 -2 CURVE SMOOTH",
"504 -2 LINE SMOOTH",
"545 -2 OFFCURVE",
"564 6 OFFCURVE",
"566 18 CURVE",
"566 23 OFFCURVE",
"565 29 OFFCURVE",
"563 37 CURVE SMOOTH",
"498 257 LINE SMOOTH",
"485 300 OFFCURVE",
"459 339 OFFCURVE",
"436 349 CURVE",
"436 353 LINE",
"517 382 OFFCURVE",
"571 447 OFFCURVE",
"571 537 CURVE SMOOTH",
"571 641 OFFCURVE",
"500 700 OFFCURVE",
"340 700 CURVE SMOOTH",
"145 700 LINE SMOOTH",
"117 700 OFFCURVE",
"104 688 OFFCURVE",
"101 660 CURVE SMOOTH",
"35 30 LINE",
"35 9 OFFCURVE",
"49 -2 OFFCURVE",
"92 -2 CURVE SMOOTH"
);
},
{
closed = 1;
nodes = (
"246 569 LINE",
"334 569 LINE SMOOTH",
"383 569 OFFCURVE",
"410 543 OFFCURVE",
"410 501 CURVE SMOOTH",
"410 449 OFFCURVE",
"367 407 OFFCURVE",
"324 407 CURVE SMOOTH",
"229 407 LINE"
);
}
);
width = 610;
}
);
rightKerningGroup = R;
unicode = 0052;
},
{
color = 4;
glyphname = S;
layers = (
{
anchors = (
{
name = bottom;
position = "{220, 0}";
},
{
name = top;
position = "{300, 700}";
}
);
layerId = UUID0;
paths = (
{
closed = 1;
nodes = (
"349 -6 OFFCURVE",
"450 79 OFFCURVE",
"450 215 CURVE SMOOTH",
"450 329 OFFCURVE",
"362 366 OFFCURVE",
"283 398 CURVE SMOOTH",
"217 423 OFFCURVE",
"157 445 OFFCURVE",
"157 511 CURVE SMOOTH",
"157 591 OFFCURVE",
"224 630 OFFCURVE",
"299 630 CURVE SMOOTH",
"344 630 OFFCURVE",
"374 618 OFFCURVE",
"394 607 CURVE SMOOTH",
"410 599 OFFCURVE",
"420 592 OFFCURVE",
"426 592 CURVE SMOOTH",
"436 592 OFFCURVE",
"464 633 OFFCURVE",
"464 646 CURVE SMOOTH",
"464 656 OFFCURVE",
"456 666 OFFCURVE",
"443 674 CURVE SMOOTH",
"411 694 OFFCURVE",
"349 706 OFFCURVE",
"309 706 CURVE SMOOTH",
"165 706 OFFCURVE",
"67 622 OFFCURVE",
"67 501 CURVE SMOOTH",
"67 387 OFFCURVE",
"150 353 OFFCURVE",
"227 322 CURVE SMOOTH",
"295 294 OFFCURVE",
"359 269 OFFCURVE",
"359 201 CURVE SMOOTH",
"359 123 OFFCURVE",
"293 70 OFFCURVE",
"214 70 CURVE SMOOTH",
"144 70 OFFCURVE",
"98 94 OFFCURVE",
"73 110 CURVE SMOOTH",
"62 116 OFFCURVE",
"55 121 OFFCURVE",
"52 121 CURVE SMOOTH",
"45 121 OFFCURVE",
"36 111 OFFCURVE",
"36 56 CURVE SMOOTH",
"36 42 OFFCURVE",
"46 31 OFFCURVE",
"63 22 CURVE SMOOTH",
"102 1 OFFCURVE",
"173 -6 OFFCURVE",
"206 -6 CURVE SMOOTH"
);
}
);
width = 500;
},
{
anchors = (
{
name = bottom;
position = "{233, 0}";
},
{
name = top;
position = "{289, 700}";
}
);
layerId = "DE974D70-A5B4-43AB-B940-69E4F08CB641";
paths = (
{
closed = 1;
nodes = (
"329 -8 OFFCURVE",
"468 41 OFFCURVE",
"468 238 CURVE SMOOTH",
"468 337 OFFCURVE",
"402 379 OFFCURVE",
"337 408 CURVE SMOOTH",
"273 438 OFFCURVE",
"210 455 OFFCURVE",
"210 513 CURVE SMOOTH",
"210 535 OFFCURVE",
"222 576 OFFCURVE",
"309 576 CURVE SMOOTH",
"348 576 OFFCURVE",
"373 568 OFFCURVE",
"391 561 CURVE SMOOTH",
"404 556 OFFCURVE",
"412 551 OFFCURVE",
"418 551 CURVE SMOOTH",
"442 551 OFFCURVE",
"482 614 OFFCURVE",
"482 640 CURVE SMOOTH",
"482 649 OFFCURVE",
"476 659 OFFCURVE",
"465 668 CURVE SMOOTH",
"439 690 OFFCURVE",
"383 708 OFFCURVE",
"309 708 CURVE SMOOTH",
"186 708 OFFCURVE",
"49 654 OFFCURVE",
"49 478 CURVE SMOOTH",
"49 376 OFFCURVE",
"106 334 OFFCURVE",
"167 304 CURVE SMOOTH",
"235 271 OFFCURVE",
"307 254 OFFCURVE",
"307 200 CURVE SMOOTH",
"307 137 OFFCURVE",
"249 123 OFFCURVE",
"206 123 CURVE SMOOTH",
"142 123 OFFCURVE",
"101 152 OFFCURVE",
"76 169 CURVE SMOOTH",
"65 176 OFFCURVE",
"57 181 OFFCURVE",
"52 181 CURVE SMOOTH",
"41 181 OFFCURVE",
"26 171 OFFCURVE",
"26 70 CURVE SMOOTH",
"26 55 OFFCURVE",
"34 43 OFFCURVE",
"47 33 CURVE SMOOTH",
"87 3 OFFCURVE",
"170 -8 OFFCURVE",
"218 -8 CURVE SMOOTH"
);
}
);
width = 500;
}
);
leftKerningGroup = S;
rightKerningGroup = S;
unicode = 0053;
},
{
glyphname = Germandbls;
layers = (
{
layerId = "DE974D70-A5B4-43AB-B940-69E4F08CB641";
paths = (
{
closed = 1;
nodes = (
"558 -8 OFFCURVE",
"671 82 OFFCURVE",
"671 231 CURVE SMOOTH",
"671 303 OFFCURVE",
"636 359 OFFCURVE",
"527 397 CURVE",
"658 581 LINE",
"660 583 OFFCURVE",
"661 588 OFFCURVE",
"661 596 CURVE SMOOTH",
"661 624 OFFCURVE",
"648 678 OFFCURVE",
"629 683 CURVE SMOOTH",
"567 698 OFFCURVE",
"501 708 OFFCURVE",
"398 708 CURVE SMOOTH",
"179 708 OFFCURVE",
"97 581 OFFCURVE",
"83 422 CURVE SMOOTH",
"42 29 LINE",
"42 0 OFFCURVE",
"82 -2 OFFCURVE",
"99 -2 CURVE SMOOTH",
"134 -2 LINE SMOOTH",
"173 -2 OFFCURVE",
"195 9 OFFCURVE",
"197 30 CURVE SMOOTH",
"239 427 LINE SMOOTH",
"246 524 OFFCURVE",
"295 576 OFFCURVE",
"381 576 CURVE SMOOTH",
"419 576 OFFCURVE",
"449 573 OFFCURVE",
"474 570 CURVE",
"360 410 LINE",
"358 408 OFFCURVE",
"357 403 OFFCURVE",
"357 395 CURVE SMOOTH",
"357 367 OFFCURVE",
"370 308 OFFCURVE",
"389 308 CURVE SMOOTH",
"428 308 LINE",
"494 302 OFFCURVE",
"521 272 OFFCURVE",
"521 224 CURVE SMOOTH",
"521 151 OFFCURVE",
"472 109 OFFCURVE",
"401 109 CURVE SMOOTH",
"335 109 OFFCURVE",
"302 149 OFFCURVE",
"292 149 CURVE SMOOTH",
"281 149 OFFCURVE",
"268 127 OFFCURVE",
"268 55 CURVE SMOOTH",
"268 -2 OFFCURVE",
"369 -8 OFFCURVE",
"412 -8 CURVE SMOOTH"
);
}
);
width = 700;
},
{
layerId = UUID0;
paths = (
{
closed = 1;
nodes = (
"512 -6 OFFCURVE",
"651 55 OFFCURVE",
"651 228 CURVE SMOOTH",
"651 320 OFFCURVE",
"610 372 OFFCURVE",
"485 397 CURVE",
"655 609 LINE SMOOTH",
"658 613 OFFCURVE",
"660 619 OFFCURVE",
"660 626 CURVE SMOOTH",
"660 637 OFFCURVE",
"646 671 OFFCURVE",
"640 674 CURVE",
"595 691 OFFCURVE",
"521 706 OFFCURVE",
"412 706 CURVE SMOOTH",
"201 706 OFFCURVE",
"120 582 OFFCURVE",
"105 430 CURVE SMOOTH",
"62 20 LINE",
"62 6 OFFCURVE",
"70 -2 OFFCURVE",
"100 -2 CURVE SMOOTH",
"108 -2 LINE SMOOTH",
"134 -2 OFFCURVE",
"149 6 OFFCURVE",
"150 20 CURVE SMOOTH",
"193 434 LINE SMOOTH",
"204 546 OFFCURVE",
"264 630 OFFCURVE",
"397 630 CURVE SMOOTH",
"466 630 OFFCURVE",
"517 623 OFFCURVE",
"552 616 CURVE",
"377 399 LINE",
"374 395 OFFCURVE",
"372 388 OFFCURVE",
"372 382 CURVE SMOOTH",
"372 372 OFFCURVE",
"382 334 OFFCURVE",
"391 334 CURVE SMOOTH",
"417 334 LINE SMOOTH",
"505 334 OFFCURVE",
"564 309 OFFCURVE",
"564 228 CURVE SMOOTH",
"564 99 OFFCURVE",
"475 66 OFFCURVE",
"415 66 CURVE SMOOTH",
"329 66 OFFCURVE",
"276 103 OFFCURVE",
"272 103 CURVE SMOOTH",
"265 103 OFFCURVE",
"257 98 OFFCURVE",
"257 44 CURVE SMOOTH",
"259 0 OFFCURVE",
"390 -6 OFFCURVE",
"415 -6 CURVE SMOOTH"
);
}
);
width = 700;
}
);
unicode = 1E9E;
},
{
glyphname = Schwa;
layers = (
{
background = {
paths = (
{
closed = 1;
nodes = (
"133 708 OFFCURVE",
"42 506 OFFCURVE",
"42 276 CURVE SMOOTH",
"42 82 OFFCURVE",
"137 -8 OFFCURVE",
"337 -8 CURVE SMOOTH",
"386 -8 OFFCURVE",
"542 6 OFFCURVE",
"554 68 CURVE SMOOTH",
"563 116 OFFCURVE",
"564 156 OFFCURVE",
"564 163 CURVE SMOOTH",
"564 176 OFFCURVE",
"558 178 OFFCURVE",
"552 178 CURVE SMOOTH",
"538 178 OFFCURVE",
"464 123 OFFCURVE",
"351 123 CURVE SMOOTH",
"250 123 OFFCURVE",
"201 183 OFFCURVE",
"201 298 CURVE SMOOTH",
"201 483 OFFCURVE",
"272 576 OFFCURVE",
"400 576 CURVE SMOOTH",
"495 576 OFFCURVE",
"532 544 OFFCURVE",
"544 544 CURVE SMOOTH",
"569 544 OFFCURVE",
"619 613 OFFCURVE",
"619 640 CURVE SMOOTH",
"619 681 OFFCURVE",
"503 708 OFFCURVE",
"417 708 CURVE SMOOTH"
);
}
);
};
layerId = "DE974D70-A5B4-43AB-B940-69E4F08CB641";
paths = (
{
closed = 1;
nodes = (
"473 -6 OFFCURVE",
"625 118 OFFCURVE",
"625 433 CURVE SMOOTH",
"625 603 OFFCURVE",
"537 708 OFFCURVE",
"339 708 CURVE SMOOTH",
"269 708 OFFCURVE",
"136 689 OFFCURVE",
"115 618 CURVE SMOOTH",
"110 602 OFFCURVE",
"108 545 OFFCURVE",
"107 541 CURVE",
"107 527 OFFCURVE",
"111 527 OFFCURVE",
"115 527 CURVE SMOOTH",
"131 527 OFFCURVE",
"215 591 OFFCURVE",
"320 591 CURVE SMOOTH",
"409 591 OFFCURVE",
"471 562 OFFCURVE",
"475 435 CURVE",
"432 439 OFFCURVE",
"385 442 OFFCURVE",
"321 442 CURVE SMOOTH",
"197 442 OFFCURVE",
"56 374 OFFCURVE",
"56 199 CURVE SMOOTH",
"56 123 OFFCURVE",
"97 -6 OFFCURVE",
"300 -6 CURVE SMOOTH"
);
},
{
closed = 1;
nodes = (
"245 111 OFFCURVE",
"200 143 OFFCURVE",
"200 218 CURVE SMOOTH",
"200 271 OFFCURVE",
"236 343 OFFCURVE",
"370 343 CURVE SMOOTH",
"468 343 LINE",
"449 209 OFFCURVE",
"402 111 OFFCURVE",
"310 111 CURVE SMOOTH"
);
}
);
width = 672;
},
{
layerId = UUID0;
paths = (
{
closed = 1;
nodes = (
"518 -4 OFFCURVE",
"612 205 OFFCURVE",
"612 444 CURVE SMOOTH",
"612 673 OFFCURVE",
"461 706 OFFCURVE",
"346 706 CURVE SMOOTH",
"285 706 OFFCURVE",
"137 683 OFFCURVE",
"122 622 CURVE SMOOTH",
"118 601 OFFCURVE",
"117 580 OFFCURVE",
"117 577 CURVE SMOOTH",
"117 565 OFFCURVE",
"120 565 OFFCURVE",
"124 565 CURVE SMOOTH",
"144 565 OFFCURVE",
"213 634 OFFCURVE",
"339 634 CURVE SMOOTH",
"453 634 OFFCURVE",
"525 593 OFFCURVE",
"525 425 CURVE",
"494 429 OFFCURVE",
"446 432 OFFCURVE",
"389 432 CURVE SMOOTH",
"228 432 OFFCURVE",
"69 376 OFFCURVE",
"69 189 CURVE SMOOTH",
"69 114 OFFCURVE",
"126 -4 OFFCURVE",
"287 -4 CURVE SMOOTH"
);
},
{
closed = 1;
nodes = (
"209 68 OFFCURVE",
"156 130 OFFCURVE",
"156 197 CURVE SMOOTH",
"156 360 OFFCURVE",
"360 360 OFFCURVE",
"399 360 CURVE SMOOTH",
"520 360 LINE",
"502 207 OFFCURVE",
"447 68 OFFCURVE",
"296 68 CURVE SMOOTH"
);
}
);
width = 672;
}
);
rightKerningGroup = O;
unicode = 018F;
},
{
color = 4;
glyphname = T;
layers = (
{
anchors = (
{
name = bottom;
position = "{227, -2}";
},
{
name = center;
position = "{275, 350}";
},
{
name = top;
position = "{305, 700}";
}
);
layerId = UUID0;
paths = (
{
closed = 1;
nodes = (
"242 -2 LINE SMOOTH",
"267 -2 OFFCURVE",
"282 6 OFFCURVE",
"284 20 CURVE SMOOTH",
"347 624 LINE",
"537 624 LINE SMOOTH",
"560 624 OFFCURVE",
"562 649 OFFCURVE",
"562 671 CURVE SMOOTH",
"562 678 LINE SMOOTH",
"562 693 OFFCURVE",
"557 700 OFFCURVE",
"545 700 CURVE SMOOTH",
"73 700 LINE SMOOTH",
"52 700 OFFCURVE",
"48 674 OFFCURVE",
"48 658 CURVE SMOOTH",
"48 646 LINE SMOOTH",
"48 631 OFFCURVE",
"53 624 OFFCURVE",
"65 624 CURVE SMOOTH",
"259 624 LINE",
"196 20 LINE",
"196 6 OFFCURVE",
"204 -2 OFFCURVE",
"234 -2 CURVE SMOOTH"
);
}
);
width = 549;
},
{
anchors = (
{
name = bottom;
position = "{234, 0}";
},
{
name = center;
position = "{275, 350}";
},
{
name = top;
position = "{309, 700}";
}
);
layerId = "DE974D70-A5B4-43AB-B940-69E4F08CB641";
paths = (
{
closed = 1;
nodes = (
"254 -2 LINE SMOOTH",
"293 -2 OFFCURVE",
"315 9 OFFCURVE",
"317 30 CURVE SMOOTH",
"374 569 LINE",
"534 569 LINE SMOOTH",
"561 569 OFFCURVE",
"571 604 OFFCURVE",
"572 651 CURVE",
"572 660 LINE",
"572 688 OFFCURVE",
"564 700 OFFCURVE",
"546 700 CURVE SMOOTH",
"72 700 LINE SMOOTH",
"46 700 OFFCURVE",
"34 664 OFFCURVE",
"34 625 CURVE",
"34 609 LINE",
"34 581 OFFCURVE",
"42 569 OFFCURVE",
"60 569 CURVE SMOOTH",
"219 569 LINE",
"162 29 LINE",
"162 0 OFFCURVE",
"202 -2 OFFCURVE",
"219 -2 CURVE SMOOTH"
);
}
);
width = 549;
}
);
leftKerningGroup = T;
rightKerningGroup = T;
unicode = 0054;
},
{
color = 4;
glyphname = U;
layers = (
{
anchors = (
{
name = bottom;
position = "{317, 0}";
},
{
name = horn;
position = "{615, 702}";
},
{
name = ogonek;
position = "{400, 0}";
},
{
name = top;
position = "{386, 700}";
}
);
layerId = UUID0;
paths = (
{
closed = 1;
nodes = (
"491 -6 OFFCURVE",
"597 80 OFFCURVE",
"612 224 CURVE SMOOTH",
"660 680 LINE",
"660 694 OFFCURVE",
"652 702 OFFCURVE",
"623 702 CURVE SMOOTH",
"615 702 LINE SMOOTH",
"587 702 OFFCURVE",
"573 694 OFFCURVE",
"572 680 CURVE SMOOTH",
"524 221 LINE SMOOTH",
"515 133 OFFCURVE",
"430 70 OFFCURVE",
"323 70 CURVE SMOOTH",
"216 70 OFFCURVE",
"144 125 OFFCURVE",
"155 233 CURVE SMOOTH",
"202 680 LINE",
"202 694 OFFCURVE",
"194 702 OFFCURVE",
"165 702 CURVE SMOOTH",
"157 702 LINE SMOOTH",
"129 702 OFFCURVE",
"115 694 OFFCURVE",
"114 680 CURVE",
"67 224 LINE SMOOTH",
"54 93 OFFCURVE",
"154 -6 OFFCURVE",
"315 -6 CURVE SMOOTH"
);
}
);
width = 712;
},
{
anchors = (
{
name = bottom;
position = "{317, 0}";
},
{
name = horn;
position = "{589, 702}";
},
{
name = ogonek;
position = "{405, 0}";
},
{
name = top;
position = "{396, 700}";
}
);
layerId = "DE974D70-A5B4-43AB-B940-69E4F08CB641";
paths = (
{
closed = 1;
nodes = (
"499 -8 OFFCURVE",
"617 80 OFFCURVE",
"633 234 CURVE SMOOTH",
"678 670 LINE",
"678 690 OFFCURVE",
"665 702 OFFCURVE",
"622 702 CURVE SMOOTH",
"589 702 LINE SMOOTH",
"548 702 OFFCURVE",
"527 691 OFFCURVE",
"525 670 CURVE SMOOTH",
"481 244 LINE SMOOTH",
"474 174 OFFCURVE",
"411 123 OFFCURVE",
"331 123 CURVE SMOOTH",
"254 123 OFFCURVE",
"200 168 OFFCURVE",
"209 252 CURVE SMOOTH",
"252 670 LINE SMOOTH",
"252 690 OFFCURVE",
"239 702 OFFCURVE",
"196 702 CURVE SMOOTH",
"162 702 LINE SMOOTH",
"121 702 OFFCURVE",
"100 691 OFFCURVE",
"98 670 CURVE SMOOTH",
"55 242 LINE SMOOTH",
"39 87 OFFCURVE",
"148 -8 OFFCURVE",
"317 -8 CURVE SMOOTH"
);
}
);
width = 712;
}
);
unicode = 0055;
},
{
color = 4;
glyphname = V;
layers = (
{
layerId = UUID0;
paths = (
{
closed = 1;
nodes = (
"287 -2 LINE SMOOTH",
"307 -2 OFFCURVE",
"323 2 OFFCURVE",
"328 14 CURVE SMOOTH",
"626 671 LINE SMOOTH",
"629 677 OFFCURVE",
"631 682 OFFCURVE",
"631 686 CURVE SMOOTH",
"631 696 OFFCURVE",
"618 702 OFFCURVE",
"589 702 CURVE SMOOTH",
"583 702 LINE SMOOTH",
"563 702 OFFCURVE",
"547 698 OFFCURVE",
"542 686 CURVE SMOOTH",
"301 153 LINE",
"285 100 LINE",
"282 100 LINE",
"277 152 LINE",
"148 686 LINE SMOOTH",
"145 698 OFFCURVE",
"129 702 OFFCURVE",
"109 702 CURVE SMOOTH",
"100 702 LINE SMOOTH",
"66 702 OFFCURVE",
"55 693 OFFCURVE",
"55 681 CURVE SMOOTH",
"55 678 OFFCURVE",
"56 673 OFFCURVE",
"57 669 CURVE SMOOTH",
"217 14 LINE",
"220 2 OFFCURVE",
"236 -2 OFFCURVE",
"256 -2 CURVE SMOOTH"
);
}
);
width = 617;
},
{
layerId = "DE974D70-A5B4-43AB-B940-69E4F08CB641";
paths = (
{
closed = 1;
nodes = (
"296 -2 LINE SMOOTH",
"325 -2 OFFCURVE",
"347 3 OFFCURVE",
"354 19 CURVE SMOOTH",
"637 662 LINE SMOOTH",
"640 668 OFFCURVE",
"641 673 OFFCURVE",
"641 678 CURVE SMOOTH",
"641 701 OFFCURVE",
"607 702 OFFCURVE",
"584 702 CURVE SMOOTH",
"553 702 LINE SMOOTH",
"525 702 OFFCURVE",
"500 694 OFFCURVE",
"491 673 CURVE SMOOTH",
"308 242 LINE",
"292 205 LINE",
"288 205 LINE",
"281 241 LINE",
"191 673 LINE SMOOTH",
"186 695 OFFCURVE",
"164 702 OFFCURVE",
"135 702 CURVE SMOOTH",
"102 702 LINE SMOOTH",
"74 702 OFFCURVE",
"39 699 OFFCURVE",
"39 673 CURVE SMOOTH",
"39 670 OFFCURVE",
"41 660 OFFCURVE",
"43 650 CURVE SMOOTH",
"190 19 LINE",
"194 3 OFFCURVE",
"214 -2 OFFCURVE",
"244 -2 CURVE SMOOTH"
);
}
);
width = 617;
}
);
leftKerningGroup = V;
rightKerningGroup = V;
unicode = 0056;
},
{
color = 4;
glyphname = W;
layers = (
{
anchors = (
{
name = top;
position = "{481, 700}";
}
);
layerId = UUID0;
paths = (
{
closed = 1;
nodes = (
"234 -2 LINE SMOOTH",
"252 -2 OFFCURVE",
"270 2 OFFCURVE",
"275 14 CURVE SMOOTH",
"426 421 LINE",
"461 551 LINE",
"468 421 LINE",
"534 14 LINE SMOOTH",
"536 2 OFFCURVE",
"553 -2 OFFCURVE",
"573 -2 CURVE SMOOTH",
"614 -2 LINE SMOOTH",
"634 -2 OFFCURVE",
"651 2 OFFCURVE",
"655 14 CURVE SMOOTH",
"897 668 LINE SMOOTH",
"901 679 OFFCURVE",
"902 683 OFFCURVE",
"902 686 CURVE SMOOTH",
"902 696 OFFCURVE",
"889 702 OFFCURVE",
"860 702 CURVE SMOOTH",
"854 702 LINE SMOOTH",
"834 702 OFFCURVE",
"817 698 OFFCURVE",
"813 686 CURVE SMOOTH",
"641 201 LINE",
"629 168 OFFCURVE",
"618 134 OFFCURVE",
"606 101 CURVE",
"604 132 OFFCURVE",
"601 162 OFFCURVE",
"599 193 CURVE",
"527 685 LINE SMOOTH",
"525 698 OFFCURVE",
"509 702 OFFCURVE",
"489 702 CURVE SMOOTH",
"473 702 LINE SMOOTH",
"448 702 OFFCURVE",
"437 698 OFFCURVE",
"433 685 CURVE SMOOTH",
"261 199 LINE",
"249 166 OFFCURVE",
"238 134 OFFCURVE",
"226 101 CURVE",
"223 132 OFFCURVE",
"221 163 OFFCURVE",
"218 194 CURVE",
"142 686 LINE SMOOTH",
"140 698 OFFCURVE",
"123 702 OFFCURVE",
"103 702 CURVE SMOOTH",
"94 702 LINE SMOOTH",
"62 702 OFFCURVE",
"50 697 OFFCURVE",
"50 684 CURVE SMOOTH",
"50 679 OFFCURVE",
"52 666 OFFCURVE",
"54 652 CURVE SMOOTH",
"154 14 LINE SMOOTH",
"156 2 OFFCURVE",
"173 -2 OFFCURVE",
"193 -2 CURVE SMOOTH"
);
}
);
width = 882;
},
{
anchors = (
{
name = top;
position = "{483, 700}";
}
);
layerId = "DE974D70-A5B4-43AB-B940-69E4F08CB641";
paths = (
{
closed = 1;
nodes = (
"246 -2 LINE SMOOTH",
"274 -2 OFFCURVE",
"297 5 OFFCURVE",
"303 19 CURVE SMOOTH",
"416 343 LINE",
"448 433 LINE",
"460 346 LINE",
"503 19 LINE SMOOTH",
"505 5 OFFCURVE",
"527 -2 OFFCURVE",
"556 -2 CURVE SMOOTH",
"629 -2 LINE SMOOTH",
"656 -2 OFFCURVE",
"681 5 OFFCURVE",
"686 19 CURVE",
"914 656 LINE SMOOTH",
"918 667 OFFCURVE",
"920 674 OFFCURVE",
"920 677 CURVE SMOOTH",
"920 692 OFFCURVE",
"902 702 OFFCURVE",
"860 702 CURVE SMOOTH",
"849 702 LINE SMOOTH",
"810 702 OFFCURVE",
"786 692 OFFCURVE",
"779 671 CURVE SMOOTH",
"667 349 LINE",
"651 299 OFFCURVE",
"634 248 OFFCURVE",
"618 198 CURVE",
"612 248 OFFCURVE",
"605 299 OFFCURVE",
"599 349 CURVE",
"555 681 LINE SMOOTH",
"553 697 OFFCURVE",
"534 702 OFFCURVE",
"502 702 CURVE SMOOTH",
"464 702 LINE SMOOTH",
"432 702 OFFCURVE",
"413 697 OFFCURVE",
"407 681 CURVE SMOOTH",
"290 349 LINE",
"274 301 OFFCURVE",
"257 253 OFFCURVE",
"241 205 CURVE",
"236 253 OFFCURVE",
"230 301 OFFCURVE",
"225 349 CURVE",
"184 671 LINE SMOOTH",
"181 692 OFFCURVE",
"159 702 OFFCURVE",
"120 702 CURVE SMOOTH",
"94 702 LINE SMOOTH",
"43 702 OFFCURVE",
"30 690 OFFCURVE",
"30 670 CURVE SMOOTH",
"30 667 OFFCURVE",
"31 657 OFFCURVE",
"32 651 CURVE SMOOTH",
"121 19 LINE SMOOTH",
"122 5 OFFCURVE",
"142 -2 OFFCURVE",
"174 -2 CURVE SMOOTH"
);
}
);
width = 882;
}
);
leftKerningGroup = V;
rightKerningGroup = V;
unicode = 0057;
},
{
color = 4;
glyphname = X;
layers = (
{
layerId = UUID0;
paths = (
{
closed = 1;
nodes = (
"35 -2 LINE SMOOTH",
"53 -2 OFFCURVE",
"71 1 OFFCURVE",
"79 12 CURVE SMOOTH",
"294 288 LINE",
"449 13 LINE SMOOTH",
"456 1 OFFCURVE",
"470 -2 OFFCURVE",
"491 -2 CURVE SMOOTH",
"507 -2 LINE SMOOTH",
"543 -2 OFFCURVE",
"554 5 OFFCURVE",
"554 17 CURVE SMOOTH",
"554 21 OFFCURVE",
"551 27 OFFCURVE",
"548 33 CURVE SMOOTH",
"359 370 LINE",
"590 667 LINE SMOOTH",
"595 674 OFFCURVE",
"600 681 OFFCURVE",
"600 686 CURVE SMOOTH",
"600 697 OFFCURVE",
"587 702 OFFCURVE",
"555 702 CURVE SMOOTH",
"549 702 LINE SMOOTH",
"531 702 OFFCURVE",
"513 699 OFFCURVE",
"505 688 CURVE SMOOTH",
"315 446 LINE",
"180 687 LINE SMOOTH",
"173 699 OFFCURVE",
"159 702 OFFCURVE",
"138 702 CURVE SMOOTH",
"124 702 LINE SMOOTH",
"88 702 OFFCURVE",
"77 695 OFFCURVE",
"77 683 CURVE SMOOTH",
"77 678 OFFCURVE",
"79 673 OFFCURVE",
"83 667 CURVE SMOOTH",
"251 365 LINE",
"-7 33 LINE SMOOTH",
"-13 26 OFFCURVE",
"-17 19 OFFCURVE",
"-17 14 CURVE SMOOTH",
"-17 3 OFFCURVE",
"-4 -2 OFFCURVE",
"27 -2 CURVE SMOOTH"
);
}
);
width = 611;
},
{
layerId = "DE974D70-A5B4-43AB-B940-69E4F08CB641";
paths = (
{
closed = 1;
nodes = (
"66 -2 LINE SMOOTH",
"95 -2 OFFCURVE",
"115 -1 OFFCURVE",
"129 17 CURVE SMOOTH",
"289 232 LINE",
"400 17 LINE SMOOTH",
"407 2 OFFCURVE",
"423 -2 OFFCURVE",
"458 -2 CURVE SMOOTH",
"497 -2 LINE SMOOTH",
"526 -2 OFFCURVE",
"560 0 OFFCURVE",
"560 23 CURVE SMOOTH",
"560 28 OFFCURVE",
"558 35 OFFCURVE",
"555 42 CURVE SMOOTH",
"389 363 LINE",
"609 658 LINE SMOOTH",
"616 668 OFFCURVE",
"619 676 OFFCURVE",
"619 682 CURVE SMOOTH",
"619 702 OFFCURVE",
"584 702 OFFCURVE",
"560 702 CURVE SMOOTH",
"521 702 LINE SMOOTH",
"492 702 OFFCURVE",
"471 700 OFFCURVE",
"458 683 CURVE SMOOTH",
"319 497 LINE",
"224 683 LINE SMOOTH",
"216 698 OFFCURVE",
"195 702 OFFCURVE",
"166 702 CURVE SMOOTH",
"125 702 LINE SMOOTH",
"93 702 OFFCURVE",
"61 701 OFFCURVE",
"61 678 CURVE SMOOTH",
"61 673 OFFCURVE",
"63 666 OFFCURVE",
"67 658 CURVE SMOOTH",
"219 365 LINE",
"-20 42 LINE SMOOTH",
"-28 32 OFFCURVE",
"-31 24 OFFCURVE",
"-31 18 CURVE SMOOTH",
"-31 -2 OFFCURVE",
"3 -2 OFFCURVE",
"28 -2 CURVE SMOOTH"
);
}
);
width = 611;
}
);
leftKerningGroup = X;
rightKerningGroup = X;
unicode = 0058;
},
{
color = 4;
glyphname = Y;
layers = (
{
anchors = (
{
name = bottom;
position = "{241, 0}";
},
{
name = top;
position = "{320, 700}";
}
);
layerId = UUID0;
paths = (
{
closed = 1;
nodes = (
"246 -2 LINE SMOOTH",
"272 -2 OFFCURVE",
"286 6 OFFCURVE",
"288 20 CURVE SMOOTH",
"323 356 LINE",
"566 667 LINE SMOOTH",
"571 674 OFFCURVE",
"576 681 OFFCURVE",
"576 686 CURVE SMOOTH",
"576 696 OFFCURVE",
"565 701 OFFCURVE",
"540 702 CURVE",
"531 702 LINE",
"511 702 OFFCURVE",
"493 699 OFFCURVE",
"485 688 CURVE SMOOTH",
"291 441 LINE",
"153 687 LINE SMOOTH",
"146 699 OFFCURVE",
"132 702 OFFCURVE",
"111 702 CURVE SMOOTH",
"100 702 LINE SMOOTH",
"64 702 OFFCURVE",
"53 695 OFFCURVE",
"53 683 CURVE SMOOTH",
"53 678 OFFCURVE",
"55 673 OFFCURVE",
"59 667 CURVE SMOOTH",
"235 359 LINE",
"200 20 LINE",
"200 6 OFFCURVE",
"208 -2 OFFCURVE",
"238 -2 CURVE SMOOTH"
);
}
);
width = 559;
},
{
anchors = (
{
name = bottom;
position = "{246, 0}";
},
{
name = top;
position = "{313, 700}";
}
);
layerId = "DE974D70-A5B4-43AB-B940-69E4F08CB641";
paths = (
{
closed = 1;
nodes = (
"262 -2 LINE SMOOTH",
"304 -2 OFFCURVE",
"323 9 OFFCURVE",
"325 30 CURVE SMOOTH",
"357 333 LINE",
"590 657 LINE SMOOTH",
"597 667 OFFCURVE",
"601 676 OFFCURVE",
"601 682 CURVE SMOOTH",
"601 700 OFFCURVE",
"563 702 OFFCURVE",
"540 702 CURVE SMOOTH",
"504 702 LINE SMOOTH",
"475 702 OFFCURVE",
"452 698 OFFCURVE",
"442 683 CURVE SMOOTH",
"297 469 LINE",
"197 683 LINE SMOOTH",
"190 698 OFFCURVE",
"168 702 OFFCURVE",
"139 702 CURVE SMOOTH",
"96 702 LINE SMOOTH",
"64 702 OFFCURVE",
"32 701 OFFCURVE",
"32 678 CURVE SMOOTH",
"32 672 OFFCURVE",
"34 665 OFFCURVE",
"38 657 CURVE SMOOTH",
"203 336 LINE",
"171 30 LINE",
"171 9 OFFCURVE",
"185 -2 OFFCURVE",
"228 -2 CURVE SMOOTH"
);
}
);
width = 559;
}
);
leftKerningGroup = Y;
rightKerningGroup = Y;
unicode = 0059;
},
{
color = 4;
glyphname = Z;
layers = (
{
anchors = (
{
name = bottom;
position = "{285, 0}";
},
{
name = top;
position = "{338, 700}";
}
);
layerId = UUID0;
paths = (
{
closed = 1;
nodes = (
"513 0 LINE SMOOTH",
"535 0 OFFCURVE",
"538 23 OFFCURVE",
"538 44 CURVE SMOOTH",
"538 54 LINE SMOOTH",
"538 69 OFFCURVE",
"533 76 OFFCURVE",
"521 76 CURVE SMOOTH",
"129 76 LINE",
"597 635 LINE SMOOTH",
"601 639 OFFCURVE",
"602 645 OFFCURVE",
"602 652 CURVE SMOOTH",
"602 673 OFFCURVE",
"591 700 OFFCURVE",
"585 700 CURVE SMOOTH",
"126 700 LINE SMOOTH",
"106 700 OFFCURVE",
"101 678 OFFCURVE",
"101 660 CURVE SMOOTH",
"101 646 LINE SMOOTH",
"101 631 OFFCURVE",
"106 624 OFFCURVE",
"118 624 CURVE SMOOTH",
"479 624 LINE",
"11 65 LINE SMOOTH",
"7 61 OFFCURVE",
"6 54 OFFCURVE",
"6 48 CURVE SMOOTH",
"6 28 OFFCURVE",
"16 0 OFFCURVE",
"25 0 CURVE SMOOTH"
);
}
);
width = 616;
},
{
anchors = (
{
name = bottom;
position = "{273, 0}";
},
{
name = top;
position = "{332, 700}";
}
);
layerId = "DE974D70-A5B4-43AB-B940-69E4F08CB641";
paths = (
{
closed = 1;
nodes = (
"512 0 LINE SMOOTH",
"539 0 OFFCURVE",
"550 38 OFFCURVE",
"550 79 CURVE SMOOTH",
"550 91 LINE SMOOTH",
"550 119 OFFCURVE",
"542 131 OFFCURVE",
"524 131 CURVE SMOOTH",
"219 131 LINE",
"601 598 LINE SMOOTH",
"603 600 OFFCURVE",
"604 605 OFFCURVE",
"604 613 CURVE SMOOTH",
"604 641 OFFCURVE",
"591 700 OFFCURVE",
"572 700 CURVE SMOOTH",
"119 700 LINE SMOOTH",
"94 700 OFFCURVE",
"81 661 OFFCURVE",
"81 629 CURVE SMOOTH",
"81 609 LINE",
"81 581 OFFCURVE",
"89 569 OFFCURVE",
"107 569 CURVE SMOOTH",
"385 569 LINE",
"4 102 LINE SMOOTH",
"2 100 OFFCURVE",
"1 95 OFFCURVE",
"1 87 CURVE SMOOTH",
"1 59 OFFCURVE",
"14 0 OFFCURVE",
"33 0 CURVE SMOOTH"
);
}
);
width = 616;
}
);
leftKerningGroup = Z;
rightKerningGroup = Z;
unicode = 005A;
},
{
glyphname = Y.loclGUA;
layers = (
{
anchors = (
{
name = bottom;
position = "{251, 0}";
},
{
name = top;
position = "{309, 700}";
}
);
layerId = UUID0;
paths = (
{
closed = 1;
nodes = (
"400 -8 OFFCURVE",
"468 64 OFFCURVE",
"493 303 CURVE SMOOTH",
"533 680 LINE SMOOTH",
"534 694 OFFCURVE",
"523 702 OFFCURVE",
"495 702 CURVE SMOOTH",
"492 702 LINE",
"463 702 OFFCURVE",
"450 694 OFFCURVE",
"449 680 CURVE SMOOTH",
"415 354 LINE",
"374 311 OFFCURVE",
"320 284 OFFCURVE",
"271 284 CURVE SMOOTH",
"206 284 OFFCURVE",
"169 314 OFFCURVE",
"169 367 CURVE SMOOTH",
"169 377 OFFCURVE",
"169 383 OFFCURVE",
"201 680 CURVE SMOOTH",
"203 694 OFFCURVE",
"191 702 OFFCURVE",
"163 702 CURVE SMOOTH",
"159 702 LINE SMOOTH",
"131 702 OFFCURVE",
"118 694 OFFCURVE",
"117 680 CURVE SMOOTH",
"87 395 OFFCURVE",
"84 369 OFFCURVE",
"84 350 CURVE SMOOTH",
"84 263 OFFCURVE",
"142 211 OFFCURVE",
"241 211 CURVE SMOOTH",
"306 211 OFFCURVE",
"375 244 OFFCURVE",
"427 298 CURVE",
"411 325 LINE",
"409 303 LINE SMOOTH",
"393 130 OFFCURVE",
"351 64 OFFCURVE",
"258 64 CURVE SMOOTH",
"136 64 OFFCURVE",
"85 108 OFFCURVE",
"70 108 CURVE SMOOTH",
"63 108 OFFCURVE",
"59 94 OFFCURVE",
"57 80 CURVE SMOOTH",
"56 70 OFFCURVE",
"55 59 OFFCURVE",
"55 53 CURVE SMOOTH",
"56 27 OFFCURVE",
"139 -8 OFFCURVE",
"259 -8 CURVE SMOOTH"
);
}
);
width = 559;
},
{
anchors = (
{
name = bottom;
position = "{246, 0}";
},
{
name = top;
position = "{316, 700}";
}
);
layerId = "DE974D70-A5B4-43AB-B940-69E4F08CB641";
paths = (
{
closed = 1;
nodes = (
"412 -9 OFFCURVE",
"489 93 OFFCURVE",
"511 296 CURVE SMOOTH",
"550 669 LINE SMOOTH",
"552 690 OFFCURVE",
"535 701 OFFCURVE",
"493 701 CURVE SMOOTH",
"465 701 LINE SMOOTH",
"423 701 OFFCURVE",
"404 690 OFFCURVE",
"402 669 CURVE SMOOTH",
"372 388 LINE",
"358 365 OFFCURVE",
"329 330 OFFCURVE",
"286 330 CURVE SMOOTH",
"232 330 OFFCURVE",
"212 350 OFFCURVE",
"212 384 CURVE SMOOTH",
"212 395 OFFCURVE",
"213 407 OFFCURVE",
"242 669 CURVE SMOOTH",
"244 690 OFFCURVE",
"227 701 OFFCURVE",
"185 701 CURVE SMOOTH",
"157 701 LINE SMOOTH",
"115 701 OFFCURVE",
"96 690 OFFCURVE",
"94 669 CURVE SMOOTH",
"66 414 OFFCURVE",
"61 352 OFFCURVE",
"61 338 CURVE SMOOTH",
"61 249 OFFCURVE",
"110 208 OFFCURVE",
"212 208 CURVE SMOOTH",
"288 208 OFFCURVE",
"355 260 OFFCURVE",
"383 301 CURVE",
"366 341 LINE",
"357 242 LINE SMOOTH",
"348 154 OFFCURVE",
"304 108 OFFCURVE",
"226 108 CURVE SMOOTH",
"130 108 OFFCURVE",
"75 149 OFFCURVE",
"60 149 CURVE SMOOTH",
"48 149 OFFCURVE",
"44 125 OFFCURVE",
"42 100 CURVE SMOOTH",
"41 86 OFFCURVE",
"41 72 OFFCURVE",
"41 62 CURVE SMOOTH",
"41 20 OFFCURVE",
"138 -9 OFFCURVE",
"256 -9 CURVE SMOOTH"
);
}
);
width = 559;
}
);
},
{
color = 4;
glyphname = a;
layers = (
{
anchors = (
{
name = bottom;
position = "{231, 0}";
},
{
name = ogonek;
position = "{481, 0}";
},
{
name = top;
position = "{283, 523}";
}
);
layerId = UUID0;
paths = (
{
closed = 1;
nodes = (
"272 -6 OFFCURVE",
"337 32 OFFCURVE",
"378 135 CURVE",
"363 141 LINE",
"363 92 LINE SMOOTH",
"363 24 OFFCURVE",
"396 -6 OFFCURVE",
"453 -6 CURVE SMOOTH",
"471 -6 OFFCURVE",
"508 2 OFFCURVE",
"513 27 CURVE SMOOTH",
"517 49 OFFCURVE",
"517 63 OFFCURVE",
"517 64 CURVE SMOOTH",
"517 70 OFFCURVE",
"514 71 OFFCURVE",
"511 71 CURVE SMOOTH",
"505 71 OFFCURVE",
"496 66 OFFCURVE",
"484 66 CURVE SMOOTH",
"468 66 OFFCURVE",
"448 66 OFFCURVE",
"448 107 CURVE SMOOTH",
"448 134 OFFCURVE",
"488 504 OFFCURVE",
"488 504 CURVE",
"488 517 OFFCURVE",
"483 525 OFFCURVE",
"463 525 CURVE SMOOTH",
"457 525 LINE SMOOTH",
"429 525 OFFCURVE",
"422 504 OFFCURVE",
"412 475 CURVE",
"390 496 OFFCURVE",
"347 529 OFFCURVE",
"285 529 CURVE SMOOTH",
"136 529 OFFCURVE",
"40 396 OFFCURVE",
"40 210 CURVE SMOOTH",
"40 36 OFFCURVE",
"142 -6 OFFCURVE",
"207 -6 CURVE SMOOTH"
);
},
{
closed = 1;
nodes = (
"172 67 OFFCURVE",
"127 102 OFFCURVE",
"127 216 CURVE SMOOTH",
"127 336 OFFCURVE",
"160 456 OFFCURVE",
"293 456 CURVE SMOOTH",
"343 456 OFFCURVE",
"378 432 OFFCURVE",
"397 417 CURVE",
"394 401 OFFCURVE",
"391 385 OFFCURVE",
"389 367 CURVE",
"376 236 LINE",
"335 104 OFFCURVE",
"270 67 OFFCURVE",
"226 67 CURVE SMOOTH"
);
}
);
width = 545;
},
{
anchors = (
{
name = bottom;
position = "{231, 0}";
},
{
name = ogonek;
position = "{478, 0}";
},
{
name = top;
position = "{295, 523}";
}
);
layerId = "DE974D70-A5B4-43AB-B940-69E4F08CB641";
paths = (
{
closed = 1;
nodes = (
"260 -9 OFFCURVE",
"320 45 OFFCURVE",
"341 105 CURVE",
"317 123 LINE",
"317 114 LINE",
"317 27 OFFCURVE",
"361 -8 OFFCURVE",
"437 -8 CURVE SMOOTH",
"472 -8 OFFCURVE",
"519 7 OFFCURVE",
"525 44 CURVE SMOOTH",
"531 79 OFFCURVE",
"532 102 OFFCURVE",
"532 104 CURVE SMOOTH",
"532 113 OFFCURVE",
"530 115 OFFCURVE",
"524 115 CURVE SMOOTH",
"520 115 OFFCURVE",
"509 109 OFFCURVE",
"495 109 CURVE SMOOTH",
"474 109 OFFCURVE",
"465 118 OFFCURVE",
"465 141 CURVE SMOOTH",
"465 158 OFFCURVE",
"502 495 OFFCURVE",
"502 499 CURVE SMOOTH",
"502 515 OFFCURVE",
"484 524 OFFCURVE",
"444 524 CURVE SMOOTH",
"432 524 LINE SMOOTH",
"381 523 OFFCURVE",
"378 513 OFFCURVE",
"367 477 CURVE",
"346 497 OFFCURVE",
"303 530 OFFCURVE",
"246 530 CURVE SMOOTH",
"115 530 OFFCURVE",
"24 400 OFFCURVE",
"24 208 CURVE SMOOTH",
"24 67 OFFCURVE",
"89 -9 OFFCURVE",
"186 -9 CURVE SMOOTH"
);
},
{
closed = 1;
nodes = (
"196 112 OFFCURVE",
"174 148 OFFCURVE",
"174 217 CURVE SMOOTH",
"174 345 OFFCURVE",
"213 413 OFFCURVE",
"280 413 CURVE SMOOTH",
"308 413 OFFCURVE",
"329 401 OFFCURVE",
"346 386 CURVE",
"341 364 OFFCURVE",
"335 328 OFFCURVE",
"333 308 CURVE SMOOTH",
"320 170 LINE",
"300 139 OFFCURVE",
"274 112 OFFCURVE",
"242 112 CURVE SMOOTH"
);
}
);
width = 545;
}
);
leftKerningGroup = a;
rightKerningGroup = a;
unicode = 0061;
},
{
glyphname = ae;
layers = (
{
anchors = (
{
name = top;
position = "{415, 523}";
}
);
layerId = UUID0;
paths = (
{
closed = 1;
nodes = (
"253 -6 OFFCURVE",
"330 22 OFFCURVE",
"375 58 CURVE",
"421 5 OFFCURVE",
"494 -6 OFFCURVE",
"557 -6 CURVE SMOOTH",
"600 -6 OFFCURVE",
"712 11 OFFCURVE",
"721 58 CURVE SMOOTH",
"725 79 OFFCURVE",
"726 100 OFFCURVE",
"726 103 CURVE SMOOTH",
"726 115 OFFCURVE",
"723 115 OFFCURVE",
"719 115 CURVE SMOOTH",
"705 115 OFFCURVE",
"654 66 OFFCURVE",
"564 66 CURVE SMOOTH",
"476 66 OFFCURVE",
"418 99 OFFCURVE",
"418 210 CURVE SMOOTH",
"418 265 LINE",
"379 226 LINE",
"421 226 OFFCURVE",
"462 226 OFFCURVE",
"504 226 CURVE SMOOTH",
"640 226 OFFCURVE",
"774 265 OFFCURVE",
"774 396 CURVE SMOOTH",
"774 451 OFFCURVE",
"732 529 OFFCURVE",
"606 529 CURVE SMOOTH",
"536 529 OFFCURVE",
"482 510 OFFCURVE",
"440 478 CURVE",
"410 511 OFFCURVE",
"358 529 OFFCURVE",
"290 529 CURVE SMOOTH",
"189 529 OFFCURVE",
"95 490 OFFCURVE",
"95 464 CURVE SMOOTH",
"95 452 OFFCURVE",
"111 415 OFFCURVE",
"125 415 CURVE SMOOTH",
"135 415 OFFCURVE",
"194 457 OFFCURVE",
"285 457 CURVE SMOOTH",
"341 457 OFFCURVE",
"371 439 OFFCURVE",
"383 414 CURVE",
"362 380 OFFCURVE",
"347 340 OFFCURVE",
"339 296 CURVE",
"193 292 OFFCURVE",
"29 271 OFFCURVE",
"29 123 CURVE SMOOTH",
"29 34 OFFCURVE",
"95 -6 OFFCURVE",
"185 -6 CURVE SMOOTH"
);
},
{
closed = 1;
nodes = (
"144 67 OFFCURVE",
"120 89 OFFCURVE",
"120 132 CURVE SMOOTH",
"120 221 OFFCURVE",
"265 226 OFFCURVE",
"331 226 CURVE",
"331 218 OFFCURVE",
"331 209 OFFCURVE",
"331 201 CURVE SMOOTH",
"331 168 OFFCURVE",
"335 141 OFFCURVE",
"343 117 CURVE",
"302 89 OFFCURVE",
"250 67 OFFCURVE",
"197 67 CURVE SMOOTH"
);
},
{
closed = 1;
nodes = (
"441 385 OFFCURVE",
"487 457 OFFCURVE",
"597 457 CURVE SMOOTH",
"654 457 OFFCURVE",
"687 430 OFFCURVE",
"687 388 CURVE SMOOTH",
"687 302 OFFCURVE",
"523 298 OFFCURVE",
"494 298 CURVE SMOOTH",
"425 298 LINE"
);
}
);
width = 829;
},
{
anchors = (
{
name = top;
position = "{415, 523}";
}
);
layerId = "DE974D70-A5B4-43AB-B940-69E4F08CB641";
paths = (
{
closed = 1;
nodes = (
"264 -8 OFFCURVE",
"336 32 OFFCURVE",
"368 58 CURVE",
"406 16 OFFCURVE",
"467 -8 OFFCURVE",
"554 -8 CURVE SMOOTH",
"609 -8 OFFCURVE",
"712 7 OFFCURVE",
"728 62 CURVE SMOOTH",
"733 78 OFFCURVE",
"735 135 OFFCURVE",
"736 139 CURVE",
"736 153 OFFCURVE",
"732 153 OFFCURVE",
"728 153 CURVE SMOOTH",
"717 153 OFFCURVE",
"653 109 OFFCURVE",
"573 109 CURVE SMOOTH",
"511 109 OFFCURVE",
"468 130 OFFCURVE",
"468 225 CURVE",
"468 253 LINE",
"433 216 LINE",
"471 209 OFFCURVE",
"509 203 OFFCURVE",
"572 203 CURVE SMOOTH",
"671 203 OFFCURVE",
"787 253 OFFCURVE",
"787 386 CURVE SMOOTH",
"787 438 OFFCURVE",
"756 531 OFFCURVE",
"593 531 CURVE SMOOTH",
"540 531 OFFCURVE",
"489 520 OFFCURVE",
"446 494 CURVE",
"412 518 OFFCURVE",
"357 531 OFFCURVE",
"288 531 CURVE SMOOTH",
"187 531 OFFCURVE",
"90 493 OFFCURVE",
"90 458 CURVE SMOOTH",
"90 435 OFFCURVE",
"113 382 OFFCURVE",
"133 382 CURVE SMOOTH",
"145 382 OFFCURVE",
"204 414 OFFCURVE",
"265 414 CURVE SMOOTH",
"306 414 OFFCURVE",
"334 411 OFFCURVE",
"352 389 CURVE",
"342 368 OFFCURVE",
"334 343 OFFCURVE",
"328 316 CURVE",
"64 314 OFFCURVE",
"25 209 OFFCURVE",
"25 122 CURVE SMOOTH",
"25 43 OFFCURVE",
"77 -8 OFFCURVE",
"179 -8 CURVE SMOOTH"
);
},
{
closed = 1;
nodes = (
"190 109 OFFCURVE",
"174 125 OFFCURVE",
"174 147 CURVE SMOOTH",
"174 198 OFFCURVE",
"223 223 OFFCURVE",
"318 224 CURVE",
"318 220 OFFCURVE",
"318 216 OFFCURVE",
"318 212 CURVE SMOOTH",
"318 191 OFFCURVE",
"320 171 OFFCURVE",
"323 152 CURVE",
"299 124 OFFCURVE",
"253 109 OFFCURVE",
"220 109 CURVE SMOOTH"
);
},
{
closed = 1;
nodes = (
"489 364 OFFCURVE",
"521 414 OFFCURVE",
"583 414 CURVE SMOOTH",
"618 414 OFFCURVE",
"643 400 OFFCURVE",
"643 367 CURVE SMOOTH",
"643 338 OFFCURVE",
"617 302 OFFCURVE",
"523 302 CURVE SMOOTH",
"475 302 LINE"
);
}
);
width = 829;
}
);
leftKerningGroup = a;
rightKerningGroup = e;
unicode = 00E6;
},
{
color = 4;
glyphname = b;
layers = (
{
layerId = UUID0;
paths = (
{
closed = 1;
nodes = (
"407 -6 OFFCURVE",
"511 130 OFFCURVE",
"511 316 CURVE SMOOTH",
"511 490 OFFCURVE",
"397 529 OFFCURVE",
"324 529 CURVE SMOOTH",
"265 529 OFFCURVE",
"207 499 OFFCURVE",
"165 425 CURVE",
"197 730 LINE",
"197 745 OFFCURVE",
"187 752 OFFCURVE",
"159 752 CURVE SMOOTH",
"155 752 LINE SMOOTH",
"129 752 OFFCURVE",
"115 746 OFFCURVE",
"113 730 CURVE SMOOTH",
"38 20 LINE",
"38 6 OFFCURVE",
"43 -2 OFFCURVE",
"63 -2 CURVE SMOOTH",
"71 -2 LINE SMOOTH",
"96 -2 OFFCURVE",
"109 30 OFFCURVE",
"115 57 CURVE SMOOTH",
"120 76 LINE",
"103 58 LINE",
"120 38 OFFCURVE",
"171 -6 OFFCURVE",
"246 -6 CURVE SMOOTH"
);
},
{
closed = 1;
nodes = (
"185 67 OFFCURVE",
"148 90 OFFCURVE",
"129 106 CURVE",
"132 121 OFFCURVE",
"135 138 OFFCURVE",
"137 156 CURVE SMOOTH",
"151 290 LINE",
"193 420 OFFCURVE",
"260 456 OFFCURVE",
"305 456 CURVE SMOOTH",
"371 456 OFFCURVE",
"424 424 OFFCURVE",
"424 310 CURVE SMOOTH",
"424 190 OFFCURVE",
"387 67 OFFCURVE",
"238 67 CURVE SMOOTH"
);
}
);
width = 569;
},
{
layerId = "DE974D70-A5B4-43AB-B940-69E4F08CB641";
paths = (
{
closed = 1;
nodes = (
"425 -8 OFFCURVE",
"524 122 OFFCURVE",
"524 314 CURVE SMOOTH",
"524 455 OFFCURVE",
"451 531 OFFCURVE",
"342 531 CURVE SMOOTH",
"292 531 OFFCURVE",
"250 508 OFFCURVE",
"221 474 CURVE",
"248 723 LINE",
"248 739 OFFCURVE",
"231 754 OFFCURVE",
"191 754 CURVE SMOOTH",
"163 754 LINE SMOOTH",
"124 754 OFFCURVE",
"102 743 OFFCURVE",
"100 722 CURVE SMOOTH",
"26 23 LINE",
"26 7 OFFCURVE",
"44 -2 OFFCURVE",
"84 -2 CURVE SMOOTH",
"96 -2 LINE SMOOTH",
"150 -1 OFFCURVE",
"150 11 OFFCURVE",
"164 53 CURVE SMOOTH",
"172 78 LINE",
"146 60 LINE",
"157 47 OFFCURVE",
"206 -8 OFFCURVE",
"282 -8 CURVE SMOOTH"
);
},
{
closed = 1;
nodes = (
"220 109 OFFCURVE",
"199 121 OFFCURVE",
"183 135 CURVE",
"187 164 OFFCURVE",
"191 194 OFFCURVE",
"195 223 CURVE SMOOTH",
"209 354 LINE",
"229 384 OFFCURVE",
"254 410 OFFCURVE",
"286 410 CURVE SMOOTH",
"347 410 OFFCURVE",
"374 377 OFFCURVE",
"374 305 CURVE SMOOTH",
"374 177 OFFCURVE",
"327 109 OFFCURVE",
"248 109 CURVE SMOOTH"
);
}
);
width = 569;
}
);
leftKerningGroup = h;
rightKerningGroup = p;
unicode = 0062;
},
{
color = 4;
glyphname = c;
layers = (
{
anchors = (
{
name = bottom;
position = "{263, 0}";
},
{
name = top;
position = "{293, 523}";
}
);
layerId = UUID0;
paths = (
{
closed = 1;
nodes = (
"289 -6 OFFCURVE",
"366 -2 OFFCURVE",
"394 23 CURVE SMOOTH",
"408 35 OFFCURVE",
"410 59 OFFCURVE",
"410 85 CURVE SMOOTH",
"410 96 OFFCURVE",
"408 97 OFFCURVE",
"404 97 CURVE SMOOTH",
"400 97 OFFCURVE",
"392 93 OFFCURVE",
"380 88 CURVE SMOOTH",
"358 79 OFFCURVE",
"322 66 OFFCURVE",
"270 66 CURVE SMOOTH",
"176 66 OFFCURVE",
"134 110 OFFCURVE",
"134 210 CURVE SMOOTH",
"134 391 OFFCURVE",
"208 457 OFFCURVE",
"301 457 CURVE SMOOTH",
"347 457 OFFCURVE",
"374 447 OFFCURVE",
"390 439 CURVE SMOOTH",
"402 432 OFFCURVE",
"409 427 OFFCURVE",
"412 427 CURVE SMOOTH",
"429 427 OFFCURVE",
"451 464 OFFCURVE",
"451 477 CURVE SMOOTH",
"451 498 OFFCURVE",
"402 529 OFFCURVE",
"311 529 CURVE SMOOTH",
"119 529 OFFCURVE",
"47 376 OFFCURVE",
"47 204 CURVE SMOOTH",
"47 55 OFFCURVE",
"122 -6 OFFCURVE",
"263 -6 CURVE SMOOTH"
);
}
);
width = 485;
},
{
anchors = (
{
name = bottom;
position = "{243, 0}";
},
{
name = top;
position = "{297, 523}";
}
);
layerId = "DE974D70-A5B4-43AB-B940-69E4F08CB641";
paths = (
{
closed = 1;
nodes = (
"306 -8 OFFCURVE",
"384 5 OFFCURVE",
"414 42 CURVE SMOOTH",
"429 61 OFFCURVE",
"431 109 OFFCURVE",
"431 135 CURVE SMOOTH",
"431 149 OFFCURVE",
"428 149 OFFCURVE",
"424 149 CURVE SMOOTH",
"420 149 OFFCURVE",
"413 146 OFFCURVE",
"403 141 CURVE SMOOTH",
"379 129 OFFCURVE",
"337 109 OFFCURVE",
"279 109 CURVE SMOOTH",
"214 109 OFFCURVE",
"186 145 OFFCURVE",
"186 219 CURVE SMOOTH",
"186 349 OFFCURVE",
"229 414 OFFCURVE",
"318 414 CURVE SMOOTH",
"362 414 OFFCURVE",
"385 401 OFFCURVE",
"400 393 CURVE SMOOTH",
"407 389 OFFCURVE",
"411 386 OFFCURVE",
"416 386 CURVE SMOOTH",
"437 386 OFFCURVE",
"471 443 OFFCURVE",
"471 462 CURVE SMOOTH",
"470 520 OFFCURVE",
"361 531 OFFCURVE",
"313 531 CURVE SMOOTH",
"102 531 OFFCURVE",
"33 378 OFFCURVE",
"33 204 CURVE SMOOTH",
"33 61 OFFCURVE",
"107 -8 OFFCURVE",
"260 -8 CURVE SMOOTH"
);
}
);
width = 485;
}
);
leftKerningGroup = c;
rightKerningGroup = c;
unicode = 0063;
},
{
color = 4;
glyphname = d;
layers = (
{
anchors = (
{
name = bottom;
position = "{261, 0}";
},
{
name = caron;
position = "{519, 752}";
},
{
name = center;
position = "{464, 630}";
}
);
layerId = UUID0;
paths = (
{
closed = 1;
nodes = (
"297 -6 OFFCURVE",
"363 32 OFFCURVE",
"405 134 CURVE",
"390 141 LINE",
"390 92 LINE SMOOTH",
"390 24 OFFCURVE",
"423 -6 OFFCURVE",
"480 -6 CURVE SMOOTH",
"498 -6 OFFCURVE",
"535 2 OFFCURVE",
"540 27 CURVE SMOOTH",
"544 49 OFFCURVE",
"544 63 OFFCURVE",
"544 64 CURVE SMOOTH",
"544 70 OFFCURVE",
"541 71 OFFCURVE",
"538 71 CURVE SMOOTH",
"532 71 OFFCURVE",
"523 66 OFFCURVE",
"511 66 CURVE SMOOTH",
"495 66 OFFCURVE",
"475 66 OFFCURVE",
"475 107 CURVE SMOOTH",
"475 137 OFFCURVE",
"539 730 OFFCURVE",
"539 730 CURVE",
"539 745 OFFCURVE",
"529 752 OFFCURVE",
"501 752 CURVE SMOOTH",
"497 752 LINE SMOOTH",
"471 752 OFFCURVE",
"457 746 OFFCURVE",
"455 730 CURVE",
"428 484 LINE",
"403 505 OFFCURVE",
"362 529 OFFCURVE",
"292 529 CURVE SMOOTH",
"140 529 OFFCURVE",
"41 396 OFFCURVE",
"41 210 CURVE SMOOTH",
"41 36 OFFCURVE",
"156 -6 OFFCURVE",
"229 -6 CURVE SMOOTH"
);
},
{
closed = 1;
nodes = (
"173 67 OFFCURVE",
"129 102 OFFCURVE",
"129 216 CURVE SMOOTH",
"129 336 OFFCURVE",
"166 456 OFFCURVE",
"304 456 CURVE SMOOTH",
"365 456 OFFCURVE",
"401 434 OFFCURVE",
"421 418 CURVE",
"402 234 LINE",
"360 103 OFFCURVE",
"293 67 OFFCURVE",
"248 67 CURVE SMOOTH"
);
}
);
width = 565;
},
{
anchors = (
{
name = bottom;
position = "{251, 0}";
},
{
name = caron;
position = "{519, 752}";
},
{
name = center;
position = "{447, 630}";
}
);
layerId = "DE974D70-A5B4-43AB-B940-69E4F08CB641";
paths = (
{
closed = 1;
nodes = (
"273 -8 OFFCURVE",
"332 44 OFFCURVE",
"352 109 CURVE",
"328 126 LINE",
"328 116 LINE",
"330 28 OFFCURVE",
"372 -8 OFFCURVE",
"449 -8 CURVE SMOOTH",
"484 -8 OFFCURVE",
"531 7 OFFCURVE",
"537 44 CURVE SMOOTH",
"543 79 OFFCURVE",
"544 102 OFFCURVE",
"544 104 CURVE SMOOTH",
"544 113 OFFCURVE",
"542 115 OFFCURVE",
"536 115 CURVE SMOOTH",
"532 115 OFFCURVE",
"521 109 OFFCURVE",
"507 109 CURVE SMOOTH",
"486 109 OFFCURVE",
"477 119 OFFCURVE",
"477 142 CURVE SMOOTH",
"477 152 OFFCURVE",
"538 723 OFFCURVE",
"538 723 CURVE",
"538 739 OFFCURVE",
"521 754 OFFCURVE",
"481 754 CURVE SMOOTH",
"453 754 LINE SMOOTH",
"414 754 OFFCURVE",
"392 743 OFFCURVE",
"390 722 CURVE",
"365 490 LINE",
"342 509 OFFCURVE",
"305 531 OFFCURVE",
"258 531 CURVE SMOOTH",
"121 531 OFFCURVE",
"26 401 OFFCURVE",
"26 209 CURVE SMOOTH",
"26 68 OFFCURVE",
"95 -8 OFFCURVE",
"198 -8 CURVE SMOOTH"
);
},
{
closed = 1;
nodes = (
"202 113 OFFCURVE",
"176 149 OFFCURVE",
"176 218 CURVE SMOOTH",
"176 346 OFFCURVE",
"219 414 OFFCURVE",
"292 414 CURVE SMOOTH",
"318 414 OFFCURVE",
"339 403 OFFCURVE",
"355 390 CURVE",
"333 172 LINE",
"313 140 OFFCURVE",
"287 113 OFFCURVE",
"254 113 CURVE SMOOTH"
);
}
);
width = 565;
}
);
leftKerningGroup = d;
rightKerningGroup = d;
unicode = 0064;
},
{
glyphname = eth;
layers = (
{
layerId = UUID0;
paths = (
{
closed = 1;
nodes = (
"410 -6 OFFCURVE",
"507 106 OFFCURVE",
"507 315 CURVE SMOOTH",
"507 424 OFFCURVE",
"475 528 OFFCURVE",
"427 618 CURVE",
"488 626 LINE SMOOTH",
"500 627 OFFCURVE",
"504 633 OFFCURVE",
"504 641 CURVE SMOOTH",
"504 649 OFFCURVE",
"500 671 OFFCURVE",
"483 671 CURVE SMOOTH",
"482 671 OFFCURVE",
"481 671 OFFCURVE",
"404 660 CURVE",
"395 673 OFFCURVE",
"387 685 OFFCURVE",
"378 698 CURVE SMOOTH",
"371 707 OFFCURVE",
"363 713 OFFCURVE",
"349 713 CURVE SMOOTH",
"337 713 OFFCURVE",
"318 710 OFFCURVE",
"312 709 CURVE SMOOTH",
"304 708 OFFCURVE",
"300 704 OFFCURVE",
"300 699 CURVE SMOOTH",
"300 696 OFFCURVE",
"301 693 OFFCURVE",
"304 689 CURVE SMOOTH",
"312 676 OFFCURVE",
"313 675 OFFCURVE",
"327 650 CURVE",
"254 640 LINE SMOOTH",
"242 638 OFFCURVE",
"237 633 OFFCURVE",
"237 625 CURVE SMOOTH",
"237 611 OFFCURVE",
"247 595 OFFCURVE",
"260 595 CURVE SMOOTH",
"262 595 OFFCURVE",
"264 596 OFFCURVE",
"347 607 CURVE",
"362 574 OFFCURVE",
"379 533 OFFCURVE",
"393 490 CURVE",
"407 508 LINE",
"376 522 OFFCURVE",
"343 529 OFFCURVE",
"305 529 CURVE SMOOTH",
"145 529 OFFCURVE",
"42 412 OFFCURVE",
"42 207 CURVE SMOOTH",
"42 68 OFFCURVE",
"114 -6 OFFCURVE",
"249 -6 CURVE SMOOTH"
);
},
{
closed = 1;
nodes = (
"168 66 OFFCURVE",
"128 112 OFFCURVE",
"128 211 CURVE SMOOTH",
"128 379 OFFCURVE",
"190 457 OFFCURVE",
"294 457 CURVE SMOOTH",
"379 457 OFFCURVE",
"420 409 OFFCURVE",
"420 310 CURVE SMOOTH",
"420 143 OFFCURVE",
"358 66 OFFCURVE",
"253 66 CURVE SMOOTH"
);
}
);
width = 569;
},
{
layerId = "DE974D70-A5B4-43AB-B940-69E4F08CB641";
paths = (
{
closed = 1;
nodes = (
"433 -8 OFFCURVE",
"531 110 OFFCURVE",
"531 322 CURVE SMOOTH",
"531 435 OFFCURVE",
"500 540 OFFCURVE",
"464 606 CURVE",
"511 612 LINE SMOOTH",
"527 614 OFFCURVE",
"533 620 OFFCURVE",
"533 631 CURVE SMOOTH",
"533 650 OFFCURVE",
"517 670 OFFCURVE",
"501 670 CURVE SMOOTH",
"500 670 OFFCURVE",
"499 670 OFFCURVE",
"432 661 CURVE",
"431 663 OFFCURVE",
"430 664 OFFCURVE",
"429 666 CURVE SMOOTH",
"412 692 OFFCURVE",
"395 715 OFFCURVE",
"359 715 CURVE",
"338 713 OFFCURVE",
"318 711 OFFCURVE",
"297 708 CURVE SMOOTH",
"286 706 OFFCURVE",
"282 702 OFFCURVE",
"282 695 CURVE SMOOTH",
"282 689 OFFCURVE",
"285 682 OFFCURVE",
"289 675 CURVE SMOOTH",
"296 664 OFFCURVE",
"305 652 OFFCURVE",
"309 645 CURVE",
"266 639 LINE SMOOTH",
"248 636 OFFCURVE",
"243 629 OFFCURVE",
"243 619 CURVE SMOOTH",
"243 600 OFFCURVE",
"258 581 OFFCURVE",
"277 581 CURVE SMOOTH",
"280 581 OFFCURVE",
"283 581 OFFCURVE",
"339 589 CURVE",
"354 557 OFFCURVE",
"369 523 OFFCURVE",
"379 476 CURVE",
"405 523 LINE",
"378 524 OFFCURVE",
"348 531 OFFCURVE",
"314 531 CURVE SMOOTH",
"144 531 OFFCURVE",
"40 418 OFFCURVE",
"40 213 CURVE SMOOTH",
"40 70 OFFCURVE",
"114 -8 OFFCURVE",
"258 -8 CURVE SMOOTH"
);
},
{
closed = 1;
nodes = (
"216 109 OFFCURVE",
"190 147 OFFCURVE",
"190 219 CURVE SMOOTH",
"190 347 OFFCURVE",
"232 414 OFFCURVE",
"302 414 CURVE SMOOTH",
"356 414 OFFCURVE",
"380 377 OFFCURVE",
"380 304 CURVE SMOOTH",
"380 177 OFFCURVE",
"339 109 OFFCURVE",
"270 109 CURVE SMOOTH"
);
}
);
width = 569;
}
);
unicode = 00F0;
},
{
glyphname = e;
layers = (
{
anchors = (
{
name = bottom;
position = "{270, 0}";
},
{
name = ogonek;
position = "{351, 0}";
},
{
name = top;
position = "{310, 523}";
}
);
layerId = UUID0;
paths = (
{
closed = 1;
nodes = (
"125 529 OFFCURVE",
"46 380 OFFCURVE",
"46 201 CURVE SMOOTH",
"46 22 OFFCURVE",
"173 -6 OFFCURVE",
"272 -6 CURVE SMOOTH",
"315 -6 OFFCURVE",
"427 11 OFFCURVE",
"436 58 CURVE SMOOTH",
"440 79 OFFCURVE",
"441 100 OFFCURVE",
"441 103 CURVE SMOOTH",
"441 115 OFFCURVE",
"438 115 OFFCURVE",
"434 115 CURVE SMOOTH",
"420 115 OFFCURVE",
"369 66 OFFCURVE",
"279 66 CURVE SMOOTH",
"191 66 OFFCURVE",
"133 99 OFFCURVE",
"133 210 CURVE SMOOTH",
"133 259 LINE",
"116 224 LINE",
"138 218 OFFCURVE",
"171 213 OFFCURVE",
"219 213 CURVE SMOOTH",
"355 213 OFFCURVE",
"489 257 OFFCURVE",
"489 396 CURVE SMOOTH",
"489 447 OFFCURVE",
"447 529 OFFCURVE",
"321 529 CURVE SMOOTH"
);
},
{
closed = 1;
nodes = (
"369 457 OFFCURVE",
"402 425 OFFCURVE",
"402 388 CURVE SMOOTH",
"402 285 OFFCURVE",
"238 285 OFFCURVE",
"209 285 CURVE SMOOTH",
"138 285 LINE",
"151 378 OFFCURVE",
"196 457 OFFCURVE",
"312 457 CURVE SMOOTH"
);
}
);
width = 539;
},
{
anchors = (
{
name = bottom;
position = "{270, 0}";
},
{
name = ogonek;
position = "{349, 0}";
},
{
name = top;
position = "{304, 523}";
}
);
layerId = "DE974D70-A5B4-43AB-B940-69E4F08CB641";
paths = (
{
closed = 1;
nodes = (
"160 531 OFFCURVE",
"33 443 OFFCURVE",
"33 212 CURVE SMOOTH",
"33 77 OFFCURVE",
"106 -8 OFFCURVE",
"269 -8 CURVE SMOOTH",
"324 -8 OFFCURVE",
"427 7 OFFCURVE",
"443 62 CURVE SMOOTH",
"448 78 OFFCURVE",
"450 135 OFFCURVE",
"451 139 CURVE",
"451 153 OFFCURVE",
"447 153 OFFCURVE",
"443 153 CURVE SMOOTH",
"432 153 OFFCURVE",
"368 109 OFFCURVE",
"288 109 CURVE SMOOTH",
"226 109 OFFCURVE",
"183 130 OFFCURVE",
"183 225 CURVE",
"183 266 LINE",
"148 216 LINE",
"186 209 OFFCURVE",
"224 203 OFFCURVE",
"287 203 CURVE SMOOTH",
"386 203 OFFCURVE",
"502 253 OFFCURVE",
"502 386 CURVE SMOOTH",
"502 438 OFFCURVE",
"471 531 OFFCURVE",
"308 531 CURVE SMOOTH"
);
},
{
closed = 1;
nodes = (
"333 414 OFFCURVE",
"358 400 OFFCURVE",
"358 367 CURVE SMOOTH",
"358 338 OFFCURVE",
"332 302 OFFCURVE",
"238 302 CURVE SMOOTH",
"190 302 LINE",
"204 364 OFFCURVE",
"236 414 OFFCURVE",
"298 414 CURVE SMOOTH"
);
}
);
width = 539;
}
);
leftKerningGroup = e;
rightKerningGroup = e;
unicode = 0065;
},
{
glyphname = schwa;
layers = (
{
anchors = (
{
name = bottom;
position = "{235, 0}";
},
{
name = ogonek;
position = "{190, 523}";
},
{
name = top;
position = "{269, 523}";
}
);
background = {
components = (
{
name = e;
transform = "{-1, 0, 0, -1, 539, 523}";
}
);
};
layerId = "DE974D70-A5B4-43AB-B940-69E4F08CB641";
paths = (
{
closed = 1;
nodes = (
"379 -8 OFFCURVE",
"506 80 OFFCURVE",
"506 311 CURVE SMOOTH",
"506 446 OFFCURVE",
"433 531 OFFCURVE",
"270 531 CURVE SMOOTH",
"215 531 OFFCURVE",
"112 516 OFFCURVE",
"96 461 CURVE SMOOTH",
"91 445 OFFCURVE",
"89 388 OFFCURVE",
"88 384 CURVE",
"88 370 OFFCURVE",
"92 370 OFFCURVE",
"96 370 CURVE SMOOTH",
"107 370 OFFCURVE",
"171 414 OFFCURVE",
"251 414 CURVE SMOOTH",
"313 414 OFFCURVE",
"356 393 OFFCURVE",
"356 298 CURVE",
"356 257 LINE",
"391 307 LINE",
"353 314 OFFCURVE",
"315 320 OFFCURVE",
"252 320 CURVE SMOOTH",
"153 320 OFFCURVE",
"37 270 OFFCURVE",
"37 137 CURVE SMOOTH",
"37 85 OFFCURVE",
"68 -8 OFFCURVE",
"231 -8 CURVE SMOOTH"
);
},
{
closed = 1;
nodes = (
"206 109 OFFCURVE",
"181 123 OFFCURVE",
"181 156 CURVE SMOOTH",
"181 185 OFFCURVE",
"207 221 OFFCURVE",
"301 221 CURVE SMOOTH",
"349 221 LINE",
"335 159 OFFCURVE",
"303 109 OFFCURVE",
"241 109 CURVE SMOOTH"
);
}
);
width = 539;
},
{
anchors = (
{
name = bottom;
position = "{229, 0}";
},
{
name = ogonek;
position = "{188, 523}";
},
{
name = top;
position = "{269, 523}";
}
);
background = {
components = (
{
name = e;
transform = "{-1, 0, 0, -1, 539, 523}";
}
);
};
layerId = UUID0;
paths = (
{
closed = 1;
nodes = (
"414 -6 OFFCURVE",
"493 143 OFFCURVE",
"493 322 CURVE SMOOTH",
"493 501 OFFCURVE",
"366 529 OFFCURVE",
"267 529 CURVE SMOOTH",
"224 529 OFFCURVE",
"112 512 OFFCURVE",
"103 465 CURVE SMOOTH",
"99 444 OFFCURVE",
"98 423 OFFCURVE",
"98 420 CURVE SMOOTH",
"98 408 OFFCURVE",
"101 408 OFFCURVE",
"105 408 CURVE SMOOTH",
"119 408 OFFCURVE",
"170 457 OFFCURVE",
"260 457 CURVE SMOOTH",
"348 457 OFFCURVE",
"406 424 OFFCURVE",
"406 313 CURVE SMOOTH",
"406 264 LINE",
"423 299 LINE",
"401 305 OFFCURVE",
"368 310 OFFCURVE",
"320 310 CURVE SMOOTH",
"184 310 OFFCURVE",
"50 266 OFFCURVE",
"50 127 CURVE SMOOTH",
"50 76 OFFCURVE",
"92 -6 OFFCURVE",
"218 -6 CURVE SMOOTH"
);
},
{
closed = 1;
nodes = (
"170 66 OFFCURVE",
"137 98 OFFCURVE",
"137 135 CURVE SMOOTH",
"137 238 OFFCURVE",
"301 238 OFFCURVE",
"330 238 CURVE SMOOTH",
"401 238 LINE",
"388 145 OFFCURVE",
"343 66 OFFCURVE",
"227 66 CURVE SMOOTH"
);
}
);
width = 539;
}
);
unicode = 0259;
},
{
glyphname = f;
layers = (
{
layerId = UUID0;
paths = (
{
closed = 1;
nodes = (
"114 -2 LINE SMOOTH",
"140 -2 OFFCURVE",
"154 5 OFFCURVE",
"156 20 CURVE SMOOTH",
"201 451 LINE",
"267 451 LINE SMOOTH",
"292 451 OFFCURVE",
"312 479 OFFCURVE",
"312 501 CURVE SMOOTH",
"312 504 LINE SMOOTH",
"312 518 OFFCURVE",
"308 523 OFFCURVE",
"296 523 CURVE SMOOTH",
"209 523 LINE",
"218 614 LINE SMOOTH",
"224 674 OFFCURVE",
"247 684 OFFCURVE",
"278 684 CURVE SMOOTH",
"308 684 OFFCURVE",
"319 677 OFFCURVE",
"323 677 CURVE SMOOTH",
"335 677 OFFCURVE",
"349 714 OFFCURVE",
"349 725 CURVE SMOOTH",
"349 755 OFFCURVE",
"295 756 OFFCURVE",
"278 756 CURVE SMOOTH",
"225 756 OFFCURVE",
"146 740 OFFCURVE",
"135 624 CURVE SMOOTH",
"125 523 LINE",
"85 523 LINE SMOOTH",
"63 523 OFFCURVE",
"60 495 OFFCURVE",
"60 482 CURVE SMOOTH",
"60 478 LINE SMOOTH",
"60 462 OFFCURVE",
"63 451 OFFCURVE",
"77 451 CURVE SMOOTH",
"117 451 LINE",
"72 20 LINE",
"72 5 OFFCURVE",
"82 -2 OFFCURVE",
"110 -2 CURVE SMOOTH"
);
}
);
width = 325;
},
{
layerId = "DE974D70-A5B4-43AB-B940-69E4F08CB641";
paths = (
{
closed = 1;
nodes = (
"126 -2 LINE SMOOTH",
"165 -2 OFFCURVE",
"187 9 OFFCURVE",
"189 30 CURVE SMOOTH",
"228 406 LINE",
"258 406 LINE SMOOTH",
"294 406 OFFCURVE",
"316 465 OFFCURVE",
"316 495 CURVE SMOOTH",
"316 503 LINE SMOOTH",
"316 517 OFFCURVE",
"314 523 OFFCURVE",
"300 523 CURVE SMOOTH",
"240 523 LINE",
"249 600 LINE SMOOTH",
"252 629 OFFCURVE",
"263 643 OFFCURVE",
"289 643 CURVE SMOOTH",
"309 643 OFFCURVE",
"314 638 OFFCURVE",
"322 638 CURVE SMOOTH",
"339 638 OFFCURVE",
"359 697 OFFCURVE",
"359 714 CURVE SMOOTH",
"359 752 OFFCURVE",
"311 760 OFFCURVE",
"263 760 CURVE SMOOTH",
"168 760 OFFCURVE",
"109 700 OFFCURVE",
"100 598 CURVE SMOOTH",
"93 523 LINE",
"72 523 LINE SMOOTH",
"44 523 OFFCURVE",
"35 490 OFFCURVE",
"34 446 CURVE SMOOTH",
"34 442 LINE SMOOTH",
"34 417 OFFCURVE",
"42 406 OFFCURVE",
"60 406 CURVE SMOOTH",
"80 406 LINE",
"41 29 LINE",
"41 13 OFFCURVE",
"58 -2 OFFCURVE",
"98 -2 CURVE SMOOTH"
);
}
);
width = 325;
}
);
leftKerningGroup = f;
rightKerningGroup = f;
unicode = 0066;
},
{
glyphname = g;
layers = (
{
anchors = (
{
name = top;
position = "{292, 523}";
}
);
layerId = UUID0;
paths = (
{
closed = 1;
nodes = (
"356 -212 OFFCURVE",
"432 -140 OFFCURVE",
"457 99 CURVE SMOOTH",
"500 504 LINE",
"500 517 OFFCURVE",
"495 525 OFFCURVE",
"475 525 CURVE SMOOTH",
"469 525 LINE SMOOTH",
"441 525 OFFCURVE",
"434 504 OFFCURVE",
"424 475 CURVE",
"401 496 OFFCURVE",
"356 529 OFFCURVE",
"292 529 CURVE SMOOTH",
"140 529 OFFCURVE",
"42 396 OFFCURVE",
"42 210 CURVE SMOOTH",
"42 41 OFFCURVE",
"147 0 OFFCURVE",
"214 0 CURVE SMOOTH",
"282 0 OFFCURVE",
"348 38 OFFCURVE",
"390 140 CURVE",
"378 152 LINE",
"376 120 LINE",
"363 -68 OFFCURVE",
"312 -140 OFFCURVE",
"213 -140 CURVE SMOOTH",
"109 -140 OFFCURVE",
"67 -86 OFFCURVE",
"55 -86 CURVE SMOOTH",
"50 -86 OFFCURVE",
"41 -92 OFFCURVE",
"41 -141 CURVE SMOOTH",
"41 -171 OFFCURVE",
"111 -212 OFFCURVE",
"213 -212 CURVE SMOOTH"
);
},
{
closed = 1;
nodes = (
"176 73 OFFCURVE",
"129 107 OFFCURVE",
"129 216 CURVE SMOOTH",
"129 336 OFFCURVE",
"163 456 OFFCURVE",
"300 456 CURVE SMOOTH",
"352 456 OFFCURVE",
"389 432 OFFCURVE",
"409 417 CURVE",
"406 401 OFFCURVE",
"403 385 OFFCURVE",
"401 367 CURVE",
"388 244 LINE",
"346 110 OFFCURVE",
"278 73 OFFCURVE",
"233 73 CURVE SMOOTH"
);
}
);
width = 546;
},
{
anchors = (
{
name = top;
position = "{313, 523}";
}
);
layerId = "DE974D70-A5B4-43AB-B940-69E4F08CB641";
paths = (
{
closed = 1;
nodes = (
"379 -212 OFFCURVE",
"457 -110 OFFCURVE",
"478 93 CURVE SMOOTH",
"519 500 LINE",
"519 516 OFFCURVE",
"501 525 OFFCURVE",
"461 525 CURVE SMOOTH",
"449 525 LINE SMOOTH",
"399 524 OFFCURVE",
"395 514 OFFCURVE",
"384 479 CURVE",
"363 499 OFFCURVE",
"320 531 OFFCURVE",
"264 531 CURVE SMOOTH",
"127 531 OFFCURVE",
"32 403 OFFCURVE",
"32 213 CURVE SMOOTH",
"32 77 OFFCURVE",
"101 4 OFFCURVE",
"204 4 CURVE SMOOTH",
"270 4 OFFCURVE",
"324 48 OFFCURVE",
"349 98 CURVE",
"333 130 LINE",
"323 33 LINE SMOOTH",
"315 -49 OFFCURVE",
"270 -95 OFFCURVE",
"193 -95 CURVE SMOOTH",
"115 -95 OFFCURVE",
"70 -54 OFFCURVE",
"58 -54 CURVE SMOOTH",
"48 -54 OFFCURVE",
"38 -73 OFFCURVE",
"38 -141 CURVE SMOOTH",
"38 -183 OFFCURVE",
"120 -212 OFFCURVE",
"223 -212 CURVE SMOOTH"
);
},
{
closed = 1;
nodes = (
"208 125 OFFCURVE",
"182 158 OFFCURVE",
"182 222 CURVE SMOOTH",
"182 347 OFFCURVE",
"225 414 OFFCURVE",
"298 414 CURVE SMOOTH",
"325 414 OFFCURVE",
"346 402 OFFCURVE",
"363 388 CURVE",
"357 362 OFFCURVE",
"355 333 OFFCURVE",
"351 300 CURVE SMOOTH",
"338 183 LINE",
"318 152 OFFCURVE",
"292 125 OFFCURVE",
"260 125 CURVE SMOOTH"
);
}
);
width = 546;
}
);
leftKerningGroup = g;
rightKerningGroup = g;
unicode = 0067;
},
{
glyphname = h;
layers = (
{
anchors = (
{
name = bottom;
position = "{271, 0}";
},
{
name = center;
position = "{198, 630}";
},
{
name = top;
position = "{179, 730}";
}
);
layerId = UUID0;
paths = (
{
closed = 1;
nodes = (
"482 -6 OFFCURVE",
"519 2 OFFCURVE",
"524 27 CURVE SMOOTH",
"528 49 OFFCURVE",
"528 63 OFFCURVE",
"528 64 CURVE SMOOTH",
"528 70 OFFCURVE",
"525 71 OFFCURVE",
"522 71 CURVE SMOOTH",
"516 71 OFFCURVE",
"507 66 OFFCURVE",
"495 66 CURVE SMOOTH",
"479 66 OFFCURVE",
"459 66 OFFCURVE",
"459 107 CURVE SMOOTH",
"459 128 OFFCURVE",
"488 382 OFFCURVE",
"488 399 CURVE SMOOTH",
"488 473 OFFCURVE",
"453 529 OFFCURVE",
"356 529 CURVE SMOOTH",
"296 529 OFFCURVE",
"234 503 OFFCURVE",
"181 432 CURVE",
"213 730 LINE",
"213 745 OFFCURVE",
"203 752 OFFCURVE",
"175 752 CURVE SMOOTH",
"171 752 LINE SMOOTH",
"145 752 OFFCURVE",
"131 746 OFFCURVE",
"129 730 CURVE SMOOTH",
"54 19 LINE",
"54 7 OFFCURVE",
"65 -2 OFFCURVE",
"92 -2 CURVE SMOOTH",
"96 -2 LINE SMOOTH",
"120 -2 OFFCURVE",
"136 6 OFFCURVE",
"138 20 CURVE SMOOTH",
"167 297 LINE",
"211 425 OFFCURVE",
"282 456 OFFCURVE",
"326 456 CURVE SMOOTH",
"377 456 OFFCURVE",
"407 426 OFFCURVE",
"402 371 CURVE SMOOTH",
"389 251 LINE SMOOTH",
"382 183 OFFCURVE",
"374 109 OFFCURVE",
"374 92 CURVE SMOOTH",
"374 24 OFFCURVE",
"407 -6 OFFCURVE",
"464 -6 CURVE SMOOTH"
);
}
);
width = 565;
},
{
anchors = (
{
name = bottom;
position = "{261, 0}";
},
{
name = center;
position = "{184, 630}";
},
{
name = top;
position = "{176, 730}";
}
);
layerId = "DE974D70-A5B4-43AB-B940-69E4F08CB641";
paths = (
{
closed = 1;
nodes = (
"477 -8 OFFCURVE",
"524 7 OFFCURVE",
"530 44 CURVE SMOOTH",
"536 79 OFFCURVE",
"537 102 OFFCURVE",
"537 104 CURVE SMOOTH",
"537 113 OFFCURVE",
"535 115 OFFCURVE",
"529 115 CURVE SMOOTH",
"525 115 OFFCURVE",
"514 109 OFFCURVE",
"500 109 CURVE SMOOTH",
"479 109 OFFCURVE",
"470 119 OFFCURVE",
"470 142 CURVE SMOOTH",
"470 159 OFFCURVE",
"495 382 OFFCURVE",
"495 404 CURVE SMOOTH",
"495 491 OFFCURVE",
"452 531 OFFCURVE",
"363 531 CURVE SMOOTH",
"307 531 OFFCURVE",
"250 499 OFFCURVE",
"216 463 CURVE",
"243 723 LINE",
"243 739 OFFCURVE",
"226 754 OFFCURVE",
"186 754 CURVE SMOOTH",
"158 754 LINE SMOOTH",
"119 754 OFFCURVE",
"97 743 OFFCURVE",
"95 722 CURVE SMOOTH",
"22 29 LINE",
"22 13 OFFCURVE",
"39 -2 OFFCURVE",
"79 -2 CURVE SMOOTH",
"107 -2 LINE SMOOTH",
"146 -2 OFFCURVE",
"168 9 OFFCURVE",
"170 30 CURVE SMOOTH",
"204 352 LINE",
"223 379 OFFCURVE",
"252 409 OFFCURVE",
"290 409 CURVE SMOOTH",
"329 409 OFFCURVE",
"348 387 OFFCURVE",
"344 349 CURVE SMOOTH",
"331 232 LINE SMOOTH",
"326 181 OFFCURVE",
"321 130 OFFCURVE",
"321 119 CURVE SMOOTH",
"321 29 OFFCURVE",
"364 -8 OFFCURVE",
"442 -8 CURVE SMOOTH"
);
}
);
width = 565;
}
);
leftKerningGroup = h;
rightKerningGroup = n;
unicode = 0068;
},
{
glyphname = i;
layers = (
{
anchors = (
{
name = bottom;
position = "{111, 0}";
}
);
background = {
paths = (
{
closed = 1;
nodes = (
"166 752 LINE SMOOTH",
"140 752 OFFCURVE",
"126 746 OFFCURVE",
"124 730 CURVE SMOOTH",
"118 671 LINE",
"118 653 OFFCURVE",
"134 649 OFFCURVE",
"160 649 CURVE SMOOTH",
"172 649 LINE SMOOTH",
"200 649 OFFCURVE",
"210 658 OFFCURVE",
"210 671 CURVE",
"216 730 LINE",
"216 746 OFFCURVE",
"206 752 OFFCURVE",
"178 752 CURVE SMOOTH"
);
}
);
};
components = (
{
name = idotless;
},
{
name = dotaccentcomb;
transform = "{1.12, 0, 0, 1.1, 118, -52}";
}
);
layerId = UUID0;
width = 265;
},
{
anchors = (
{
name = bottom;
position = "{101, 0}";
}
);
background = {
paths = (
{
closed = 1;
nodes = (
"154 754 LINE SMOOTH",
"115 754 OFFCURVE",
"93 743 OFFCURVE",
"91 722 CURVE SMOOTH",
"82 640 LINE",
"82 624 OFFCURVE",
"99 609 OFFCURVE",
"139 609 CURVE SMOOTH",
"167 609 LINE SMOOTH",
"206 609 OFFCURVE",
"228 620 OFFCURVE",
"230 641 CURVE SMOOTH",
"239 723 LINE",
"239 739 OFFCURVE",
"222 754 OFFCURVE",
"182 754 CURVE SMOOTH"
);
}
);
};
components = (
{
name = idotless;
},
{
name = dotaccentcomb;
transform = "{1.24, 0, 0, 1.17, 113, -89}";
}
);
layerId = "DE974D70-A5B4-43AB-B940-69E4F08CB641";
width = 265;
}
);
leftKerningGroup = i;
rightKerningGroup = i;
unicode = 0069;
},
{
glyphname = idotless;
layers = (
{
anchors = (
{
name = bottom;
position = "{119, 0}";
},
{
name = ogonek;
position = "{200, 10}";
},
{
name = top;
position = "{146, 523}";
}
);
layerId = UUID0;
paths = (
{
closed = 1;
nodes = (
"170 -6 OFFCURVE",
"207 2 OFFCURVE",
"212 27 CURVE SMOOTH",
"216 49 OFFCURVE",
"216 63 OFFCURVE",
"216 64 CURVE SMOOTH",
"216 70 OFFCURVE",
"213 71 OFFCURVE",
"210 71 CURVE SMOOTH",
"204 71 OFFCURVE",
"195 66 OFFCURVE",
"183 66 CURVE SMOOTH",
"167 66 OFFCURVE",
"148 66 OFFCURVE",
"148 107 CURVE SMOOTH",
"148 137 OFFCURVE",
"188 503 OFFCURVE",
"188 503 CURVE",
"188 518 OFFCURVE",
"178 525 OFFCURVE",
"150 525 CURVE SMOOTH",
"146 525 LINE SMOOTH",
"120 525 OFFCURVE",
"106 519 OFFCURVE",
"104 503 CURVE",
"103 503 OFFCURVE",
"77 259 OFFCURVE",
"71 186 CURVE SMOOTH",
"66 138 OFFCURVE",
"63 100 OFFCURVE",
"63 89 CURVE SMOOTH",
"63 23 OFFCURVE",
"96 -6 OFFCURVE",
"152 -6 CURVE SMOOTH"
);
}
);
width = 265;
},
{
anchors = (
{
name = bottom;
position = "{110, 0}";
},
{
name = ogonek;
position = "{193, 0}";
},
{
name = top;
position = "{144, 523}";
}
);
layerId = "DE974D70-A5B4-43AB-B940-69E4F08CB641";
paths = (
{
closed = 1;
nodes = (
"185 -8 OFFCURVE",
"232 7 OFFCURVE",
"238 44 CURVE SMOOTH",
"244 79 OFFCURVE",
"245 102 OFFCURVE",
"245 104 CURVE SMOOTH",
"245 113 OFFCURVE",
"243 115 OFFCURVE",
"237 115 CURVE SMOOTH",
"233 115 OFFCURVE",
"222 109 OFFCURVE",
"208 109 CURVE SMOOTH",
"187 109 OFFCURVE",
"178 119 OFFCURVE",
"178 142 CURVE SMOOTH",
"178 152 OFFCURVE",
"215 494 OFFCURVE",
"215 494 CURVE",
"215 510 OFFCURVE",
"198 525 OFFCURVE",
"158 525 CURVE SMOOTH",
"130 525 LINE SMOOTH",
"91 525 OFFCURVE",
"69 514 OFFCURVE",
"67 493 CURVE",
"59 421 OFFCURVE",
"46 296 OFFCURVE",
"37 214 CURVE SMOOTH",
"33 166 OFFCURVE",
"29 128 OFFCURVE",
"29 119 CURVE SMOOTH",
"29 29 OFFCURVE",
"72 -8 OFFCURVE",
"150 -8 CURVE SMOOTH"
);
}
);
width = 265;
}
);
unicode = 0131;
},
{
glyphname = jdotless;
layers = (
{
anchors = (
{
name = top;
position = "{158, 523}";
}
);
layerId = "DE974D70-A5B4-43AB-B940-69E4F08CB641";
paths = (
{
closed = 1;
nodes = (
"105 -212 OFFCURVE",
"161 -152 OFFCURVE",
"172 -50 CURVE SMOOTH",
"229 494 LINE",
"229 510 OFFCURVE",
"212 525 OFFCURVE",
"172 525 CURVE SMOOTH",
"144 525 LINE SMOOTH",
"105 525 OFFCURVE",
"83 514 OFFCURVE",
"81 493 CURVE SMOOTH",
"24 -52 LINE SMOOTH",
"21 -82 OFFCURVE",
"9 -95 OFFCURVE",
"-16 -95 CURVE SMOOTH",
"-36 -95 OFFCURVE",
"-46 -90 OFFCURVE",
"-51 -90 CURVE SMOOTH",
"-60 -90 OFFCURVE",
"-69 -110 OFFCURVE",
"-69 -173 CURVE SMOOTH",
"-69 -211 OFFCURVE",
"-21 -212 OFFCURVE",
"9 -212 CURVE SMOOTH"
);
}
);
width = 276;
},
{
anchors = (
{
name = top;
position = "{165, 523}";
}
);
layerId = UUID0;
paths = (
{
closed = 1;
nodes = (
"62 -212 OFFCURVE",
"131 -190 OFFCURVE",
"143 -74 CURVE SMOOTH",
"204 503 LINE",
"204 518 OFFCURVE",
"194 525 OFFCURVE",
"166 525 CURVE SMOOTH",
"162 525 LINE SMOOTH",
"136 525 OFFCURVE",
"122 518 OFFCURVE",
"120 503 CURVE SMOOTH",
"60 -66 LINE SMOOTH",
"54 -126 OFFCURVE",
"31 -140 OFFCURVE",
"0 -140 CURVE SMOOTH",
"-35 -140 OFFCURVE",
"-48 -123 OFFCURVE",
"-56 -123 CURVE SMOOTH",
"-61 -123 OFFCURVE",
"-67 -129 OFFCURVE",
"-67 -171 CURVE SMOOTH",
"-67 -195 OFFCURVE",
"-35 -212 OFFCURVE",
"11 -212 CURVE SMOOTH"
);
}
);
width = 276;
}
);
leftKerningGroup = j;
rightKerningGroup = j;
unicode = 0237;
},
{
glyphname = k;
layers = (
{
anchors = (
{
name = bottom;
position = "{241, 0}";
}
);
layerId = UUID0;
paths = (
{
closed = 1;
nodes = (
"96 -2 LINE SMOOTH",
"124 -2 OFFCURVE",
"136 6 OFFCURVE",
"138 20 CURVE SMOOTH",
"162 248 LINE",
"166 248 LINE",
"362 11 LINE SMOOTH",
"371 -1 OFFCURVE",
"393 -2 OFFCURVE",
"415 -2 CURVE SMOOTH",
"419 -2 LINE SMOOTH",
"452 -2 OFFCURVE",
"464 1 OFFCURVE",
"464 14 CURVE SMOOTH",
"464 17 OFFCURVE",
"462 21 OFFCURVE",
"457 28 CURVE SMOOTH",
"231 302 LINE",
"229 245 LINE",
"474 492 LINE SMOOTH",
"482 500 OFFCURVE",
"486 508 OFFCURVE",
"486 513 CURVE SMOOTH",
"486 519 OFFCURVE",
"475 525 OFFCURVE",
"452 525 CURVE SMOOTH",
"448 525 LINE SMOOTH",
"426 525 OFFCURVE",
"404 522 OFFCURVE",
"394 511 CURVE SMOOTH",
"170 283 LINE",
"166 283 LINE",
"213 730 LINE",
"213 744 OFFCURVE",
"204 752 OFFCURVE",
"175 752 CURVE SMOOTH",
"171 752 LINE SMOOTH",
"142 752 OFFCURVE",
"130 744 OFFCURVE",
"129 730 CURVE SMOOTH",
"54 20 LINE",
"54 6 OFFCURVE",
"63 -2 OFFCURVE",
"92 -2 CURVE SMOOTH"
);
}
);
width = 521;
},
{
anchors = (
{
name = bottom;
position = "{232, 0}";
}
);
layerId = "DE974D70-A5B4-43AB-B940-69E4F08CB641";
paths = (
{
closed = 1;
nodes = (
"110 -2 LINE SMOOTH",
"152 -2 OFFCURVE",
"171 9 OFFCURVE",
"173 30 CURVE SMOOTH",
"196 246 LINE",
"200 247 LINE",
"315 17 LINE SMOOTH",
"322 2 OFFCURVE",
"344 -2 OFFCURVE",
"373 -2 CURVE SMOOTH",
"415 -2 LINE SMOOTH",
"460 -2 OFFCURVE",
"473 5 OFFCURVE",
"473 16 CURVE SMOOTH",
"473 21 OFFCURVE",
"472 26 OFFCURVE",
"468 34 CURVE SMOOTH",
"301 352 LINE",
"290 239 LINE",
"491 490 LINE SMOOTH",
"498 498 OFFCURVE",
"503 506 OFFCURVE",
"503 511 CURVE SMOOTH",
"503 519 OFFCURVE",
"485 525 OFFCURVE",
"448 525 CURVE SMOOTH",
"411 525 LINE SMOOTH",
"382 525 OFFCURVE",
"361 523 OFFCURVE",
"348 506 CURVE SMOOTH",
"208 325 LINE",
"204 326 LINE",
"246 722 LINE",
"246 743 OFFCURVE",
"232 754 OFFCURVE",
"189 754 CURVE SMOOTH",
"161 754 LINE SMOOTH",
"119 754 OFFCURVE",
"100 743 OFFCURVE",
"98 722 CURVE SMOOTH",
"25 30 LINE",
"25 9 OFFCURVE",
"39 -2 OFFCURVE",
"82 -2 CURVE SMOOTH"
);
}
);
width = 521;
}
);
leftKerningGroup = h;
rightKerningGroup = k;
unicode = 006B;
},
{
glyphname = kgreenlandic;
layers = (
{
layerId = "DE974D70-A5B4-43AB-B940-69E4F08CB641";
paths = (
{
closed = 1;
nodes = (
"137 525 LINE SMOOTH",
"95 525 OFFCURVE",
"76 514 OFFCURVE",
"74 493 CURVE SMOOTH",
"25 30 LINE",
"25 9 OFFCURVE",
"39 -2 OFFCURVE",
"82 -2 CURVE SMOOTH",
"110 -2 LINE SMOOTH",
"152 -2 OFFCURVE",
"171 9 OFFCURVE",
"173 30 CURVE SMOOTH",
"196 246 LINE",
"200 247 LINE",
"315 17 LINE SMOOTH",
"322 2 OFFCURVE",
"344 -2 OFFCURVE",
"373 -2 CURVE SMOOTH",
"415 -2 LINE SMOOTH",
"460 -2 OFFCURVE",
"473 5 OFFCURVE",
"473 16 CURVE SMOOTH",
"473 21 OFFCURVE",
"472 26 OFFCURVE",
"468 34 CURVE SMOOTH",
"332 292 LINE",
"491 490 LINE SMOOTH",
"498 498 OFFCURVE",
"503 506 OFFCURVE",
"503 511 CURVE SMOOTH",
"503 519 OFFCURVE",
"485 525 OFFCURVE",
"448 525 CURVE SMOOTH",
"411 525 LINE SMOOTH",
"382 525 OFFCURVE",
"361 523 OFFCURVE",
"348 506 CURVE SMOOTH",
"208 325 LINE",
"204 326 LINE",
"222 493 LINE",
"222 514 OFFCURVE",
"208 525 OFFCURVE",
"165 525 CURVE SMOOTH"
);
}
);
width = 521;
},
{
layerId = UUID0;
paths = (
{
closed = 1;
nodes = (
"147 526 LINE SMOOTH",
"118 526 OFFCURVE",
"106 518 OFFCURVE",
"105 504 CURVE SMOOTH",
"54 20 LINE",
"54 6 OFFCURVE",
"63 -2 OFFCURVE",
"92 -2 CURVE SMOOTH",
"96 -2 LINE SMOOTH",
"124 -2 OFFCURVE",
"136 6 OFFCURVE",
"138 20 CURVE SMOOTH",
"162 248 LINE",
"166 248 LINE",
"362 11 LINE SMOOTH",
"371 -1 OFFCURVE",
"393 -2 OFFCURVE",
"415 -2 CURVE SMOOTH",
"419 -2 LINE SMOOTH",
"452 -2 OFFCURVE",
"464 1 OFFCURVE",
"464 14 CURVE SMOOTH",
"464 17 OFFCURVE",
"462 21 OFFCURVE",
"457 28 CURVE SMOOTH",
"256 272 LINE",
"474 492 LINE SMOOTH",
"482 500 OFFCURVE",
"486 508 OFFCURVE",
"486 513 CURVE SMOOTH",
"486 519 OFFCURVE",
"475 525 OFFCURVE",
"452 525 CURVE SMOOTH",
"448 525 LINE SMOOTH",
"426 525 OFFCURVE",
"404 522 OFFCURVE",
"394 511 CURVE SMOOTH",
"170 283 LINE",
"166 283 LINE",
"189 504 LINE",
"189 518 OFFCURVE",
"180 526 OFFCURVE",
"151 526 CURVE SMOOTH"
);
}
);
width = 521;
}
);
leftKerningGroup = i;
rightKerningGroup = k;
unicode = 0138;
},
{
glyphname = l;
layers = (
{
anchors = (
{
name = bottom;
position = "{149, 0}";
},
{
name = caron;
position = "{208, 752}";
},
{
name = center;
position = "{279, 335}";
},
{
name = top;
position = "{184, 720}";
}
);
layerId = UUID0;
paths = (
{
closed = 1;
nodes = (
"184 -6 OFFCURVE",
"221 2 OFFCURVE",
"226 27 CURVE SMOOTH",
"230 49 OFFCURVE",
"230 63 OFFCURVE",
"230 64 CURVE SMOOTH",
"230 70 OFFCURVE",
"227 71 OFFCURVE",
"224 71 CURVE SMOOTH",
"218 71 OFFCURVE",
"209 66 OFFCURVE",
"197 66 CURVE SMOOTH",
"163 66 OFFCURVE",
"157 83 OFFCURVE",
"161 122 CURVE SMOOTH",
"225 723 LINE SMOOTH",
"227 743 OFFCURVE",
"219 752 OFFCURVE",
"187 752 CURVE SMOOTH",
"183 752 LINE SMOOTH",
"157 752 OFFCURVE",
"143 746 OFFCURVE",
"141 730 CURVE SMOOTH",
"77 105 LINE SMOOTH",
"69 27 OFFCURVE",
"109 -6 OFFCURVE",
"166 -6 CURVE SMOOTH"
);
}
);
width = 297;
},
{
anchors = (
{
name = bottom;
position = "{149, 0}";
},
{
name = caron;
position = "{223, 752}";
},
{
name = center;
position = "{305, 335}";
},
{
name = top;
position = "{176, 720}";
}
);
layerId = "DE974D70-A5B4-43AB-B940-69E4F08CB641";
paths = (
{
closed = 1;
nodes = (
"189 -8 OFFCURVE",
"236 7 OFFCURVE",
"242 44 CURVE SMOOTH",
"248 79 OFFCURVE",
"249 102 OFFCURVE",
"249 104 CURVE SMOOTH",
"249 113 OFFCURVE",
"247 115 OFFCURVE",
"241 115 CURVE SMOOTH",
"237 115 OFFCURVE",
"226 109 OFFCURVE",
"212 109 CURVE SMOOTH",
"180 109 OFFCURVE",
"176 124 OFFCURVE",
"180 158 CURVE SMOOTH",
"242 721 LINE SMOOTH",
"245 746 OFFCURVE",
"240 755 OFFCURVE",
"196 755 CURVE SMOOTH",
"148 755 LINE SMOOTH",
"111 755 OFFCURVE",
"99 745 OFFCURVE",
"96 725 CURVE SMOOTH",
"35 148 LINE SMOOTH",
"25 54 OFFCURVE",
"42 -8 OFFCURVE",
"154 -8 CURVE SMOOTH"
);
}
);
width = 297;
}
);
leftKerningGroup = l;
rightKerningGroup = l;
unicode = 006C;
},
{
glyphname = lslash;
layers = (
{
components = (
{
name = l;
transform = "{1, 0, 0, 1, 8, 0}";
}
);
layerId = UUID0;
paths = (
{
closed = 1;
nodes = (
"244 426 LINE",
"256 433 OFFCURVE",
"267 441 OFFCURVE",
"267 459 CURVE",
"267 462 LINE",
"267 471 OFFCURVE",
"265 476 OFFCURVE",
"260 476 CURVE SMOOTH",
"257 476 OFFCURVE",
"253 474 OFFCURVE",
"249 472 CURVE",
"71 373 LINE",
"59 367 OFFCURVE",
"48 358 OFFCURVE",
"48 342 CURVE",
"48 337 LINE",
"48 328 OFFCURVE",
"50 323 OFFCURVE",
"55 323 CURVE SMOOTH",
"57 323 OFFCURVE",
"62 325 OFFCURVE",
"66 327 CURVE"
);
}
);
width = 293;
},
{
components = (
{
name = l;
transform = "{1, 0, 0, 1, 9, 0}";
}
);
layerId = "DE974D70-A5B4-43AB-B940-69E4F08CB641";
paths = (
{
closed = 1;
nodes = (
"247 432 LINE",
"264 442 OFFCURVE",
"279 455 OFFCURVE",
"280 492 CURVE",
"280 498 LINE",
"280 510 OFFCURVE",
"278 518 OFFCURVE",
"271 518 CURVE SMOOTH",
"267 518 OFFCURVE",
"262 516 OFFCURVE",
"255 512 CURVE",
"52 397 LINE",
"35 387 OFFCURVE",
"21 374 OFFCURVE",
"19 338 CURVE",
"19 331 LINE",
"19 319 OFFCURVE",
"21 311 OFFCURVE",
"28 311 CURVE SMOOTH",
"32 311 OFFCURVE",
"37 313 OFFCURVE",
"44 317 CURVE"
);
}
);
width = 293;
}
);
leftKerningGroup = l;
unicode = 0142;
},
{
glyphname = m;
layers = (
{
layerId = UUID0;
paths = (
{
closed = 1;
nodes = (
"757 -6 OFFCURVE",
"794 2 OFFCURVE",
"799 27 CURVE SMOOTH",
"803 49 OFFCURVE",
"803 63 OFFCURVE",
"803 64 CURVE SMOOTH",
"803 70 OFFCURVE",
"800 71 OFFCURVE",
"797 71 CURVE SMOOTH",
"791 71 OFFCURVE",
"782 66 OFFCURVE",
"770 66 CURVE SMOOTH",
"754 66 OFFCURVE",
"734 66 OFFCURVE",
"734 107 CURVE SMOOTH",
"734 128 OFFCURVE",
"763 382 OFFCURVE",
"763 399 CURVE SMOOTH",
"763 473 OFFCURVE",
"728 529 OFFCURVE",
"631 529 CURVE SMOOTH",
"569 529 OFFCURVE",
"505 496 OFFCURVE",
"460 421 CURVE",
"453 484 OFFCURVE",
"416 529 OFFCURVE",
"329 529 CURVE SMOOTH",
"261 529 OFFCURVE",
"190 490 OFFCURVE",
"145 398 CURVE",
"158 377 LINE",
"161 400 OFFCURVE",
"162 429 OFFCURVE",
"162 447 CURVE SMOOTH",
"162 475 OFFCURVE",
"156 514 OFFCURVE",
"136 514 CURVE SMOOTH",
"129 514 OFFCURVE",
"80 513 OFFCURVE",
"80 491 CURVE SMOOTH",
"80 485 OFFCURVE",
"81 481 OFFCURVE",
"81 457 CURVE SMOOTH",
"81 446 OFFCURVE",
"79 417 OFFCURVE",
"75 379 CURVE SMOOTH",
"37 19 LINE SMOOTH",
"36 7 OFFCURVE",
"48 -2 OFFCURVE",
"75 -2 CURVE SMOOTH",
"79 -2 LINE SMOOTH",
"105 -2 OFFCURVE",
"119 6 OFFCURVE",
"121 20 CURVE",
"151 307 LINE",
"195 426 OFFCURVE",
"258 456 OFFCURVE",
"299 456 CURVE SMOOTH",
"350 456 OFFCURVE",
"381 426 OFFCURVE",
"375 373 CURVE SMOOTH",
"338 19 LINE SMOOTH",
"338 7 OFFCURVE",
"349 -2 OFFCURVE",
"376 -2 CURVE SMOOTH",
"380 -2 LINE SMOOTH",
"406 -2 OFFCURVE",
"421 6 OFFCURVE",
"422 20 CURVE",
"456 343 LINE",
"438 260 LINE",
"481 417 OFFCURVE",
"555 456 OFFCURVE",
"601 456 CURVE SMOOTH",
"652 456 OFFCURVE",
"677 430 OFFCURVE",
"677 379 CURVE SMOOTH",
"677 360 OFFCURVE",
"649 125 OFFCURVE",
"649 92 CURVE SMOOTH",
"649 24 OFFCURVE",
"682 -6 OFFCURVE",
"739 -6 CURVE SMOOTH"
);
}
);
width = 848;
},
{
layerId = "DE974D70-A5B4-43AB-B940-69E4F08CB641";
paths = (
{
closed = 1;
nodes = (
"767 -8 OFFCURVE",
"814 7 OFFCURVE",
"820 44 CURVE SMOOTH",
"826 79 OFFCURVE",
"827 102 OFFCURVE",
"827 104 CURVE SMOOTH",
"827 113 OFFCURVE",
"825 115 OFFCURVE",
"819 115 CURVE SMOOTH",
"815 115 OFFCURVE",
"804 109 OFFCURVE",
"790 109 CURVE SMOOTH",
"769 109 OFFCURVE",
"760 119 OFFCURVE",
"760 142 CURVE SMOOTH",
"760 159 OFFCURVE",
"785 382 OFFCURVE",
"785 404 CURVE SMOOTH",
"785 491 OFFCURVE",
"742 531 OFFCURVE",
"653 531 CURVE SMOOTH",
"589 531 OFFCURVE",
"524 492 OFFCURVE",
"493 454 CURVE",
"478 506 OFFCURVE",
"436 531 OFFCURVE",
"367 531 CURVE SMOOTH",
"292 531 OFFCURVE",
"214 473 OFFCURVE",
"193 424 CURVE",
"210 397 LINE",
"211 404 OFFCURVE",
"213 420 OFFCURVE",
"213 439 CURVE SMOOTH",
"213 475 OFFCURVE",
"207 520 OFFCURVE",
"180 520 CURVE SMOOTH",
"115 520 OFFCURVE",
"64 506 OFFCURVE",
"64 484 CURVE SMOOTH",
"64 469 OFFCURVE",
"66 452 OFFCURVE",
"66 428 CURVE SMOOTH",
"66 408 OFFCURVE",
"66 402 OFFCURVE",
"60 344 CURVE SMOOTH",
"28 29 LINE SMOOTH",
"26 12 OFFCURVE",
"45 -2 OFFCURVE",
"85 -2 CURVE SMOOTH",
"113 -2 LINE SMOOTH",
"152 -2 OFFCURVE",
"174 9 OFFCURVE",
"176 30 CURVE SMOOTH",
"208 351 LINE",
"227 379 OFFCURVE",
"256 409 OFFCURVE",
"294 409 CURVE SMOOTH",
"333 409 OFFCURVE",
"351 391 OFFCURVE",
"348 359 CURVE SMOOTH",
"315 29 LINE SMOOTH",
"313 13 OFFCURVE",
"332 -2 OFFCURVE",
"372 -2 CURVE SMOOTH",
"400 -2 LINE SMOOTH",
"439 -2 OFFCURVE",
"461 9 OFFCURVE",
"463 30 CURVE SMOOTH",
"500 419 LINE",
"476 320 LINE",
"489 351 OFFCURVE",
"527 409 OFFCURVE",
"580 409 CURVE SMOOTH",
"619 409 OFFCURVE",
"634 391 OFFCURVE",
"634 359 CURVE SMOOTH",
"634 345 OFFCURVE",
"611 143 OFFCURVE",
"611 119 CURVE SMOOTH",
"611 29 OFFCURVE",
"654 -8 OFFCURVE",
"732 -8 CURVE SMOOTH"
);
}
);
width = 848;
}
);
leftKerningGroup = n;
rightKerningGroup = n;
unicode = 006D;
},
{
glyphname = n;
layers = (
{
anchors = (
{
name = bottom;
position = "{239, 0}";
},
{
name = top;
position = "{289, 523}";
}
);
layerId = UUID0;
paths = (
{
closed = 1;
nodes = (
"271 529 OFFCURVE",
"200 495 OFFCURVE",
"142 399 CURVE",
"155 377 LINE",
"159 392 OFFCURVE",
"162 420 OFFCURVE",
"162 447 CURVE SMOOTH",
"162 482 OFFCURVE",
"156 514 OFFCURVE",
"136 514 CURVE SMOOTH",
"129 514 OFFCURVE",
"80 513 OFFCURVE",
"80 491 CURVE SMOOTH",
"80 485 OFFCURVE",
"81 481 OFFCURVE",
"81 457 CURVE SMOOTH",
"81 444 OFFCURVE",
"77 403 OFFCURVE",
"72 351 CURVE",
"37 19 LINE SMOOTH",
"36 7 OFFCURVE",
"48 -2 OFFCURVE",
"75 -2 CURVE SMOOTH",
"79 -2 LINE SMOOTH",
"105 -2 OFFCURVE",
"119 6 OFFCURVE",
"121 20 CURVE",
"150 295 LINE",
"193 424 OFFCURVE",
"265 456 OFFCURVE",
"309 456 CURVE SMOOTH",
"360 456 OFFCURVE",
"385 430 OFFCURVE",
"385 379 CURVE SMOOTH",
"385 365 OFFCURVE",
"369 230 OFFCURVE",
"361 149 CURVE SMOOTH",
"359 122 OFFCURVE",
"357 100 OFFCURVE",
"357 92 CURVE SMOOTH",
"357 24 OFFCURVE",
"390 -6 OFFCURVE",
"447 -6 CURVE SMOOTH",
"465 -6 OFFCURVE",
"502 2 OFFCURVE",
"507 27 CURVE SMOOTH",
"511 49 OFFCURVE",
"511 63 OFFCURVE",
"511 64 CURVE SMOOTH",
"511 70 OFFCURVE",
"508 71 OFFCURVE",
"505 71 CURVE SMOOTH",
"499 71 OFFCURVE",
"490 66 OFFCURVE",
"478 66 CURVE SMOOTH",
"462 66 OFFCURVE",
"442 66 OFFCURVE",
"442 107 CURVE SMOOTH",
"442 128 OFFCURVE",
"471 382 OFFCURVE",
"471 399 CURVE SMOOTH",
"471 473 OFFCURVE",
"436 529 OFFCURVE",
"339 529 CURVE SMOOTH"
);
}
);
width = 557;
},
{
anchors = (
{
name = bottom;
position = "{257, 0}";
},
{
name = top;
position = "{294, 523}";
}
);
layerId = "DE974D70-A5B4-43AB-B940-69E4F08CB641";
paths = (
{
closed = 1;
nodes = (
"286 531 OFFCURVE",
"207 470 OFFCURVE",
"188 423 CURVE",
"204 395 LINE",
"205 406 OFFCURVE",
"207 424 OFFCURVE",
"207 443 CURVE SMOOTH",
"207 480 OFFCURVE",
"201 520 OFFCURVE",
"174 520 CURVE SMOOTH",
"109 520 OFFCURVE",
"58 506 OFFCURVE",
"58 484 CURVE SMOOTH",
"58 469 OFFCURVE",
"60 452 OFFCURVE",
"60 428 CURVE SMOOTH",
"60 413 OFFCURVE",
"60 406 OFFCURVE",
"57 377 CURVE",
"22 29 LINE",
"22 13 OFFCURVE",
"39 -2 OFFCURVE",
"79 -2 CURVE SMOOTH",
"107 -2 LINE SMOOTH",
"146 -2 OFFCURVE",
"168 9 OFFCURVE",
"170 30 CURVE SMOOTH",
"202 348 LINE",
"220 376 OFFCURVE",
"251 409 OFFCURVE",
"290 409 CURVE SMOOTH",
"329 409 OFFCURVE",
"344 391 OFFCURVE",
"344 359 CURVE SMOOTH",
"344 349 OFFCURVE",
"332 241 OFFCURVE",
"325 173 CURVE SMOOTH",
"323 146 OFFCURVE",
"321 126 OFFCURVE",
"321 119 CURVE SMOOTH",
"321 29 OFFCURVE",
"364 -8 OFFCURVE",
"442 -8 CURVE SMOOTH",
"477 -8 OFFCURVE",
"524 7 OFFCURVE",
"530 44 CURVE SMOOTH",
"536 79 OFFCURVE",
"537 102 OFFCURVE",
"537 104 CURVE SMOOTH",
"537 113 OFFCURVE",
"535 115 OFFCURVE",
"529 115 CURVE SMOOTH",
"525 115 OFFCURVE",
"514 109 OFFCURVE",
"500 109 CURVE SMOOTH",
"479 109 OFFCURVE",
"470 119 OFFCURVE",
"470 142 CURVE SMOOTH",
"470 159 OFFCURVE",
"495 382 OFFCURVE",
"495 404 CURVE SMOOTH",
"495 491 OFFCURVE",
"452 531 OFFCURVE",
"363 531 CURVE SMOOTH"
);
}
);
width = 557;
}
);
leftKerningGroup = n;
rightKerningGroup = n;
unicode = 006E;
},
{
glyphname = eng;
layers = (
{
anchors = (
{
name = top;
position = "{289, 523}";
}
);
layerId = UUID0;
paths = (
{
closed = 1;
nodes = (
"341 -212 OFFCURVE",
"410 -190 OFFCURVE",
"422 -74 CURVE SMOOTH",
"471 399 LINE",
"471 473 OFFCURVE",
"436 529 OFFCURVE",
"339 529 CURVE SMOOTH",
"278 529 OFFCURVE",
"216 502 OFFCURVE",
"162 428 CURVE",
"162 485 OFFCURVE",
"157 514 OFFCURVE",
"136 514 CURVE SMOOTH",
"129 514 OFFCURVE",
"80 513 OFFCURVE",
"80 491 CURVE SMOOTH",
"80 485 OFFCURVE",
"81 481 OFFCURVE",
"81 457 CURVE SMOOTH",
"81 446 OFFCURVE",
"79 416 OFFCURVE",
"75 376 CURVE",
"37 19 LINE",
"37 7 OFFCURVE",
"48 -2 OFFCURVE",
"75 -2 CURVE SMOOTH",
"79 -2 LINE SMOOTH",
"105 -2 OFFCURVE",
"119 6 OFFCURVE",
"121 20 CURVE",
"150 295 LINE",
"193 424 OFFCURVE",
"265 456 OFFCURVE",
"309 456 CURVE SMOOTH",
"360 456 OFFCURVE",
"385 430 OFFCURVE",
"385 380 CURVE",
"339 -66 LINE SMOOTH",
"333 -126 OFFCURVE",
"310 -140 OFFCURVE",
"279 -140 CURVE SMOOTH",
"244 -140 OFFCURVE",
"231 -123 OFFCURVE",
"223 -123 CURVE SMOOTH",
"218 -123 OFFCURVE",
"212 -129 OFFCURVE",
"212 -171 CURVE SMOOTH",
"212 -195 OFFCURVE",
"244 -212 OFFCURVE",
"290 -212 CURVE SMOOTH"
);
}
);
width = 557;
},
{
anchors = (
{
name = top;
position = "{294, 523}";
}
);
layerId = "DE974D70-A5B4-43AB-B940-69E4F08CB641";
paths = (
{
closed = 1;
nodes = (
"381 -212 OFFCURVE",
"437 -152 OFFCURVE",
"448 -50 CURVE SMOOTH",
"495 404 LINE",
"495 491 OFFCURVE",
"452 531 OFFCURVE",
"363 531 CURVE SMOOTH",
"302 531 OFFCURVE",
"239 493 OFFCURVE",
"207 453 CURVE",
"206 487 OFFCURVE",
"199 520 OFFCURVE",
"174 520 CURVE SMOOTH",
"109 520 OFFCURVE",
"58 506 OFFCURVE",
"58 484 CURVE SMOOTH",
"58 469 OFFCURVE",
"60 452 OFFCURVE",
"60 428 CURVE SMOOTH",
"60 410 OFFCURVE",
"60 403 OFFCURVE",
"56 357 CURVE",
"22 29 LINE",
"22 13 OFFCURVE",
"39 -2 OFFCURVE",
"79 -2 CURVE SMOOTH",
"107 -2 LINE SMOOTH",
"146 -2 OFFCURVE",
"168 9 OFFCURVE",
"170 30 CURVE",
"202 348 LINE",
"220 376 OFFCURVE",
"251 409 OFFCURVE",
"290 409 CURVE SMOOTH",
"325 409 OFFCURVE",
"341 395 OFFCURVE",
"343 369 CURVE",
"300 -52 LINE SMOOTH",
"297 -82 OFFCURVE",
"285 -95 OFFCURVE",
"260 -95 CURVE SMOOTH",
"240 -95 OFFCURVE",
"230 -90 OFFCURVE",
"225 -90 CURVE SMOOTH",
"216 -90 OFFCURVE",
"207 -110 OFFCURVE",
"207 -173 CURVE SMOOTH",
"207 -211 OFFCURVE",
"255 -212 OFFCURVE",
"285 -212 CURVE SMOOTH"
);
}
);
width = 557;
}
);
leftKerningGroup = n;
unicode = 014B;
},
{
glyphname = o;
layers = (
{
anchors = (
{
name = bottom;
position = "{251, 0}";
},
{
name = horn;
position = "{393, 505}";
},
{
name = ogonek;
position = "{313, 0}";
},
{
name = top;
position = "{305, 523}";
}
);
layerId = UUID0;
paths = (
{
closed = 1;
nodes = (
"412 -6 OFFCURVE",
"510 105 OFFCURVE",
"510 312 CURVE SMOOTH",
"510 453 OFFCURVE",
"440 529 OFFCURVE",
"309 529 CURVE SMOOTH",
"121 529 OFFCURVE",
"45 375 OFFCURVE",
"45 209 CURVE SMOOTH",
"45 69 OFFCURVE",
"116 -6 OFFCURVE",
"252 -6 CURVE SMOOTH"
);
},
{
closed = 1;
nodes = (
"172 66 OFFCURVE",
"131 113 OFFCURVE",
"131 212 CURVE SMOOTH",
"131 362 OFFCURVE",
"188 457 OFFCURVE",
"298 457 CURVE SMOOTH",
"383 457 OFFCURVE",
"423 410 OFFCURVE",
"423 310 CURVE SMOOTH",
"423 151 OFFCURVE",
"364 66 OFFCURVE",
"257 66 CURVE SMOOTH"
);
}
);
width = 569;
},
{
anchors = (
{
name = bottom;
position = "{251, 0}";
},
{
name = horn;
position = "{402, 505}";
},
{
name = ogonek;
position = "{313, 0}";
},
{
name = top;
position = "{294, 523}";
}
);
layerId = "DE974D70-A5B4-43AB-B940-69E4F08CB641";
paths = (
{
closed = 1;
nodes = (
"419 -8 OFFCURVE",
"524 106 OFFCURVE",
"524 311 CURVE SMOOTH",
"524 454 OFFCURVE",
"450 531 OFFCURVE",
"307 531 CURVE SMOOTH",
"98 531 OFFCURVE",
"33 374 OFFCURVE",
"33 211 CURVE SMOOTH",
"33 69 OFFCURVE",
"107 -8 OFFCURVE",
"250 -8 CURVE SMOOTH"
);
},
{
closed = 1;
nodes = (
"208 109 OFFCURVE",
"183 146 OFFCURVE",
"183 218 CURVE SMOOTH",
"183 346 OFFCURVE",
"225 414 OFFCURVE",
"295 414 CURVE SMOOTH",
"349 414 OFFCURVE",
"373 377 OFFCURVE",
"373 304 CURVE SMOOTH",
"373 177 OFFCURVE",
"331 109 OFFCURVE",
"262 109 CURVE SMOOTH"
);
}
);
width = 569;
}
);
leftKerningGroup = o;
rightKerningGroup = o;
unicode = 006F;
},
{
glyphname = ohorn;
layers = (
{
anchors = (
{
name = bottom;
position = "{251, 0}";
},
{
name = ogonek;
position = "{313, 0}";
},
{
name = top;
position = "{305, 523}";
}
);
layerId = UUID0;
paths = (
{
closed = 1;
nodes = (
"412 -6 OFFCURVE",
"510 105 OFFCURVE",
"510 312 CURVE SMOOTH",
"510 383 OFFCURVE",
"492 438 OFFCURVE",
"458 474 CURVE",
"517 484 OFFCURVE",
"550 525 OFFCURVE",
"550 569 CURVE SMOOTH",
"550 597 OFFCURVE",
"538 636 OFFCURVE",
"515 636 CURVE SMOOTH",
"511 636 OFFCURVE",
"507 635 OFFCURVE",
"503 632 CURVE",
"477 616 LINE SMOOTH",
"470 612 OFFCURVE",
"466 606 OFFCURVE",
"466 600 CURVE SMOOTH",
"466 588 OFFCURVE",
"487 568 OFFCURVE",
"487 545 CURVE SMOOTH",
"487 522 OFFCURVE",
"475 505 OFFCURVE",
"444 505 CURVE SMOOTH",
"431 505 OFFCURVE",
"407 512 OFFCURVE",
"390 517 CURVE SMOOTH",
"366 525 OFFCURVE",
"339 529 OFFCURVE",
"309 529 CURVE SMOOTH",
"121 529 OFFCURVE",
"45 375 OFFCURVE",
"45 209 CURVE SMOOTH",
"45 69 OFFCURVE",
"116 -6 OFFCURVE",
"252 -6 CURVE SMOOTH"
);
},
{
closed = 1;
nodes = (
"172 66 OFFCURVE",
"131 113 OFFCURVE",
"131 212 CURVE SMOOTH",
"131 362 OFFCURVE",
"188 457 OFFCURVE",
"298 457 CURVE SMOOTH",
"383 457 OFFCURVE",
"423 410 OFFCURVE",
"423 310 CURVE SMOOTH",
"423 151 OFFCURVE",
"364 66 OFFCURVE",
"257 66 CURVE SMOOTH"
);
}
);
width = 569;
},
{
anchors = (
{
name = bottom;
position = "{251, 0}";
},
{
name = ogonek;
position = "{313, 0}";
},
{
name = top;
position = "{294, 523}";
}
);
layerId = "DE974D70-A5B4-43AB-B940-69E4F08CB641";
paths = (
{
closed = 1;
nodes = (
"419 -8 OFFCURVE",
"524 106 OFFCURVE",
"524 311 CURVE SMOOTH",
"524 376 OFFCURVE",
"509 427 OFFCURVE",
"479 463 CURVE",
"552 471 OFFCURVE",
"592 508 OFFCURVE",
"592 560 CURVE SMOOTH",
"592 586 OFFCURVE",
"580 639 OFFCURVE",
"554 639 CURVE SMOOTH",
"548 639 OFFCURVE",
"543 638 OFFCURVE",
"537 634 CURVE SMOOTH",
"503 612 LINE SMOOTH",
"495 607 OFFCURVE",
"490 600 OFFCURVE",
"490 593 CURVE SMOOTH",
"490 580 OFFCURVE",
"511 563 OFFCURVE",
"511 545 CURVE SMOOTH",
"511 518 OFFCURVE",
"497 505 OFFCURVE",
"468 505 CURVE SMOOTH",
"446 505 OFFCURVE",
"417 513 OFFCURVE",
"402 517 CURVE SMOOTH",
"373 525 OFFCURVE",
"335 531 OFFCURVE",
"307 531 CURVE SMOOTH",
"98 531 OFFCURVE",
"33 374 OFFCURVE",
"33 211 CURVE SMOOTH",
"33 69 OFFCURVE",
"107 -8 OFFCURVE",
"250 -8 CURVE SMOOTH"
);
},
{
closed = 1;
nodes = (
"208 109 OFFCURVE",
"183 146 OFFCURVE",
"183 218 CURVE SMOOTH",
"183 346 OFFCURVE",
"225 414 OFFCURVE",
"295 414 CURVE SMOOTH",
"349 414 OFFCURVE",
"373 377 OFFCURVE",
"373 304 CURVE SMOOTH",
"373 177 OFFCURVE",
"331 109 OFFCURVE",
"262 109 CURVE SMOOTH"
);
}
);
width = 569;
}
);
leftKerningGroup = o;
rightKerningGroup = ohorn;
unicode = 01A1;
},
{
glyphname = oslash;
layers = (
{
anchors = (
{
name = top;
position = "{285, 523}";
}
);
components = (
{
name = o;
transform = "{1, 0, 0, 1, 5, 0}";
}
);
layerId = UUID0;
paths = (
{
closed = 1;
nodes = (
"62 0 OFFCURVE",
"65 2 OFFCURVE",
"69 6 CURVE",
"537 490 LINE",
"540 494 OFFCURVE",
"542 497 OFFCURVE",
"542 501 CURVE SMOOTH",
"542 504 OFFCURVE",
"540 508 OFFCURVE",
"536 512 CURVE SMOOTH",
"534 514 OFFCURVE",
"533 515 OFFCURVE",
"531 517 CURVE SMOOTH",
"527 521 OFFCURVE",
"523 523 OFFCURVE",
"520 523 CURVE SMOOTH",
"516 523 OFFCURVE",
"513 521 OFFCURVE",
"510 517 CURVE",
"42 33 LINE",
"38 29 OFFCURVE",
"37 26 OFFCURVE",
"37 22 CURVE SMOOTH",
"37 19 OFFCURVE",
"39 15 OFFCURVE",
"43 11 CURVE SMOOTH",
"45 9 OFFCURVE",
"46 8 OFFCURVE",
"48 6 CURVE SMOOTH",
"52 2 OFFCURVE",
"55 0 OFFCURVE",
"59 0 CURVE SMOOTH"
);
}
);
width = 569;
},
{
anchors = (
{
name = top;
position = "{285, 523}";
}
);
components = (
{
name = o;
transform = "{1, 0, 0, 1, 6, 0}";
}
);
layerId = "DE974D70-A5B4-43AB-B940-69E4F08CB641";
paths = (
{
closed = 1;
nodes = (
"93 -11 OFFCURVE",
"100 -7 OFFCURVE",
"108 2 CURVE SMOOTH",
"519 480 LINE SMOOTH",
"525 487 OFFCURVE",
"529 494 OFFCURVE",
"529 501 CURVE SMOOTH",
"529 508 OFFCURVE",
"524 515 OFFCURVE",
"516 523 CURVE SMOOTH",
"511 527 OFFCURVE",
"507 531 OFFCURVE",
"502 535 CURVE SMOOTH",
"494 541 OFFCURVE",
"488 545 OFFCURVE",
"481 545 CURVE SMOOTH",
"474 545 OFFCURVE",
"466 540 OFFCURVE",
"459 532 CURVE",
"48 54 LINE",
"41 46 OFFCURVE",
"38 40 OFFCURVE",
"38 33 CURVE SMOOTH",
"38 26 OFFCURVE",
"42 18 OFFCURVE",
"51 11 CURVE SMOOTH",
"56 7 OFFCURVE",
"60 3 OFFCURVE",
"65 -1 CURVE SMOOTH",
"72 -8 OFFCURVE",
"79 -11 OFFCURVE",
"86 -11 CURVE SMOOTH"
);
}
);
width = 569;
}
);
leftKerningGroup = oslash;
rightKerningGroup = oslash;
unicode = 00F8;
},
{
glyphname = oe;
layers = (
{
anchors = (
{
name = top;
position = "{436, 523}";
}
);
components = (
{
name = e;
transform = "{1, 0, 0, 1, 327, 0}";
}
);
layerId = UUID0;
paths = (
{
closed = 1;
nodes = (
"322 -6 OFFCURVE",
"382 11 OFFCURVE",
"425 51 CURVE",
"470 468 LINE",
"430 510 OFFCURVE",
"380 529 OFFCURVE",
"315 529 CURVE SMOOTH",
"127 529 OFFCURVE",
"51 375 OFFCURVE",
"51 209 CURVE SMOOTH",
"51 69 OFFCURVE",
"122 -6 OFFCURVE",
"258 -6 CURVE SMOOTH"
);
},
{
closed = 1;
nodes = (
"178 66 OFFCURVE",
"137 113 OFFCURVE",
"137 212 CURVE SMOOTH",
"137 362 OFFCURVE",
"194 457 OFFCURVE",
"304 457 CURVE SMOOTH",
"389 457 OFFCURVE",
"429 410 OFFCURVE",
"429 310 CURVE SMOOTH",
"429 151 OFFCURVE",
"370 66 OFFCURVE",
"263 66 CURVE SMOOTH"
);
}
);
width = 871;
},
{
anchors = (
{
name = top;
position = "{436, 523}";
}
);
components = (
{
name = e;
transform = "{1, 0, 0, 1, 341, 0}";
}
);
layerId = "DE974D70-A5B4-43AB-B940-69E4F08CB641";
paths = (
{
closed = 1;
nodes = (
"327 -8 OFFCURVE",
"386 15 OFFCURVE",
"432 53 CURVE",
"474 472 LINE",
"438 509 OFFCURVE",
"384 531 OFFCURVE",
"313 531 CURVE SMOOTH",
"104 531 OFFCURVE",
"39 374 OFFCURVE",
"39 211 CURVE SMOOTH",
"39 69 OFFCURVE",
"113 -8 OFFCURVE",
"256 -8 CURVE SMOOTH"
);
},
{
closed = 1;
nodes = (
"214 109 OFFCURVE",
"189 146 OFFCURVE",
"189 218 CURVE SMOOTH",
"189 346 OFFCURVE",
"231 414 OFFCURVE",
"301 414 CURVE SMOOTH",
"355 414 OFFCURVE",
"379 377 OFFCURVE",
"379 304 CURVE SMOOTH",
"379 177 OFFCURVE",
"337 109 OFFCURVE",
"268 109 CURVE SMOOTH"
);
}
);
width = 871;
}
);
leftKerningGroup = o;
rightKerningGroup = e;
unicode = 0153;
},
{
glyphname = p;
layers = (
{
anchors = (
{
name = bottom;
position = "{260, 0}";
},
{
name = top;
position = "{314, 523}";
}
);
layerId = UUID0;
paths = (
{
closed = 1;
nodes = (
"260 529 OFFCURVE",
"194 492 OFFCURVE",
"152 395 CURVE",
"163 378 LINE",
"166 393 OFFCURVE",
"168 419 OFFCURVE",
"168 439 CURVE SMOOTH",
"168 511 OFFCURVE",
"149 514 OFFCURVE",
"142 514 CURVE SMOOTH",
"135 514 OFFCURVE",
"86 513 OFFCURVE",
"86 491 CURVE SMOOTH",
"86 485 OFFCURVE",
"87 481 OFFCURVE",
"87 457 CURVE SMOOTH",
"87 448 OFFCURVE",
"85 421 OFFCURVE",
"81 383 CURVE",
"22 -187 LINE",
"22 -199 OFFCURVE",
"33 -208 OFFCURVE",
"60 -208 CURVE SMOOTH",
"64 -208 LINE SMOOTH",
"89 -208 OFFCURVE",
"104 -200 OFFCURVE",
"106 -186 CURVE SMOOTH",
"130 47 LINE",
"152 27 OFFCURVE",
"198 -6 OFFCURVE",
"265 -6 CURVE SMOOTH",
"418 -6 OFFCURVE",
"516 129 OFFCURVE",
"516 318 CURVE SMOOTH",
"516 488 OFFCURVE",
"402 529 OFFCURVE",
"329 529 CURVE SMOOTH"
);
},
{
closed = 1;
nodes = (
"376 456 OFFCURVE",
"429 422 OFFCURVE",
"429 312 CURVE SMOOTH",
"429 190 OFFCURVE",
"394 66 OFFCURVE",
"253 66 CURVE SMOOTH",
"194 66 OFFCURVE",
"153 97 OFFCURVE",
"137 111 CURVE",
"155 290 LINE",
"197 419 OFFCURVE",
"265 456 OFFCURVE",
"310 456 CURVE SMOOTH"
);
}
);
width = 573;
},
{
anchors = (
{
name = bottom;
position = "{260, 0}";
},
{
name = top;
position = "{314, 523}";
}
);
layerId = "DE974D70-A5B4-43AB-B940-69E4F08CB641";
paths = (
{
closed = 1;
nodes = (
"276 531 OFFCURVE",
"218 479 OFFCURVE",
"198 423 CURVE",
"212 404 LINE",
"215 420 OFFCURVE",
"217 440 OFFCURVE",
"217 458 CURVE SMOOTH",
"217 488 OFFCURVE",
"211 520 OFFCURVE",
"185 520 CURVE SMOOTH",
"120 520 OFFCURVE",
"69 506 OFFCURVE",
"69 484 CURVE SMOOTH",
"69 469 OFFCURVE",
"71 452 OFFCURVE",
"71 428 CURVE SMOOTH",
"71 411 OFFCURVE",
"70 386 OFFCURVE",
"67 357 CURVE SMOOTH",
"11 -175 LINE",
"11 -191 OFFCURVE",
"28 -206 OFFCURVE",
"68 -206 CURVE SMOOTH",
"96 -206 LINE SMOOTH",
"135 -206 OFFCURVE",
"157 -195 OFFCURVE",
"159 -174 CURVE",
"181 32 LINE",
"205 13 OFFCURVE",
"241 -8 OFFCURVE",
"288 -8 CURVE SMOOTH",
"428 -8 OFFCURVE",
"525 122 OFFCURVE",
"525 314 CURVE SMOOTH",
"525 455 OFFCURVE",
"454 531 OFFCURVE",
"348 531 CURVE SMOOTH"
);
},
{
closed = 1;
nodes = (
"347 410 OFFCURVE",
"375 374 OFFCURVE",
"375 305 CURVE SMOOTH",
"375 177 OFFCURVE",
"330 109 OFFCURVE",
"254 109 CURVE SMOOTH",
"228 109 OFFCURVE",
"207 119 OFFCURVE",
"191 132 CURVE",
"212 349 LINE",
"232 382 OFFCURVE",
"258 410 OFFCURVE",
"292 410 CURVE SMOOTH"
);
}
);
width = 573;
}
);
leftKerningGroup = p;
rightKerningGroup = p;
unicode = 0070;
},
{
glyphname = thorn;
layers = (
{
layerId = UUID0;
paths = (
{
closed = 1;
nodes = (
"78 -208 LINE SMOOTH",
"101 -208 OFFCURVE",
"118 -200 OFFCURVE",
"120 -186 CURVE SMOOTH",
"144 45 LINE",
"167 25 OFFCURVE",
"213 -6 OFFCURVE",
"277 -6 CURVE SMOOTH",
"421 -6 OFFCURVE",
"513 127 OFFCURVE",
"513 313 CURVE SMOOTH",
"513 487 OFFCURVE",
"408 529 OFFCURVE",
"341 529 CURVE SMOOTH",
"283 529 OFFCURVE",
"227 502 OFFCURVE",
"186 436 CURVE",
"217 731 LINE",
"217 743 OFFCURVE",
"206 752 OFFCURVE",
"179 752 CURVE SMOOTH",
"175 752 LINE SMOOTH",
"150 752 OFFCURVE",
"134 744 OFFCURVE",
"133 730 CURVE SMOOTH",
"36 -187 LINE",
"36 -199 OFFCURVE",
"47 -208 OFFCURVE",
"74 -208 CURVE SMOOTH"
);
},
{
closed = 1;
nodes = (
"208 66 OFFCURVE",
"169 94 OFFCURVE",
"151 110 CURVE",
"172 305 LINE",
"214 423 OFFCURVE",
"278 456 OFFCURVE",
"322 456 CURVE SMOOTH",
"379 456 OFFCURVE",
"426 421 OFFCURVE",
"426 307 CURVE SMOOTH",
"426 187 OFFCURVE",
"394 66 OFFCURVE",
"265 66 CURVE SMOOTH"
);
}
);
width = 571;
},
{
layerId = "DE974D70-A5B4-43AB-B940-69E4F08CB641";
paths = (
{
closed = 1;
nodes = (
"108 -206 LINE SMOOTH",
"147 -206 OFFCURVE",
"169 -195 OFFCURVE",
"171 -174 CURVE SMOOTH",
"193 32 LINE",
"216 13 OFFCURVE",
"253 -8 OFFCURVE",
"300 -8 CURVE SMOOTH",
"431 -8 OFFCURVE",
"522 122 OFFCURVE",
"522 314 CURVE SMOOTH",
"522 455 OFFCURVE",
"457 531 OFFCURVE",
"360 531 CURVE SMOOTH",
"311 531 OFFCURVE",
"269 508 OFFCURVE",
"240 475 CURVE",
"266 723 LINE",
"266 739 OFFCURVE",
"249 754 OFFCURVE",
"209 754 CURVE SMOOTH",
"181 754 LINE SMOOTH",
"142 754 OFFCURVE",
"120 743 OFFCURVE",
"118 722 CURVE SMOOTH",
"23 -175 LINE",
"23 -191 OFFCURVE",
"40 -206 OFFCURVE",
"80 -206 CURVE SMOOTH"
);
},
{
closed = 1;
nodes = (
"240 109 OFFCURVE",
"219 119 OFFCURVE",
"203 132 CURVE",
"227 354 LINE",
"247 385 OFFCURVE",
"272 410 OFFCURVE",
"304 410 CURVE SMOOTH",
"350 410 OFFCURVE",
"372 374 OFFCURVE",
"372 305 CURVE SMOOTH",
"372 177 OFFCURVE",
"333 109 OFFCURVE",
"266 109 CURVE SMOOTH"
);
}
);
width = 571;
}
);
rightMetricsKey = p;
unicode = 00FE;
},
{
glyphname = q;
layers = (
{
layerId = UUID0;
paths = (
{
closed = 1;
nodes = (
"149 529 OFFCURVE",
"45 396 OFFCURVE",
"45 210 CURVE SMOOTH",
"45 36 OFFCURVE",
"159 -6 OFFCURVE",
"232 -6 CURVE SMOOTH",
"291 -6 OFFCURVE",
"349 24 OFFCURVE",
"391 98 CURVE",
"362 -186 LINE",
"362 -201 OFFCURVE",
"372 -208 OFFCURVE",
"400 -208 CURVE SMOOTH",
"404 -208 LINE SMOOTH",
"430 -208 OFFCURVE",
"444 -202 OFFCURVE",
"446 -186 CURVE SMOOTH",
"518 503 LINE",
"518 517 OFFCURVE",
"513 525 OFFCURVE",
"493 525 CURVE SMOOTH",
"485 525 LINE SMOOTH",
"473 525 OFFCURVE",
"464 518 OFFCURVE",
"457 508 CURVE SMOOTH",
"451 499 OFFCURVE",
"446 487 OFFCURVE",
"443 475 CURVE",
"420 497 OFFCURVE",
"374 529 OFFCURVE",
"310 529 CURVE SMOOTH"
);
},
{
closed = 1;
nodes = (
"383 456 OFFCURVE",
"423 422 OFFCURVE",
"437 408 CURVE",
"431 438 LINE",
"427 419 OFFCURVE",
"422 394 OFFCURVE",
"419 367 CURVE",
"405 233 LINE",
"363 103 OFFCURVE",
"296 67 OFFCURVE",
"251 67 CURVE SMOOTH",
"185 67 OFFCURVE",
"132 102 OFFCURVE",
"132 216 CURVE SMOOTH",
"132 336 OFFCURVE",
"169 456 OFFCURVE",
"318 456 CURVE SMOOTH"
);
}
);
width = 566;
},
{
layerId = "DE974D70-A5B4-43AB-B940-69E4F08CB641";
paths = (
{
closed = 1;
nodes = (
"128 531 OFFCURVE",
"31 401 OFFCURVE",
"31 209 CURVE SMOOTH",
"31 68 OFFCURVE",
"102 -8 OFFCURVE",
"208 -8 CURVE SMOOTH",
"258 -8 OFFCURVE",
"299 15 OFFCURVE",
"328 49 CURVE",
"305 -175 LINE",
"305 -191 OFFCURVE",
"322 -206 OFFCURVE",
"362 -206 CURVE SMOOTH",
"390 -206 LINE SMOOTH",
"429 -206 OFFCURVE",
"451 -195 OFFCURVE",
"453 -174 CURVE SMOOTH",
"524 500 LINE",
"524 516 OFFCURVE",
"506 525 OFFCURVE",
"466 525 CURVE SMOOTH",
"454 525 LINE SMOOTH",
"424 524 OFFCURVE",
"410 520 OFFCURVE",
"402 510 CURVE SMOOTH",
"397 503 OFFCURVE",
"393 493 OFFCURVE",
"389 479 CURVE",
"367 500 OFFCURVE",
"325 531 OFFCURVE",
"268 531 CURVE SMOOTH"
);
},
{
closed = 1;
nodes = (
"348 414 OFFCURVE",
"375 382 OFFCURVE",
"392 362 CURVE",
"376 455 LINE",
"369 403 OFFCURVE",
"362 352 OFFCURVE",
"355 300 CURVE",
"341 169 LINE",
"321 139 OFFCURVE",
"296 113 OFFCURVE",
"264 113 CURVE SMOOTH",
"209 113 OFFCURVE",
"181 149 OFFCURVE",
"181 218 CURVE SMOOTH",
"181 346 OFFCURVE",
"226 414 OFFCURVE",
"302 414 CURVE SMOOTH"
);
}
);
width = 566;
}
);
leftKerningGroup = d;
unicode = 0071;
},
{
glyphname = r;
layers = (
{
anchors = (
{
name = bottom;
position = "{103, 0}";
},
{
name = top;
position = "{163, 523}";
}
);
layerId = UUID0;
paths = (
{
closed = 1;
nodes = (
"104 -2 LINE SMOOTH",
"130 -2 OFFCURVE",
"144 6 OFFCURVE",
"146 20 CURVE SMOOTH",
"174 288 LINE",
"201 387 OFFCURVE",
"249 446 OFFCURVE",
"301 446 CURVE SMOOTH",
"327 446 OFFCURVE",
"332 435 OFFCURVE",
"340 435 CURVE SMOOTH",
"352 435 OFFCURVE",
"369 466 OFFCURVE",
"369 491 CURVE SMOOTH",
"369 522 OFFCURVE",
"339 529 OFFCURVE",
"319 529 CURVE SMOOTH",
"260 529 OFFCURVE",
"203 479 OFFCURVE",
"173 400 CURVE",
"179 387 LINE",
"182 404 OFFCURVE",
"188 436 OFFCURVE",
"188 464 CURVE SMOOTH",
"188 491 OFFCURVE",
"182 514 OFFCURVE",
"161 514 CURVE SMOOTH",
"154 514 OFFCURVE",
"105 513 OFFCURVE",
"105 491 CURVE SMOOTH",
"105 482 OFFCURVE",
"106 475 OFFCURVE",
"106 457 CURVE SMOOTH",
"106 433 OFFCURVE",
"102 389 OFFCURVE",
"100 373 CURVE SMOOTH",
"62 19 LINE SMOOTH",
"62 7 OFFCURVE",
"73 -2 OFFCURVE",
"100 -2 CURVE SMOOTH"
);
}
);
width = 366;
},
{
anchors = (
{
name = bottom;
position = "{112, 0}";
},
{
name = top;
position = "{169, 523}";
}
);
layerId = "DE974D70-A5B4-43AB-B940-69E4F08CB641";
paths = (
{
closed = 1;
nodes = (
"112 -2 LINE SMOOTH",
"151 -2 OFFCURVE",
"173 9 OFFCURVE",
"175 30 CURVE SMOOTH",
"207 350 LINE",
"231 382 OFFCURVE",
"263 401 OFFCURVE",
"294 401 CURVE SMOOTH",
"318 401 OFFCURVE",
"325 392 OFFCURVE",
"335 392 CURVE SMOOTH",
"349 392 OFFCURVE",
"375 452 OFFCURVE",
"375 485 CURVE SMOOTH",
"375 500 OFFCURVE",
"372 531 OFFCURVE",
"328 531 CURVE SMOOTH",
"253 531 OFFCURVE",
"216 464 OFFCURVE",
"190 423 CURVE",
"208 392 LINE",
"209 402 OFFCURVE",
"212 423 OFFCURVE",
"212 444 CURVE SMOOTH",
"212 480 OFFCURVE",
"205 520 OFFCURVE",
"179 520 CURVE SMOOTH",
"114 520 OFFCURVE",
"63 506 OFFCURVE",
"63 484 CURVE SMOOTH",
"63 469 OFFCURVE",
"65 452 OFFCURVE",
"65 428 CURVE SMOOTH",
"65 411 OFFCURVE",
"64 386 OFFCURVE",
"61 357 CURVE SMOOTH",
"27 29 LINE SMOOTH",
"27 13 OFFCURVE",
"44 -2 OFFCURVE",
"84 -2 CURVE SMOOTH"
);
}
);
width = 366;
}
);
leftKerningGroup = r;
rightKerningGroup = r;
unicode = 0072;
},
{
glyphname = s;
layers = (
{
anchors = (
{
name = bottom;
position = "{187, 0}";
},
{
name = top;
position = "{227, 523}";
}
);
layerId = UUID0;
paths = (
{
closed = 1;
nodes = (
"282 -6 OFFCURVE",
"356 67 OFFCURVE",
"356 165 CURVE SMOOTH",
"356 254 OFFCURVE",
"294 278 OFFCURVE",
"234 301 CURVE SMOOTH",
"190 318 OFFCURVE",
"141 338 OFFCURVE",
"141 389 CURVE SMOOTH",
"141 432 OFFCURVE",
"176 457 OFFCURVE",
"234 457 CURVE SMOOTH",
"290 457 OFFCURVE",
"314 433 OFFCURVE",
"324 433 CURVE SMOOTH",
"336 433 OFFCURVE",
"359 465 OFFCURVE",
"359 483 CURVE SMOOTH",
"359 515 OFFCURVE",
"282 529 OFFCURVE",
"232 529 CURVE SMOOTH",
"135 529 OFFCURVE",
"53 475 OFFCURVE",
"53 375 CURVE SMOOTH",
"53 282 OFFCURVE",
"123 254 OFFCURVE",
"180 234 CURVE SMOOTH",
"228 217 OFFCURVE",
"270 201 OFFCURVE",
"270 150 CURVE SMOOTH",
"270 96 OFFCURVE",
"223 66 OFFCURVE",
"162 66 CURVE SMOOTH",
"92 66 OFFCURVE",
"53 105 OFFCURVE",
"43 105 CURVE SMOOTH",
"36 105 OFFCURVE",
"27 83 OFFCURVE",
"27 64 CURVE SMOOTH",
"27 1 OFFCURVE",
"132 -6 OFFCURVE",
"167 -6 CURVE SMOOTH"
);
}
);
width = 413;
},
{
anchors = (
{
name = bottom;
position = "{187, 0}";
},
{
name = top;
position = "{227, 523}";
}
);
layerId = "DE974D70-A5B4-43AB-B940-69E4F08CB641";
paths = (
{
closed = 1;
nodes = (
"285 -8 OFFCURVE",
"372 62 OFFCURVE",
"372 185 CURVE SMOOTH",
"372 262 OFFCURVE",
"323 291 OFFCURVE",
"276 311 CURVE SMOOTH",
"234 329 OFFCURVE",
"194 339 OFFCURVE",
"194 378 CURVE SMOOTH",
"194 403 OFFCURVE",
"215 415 OFFCURVE",
"251 415 CURVE SMOOTH",
"302 415 OFFCURVE",
"320 395 OFFCURVE",
"333 395 CURVE SMOOTH",
"353 395 OFFCURVE",
"386 451 OFFCURVE",
"386 470 CURVE SMOOTH",
"386 518 OFFCURVE",
"295 531 OFFCURVE",
"240 531 CURVE SMOOTH",
"127 531 OFFCURVE",
"42 468 OFFCURVE",
"42 349 CURVE SMOOTH",
"42 264 OFFCURVE",
"91 237 OFFCURVE",
"137 218 CURVE SMOOTH",
"180 201 OFFCURVE",
"220 191 OFFCURVE",
"220 156 CURVE SMOOTH",
"220 126 OFFCURVE",
"198 109 OFFCURVE",
"154 109 CURVE SMOOTH",
"95 109 OFFCURVE",
"53 143 OFFCURVE",
"44 143 CURVE SMOOTH",
"38 143 OFFCURVE",
"22 140 OFFCURVE",
"22 53 CURVE SMOOTH",
"22 -1 OFFCURVE",
"135 -8 OFFCURVE",
"166 -8 CURVE SMOOTH"
);
}
);
width = 413;
}
);
leftKerningGroup = s;
rightKerningGroup = s;
unicode = 0073;
},
{
glyphname = germandbls;
layers = (
{
layerId = UUID0;
paths = (
{
closed = 1;
nodes = (
"96 -2 LINE SMOOTH",
"124 -2 OFFCURVE",
"136 6 OFFCURVE",
"138 20 CURVE SMOOTH",
"191 521 LINE SMOOTH",
"198 591 OFFCURVE",
"246 634 OFFCURVE",
"314 634 CURVE SMOOTH",
"363 634 OFFCURVE",
"415 617 OFFCURVE",
"415 545 CURVE SMOOTH",
"415 472 OFFCURVE",
"352 412 OFFCURVE",
"283 412 CURVE SMOOTH",
"271 412 LINE SMOOTH",
"251 412 OFFCURVE",
"247 387 OFFCURVE",
"246 373 CURVE",
"246 367 LINE",
"246 351 OFFCURVE",
"249 340 OFFCURVE",
"263 340 CURVE SMOOTH",
"298 340 LINE SMOOTH",
"362 340 OFFCURVE",
"411 297 OFFCURVE",
"411 225 CURVE SMOOTH",
"411 128 OFFCURVE",
"344 72 OFFCURVE",
"270 72 CURVE SMOOTH",
"235 72 LINE SMOOTH",
"213 72 OFFCURVE",
"210 45 OFFCURVE",
"210 31 CURVE",
"210 27 LINE",
"210 11 OFFCURVE",
"213 0 OFFCURVE",
"227 0 CURVE SMOOTH",
"261 0 LINE SMOOTH",
"385 0 OFFCURVE",
"499 81 OFFCURVE",
"499 230 CURVE SMOOTH",
"499 305 OFFCURVE",
"461 366 OFFCURVE",
"386 384 CURVE",
"386 387 LINE",
"463 418 OFFCURVE",
"505 496 OFFCURVE",
"505 561 CURVE SMOOTH",
"505 669 OFFCURVE",
"425 706 OFFCURVE",
"324 706 CURVE SMOOTH",
"205 706 OFFCURVE",
"118 630 OFFCURVE",
"107 521 CURVE SMOOTH",
"54 20 LINE",
"54 6 OFFCURVE",
"63 -2 OFFCURVE",
"92 -2 CURVE SMOOTH"
);
}
);
width = 554;
},
{
layerId = "DE974D70-A5B4-43AB-B940-69E4F08CB641";
paths = (
{
closed = 1;
nodes = (
"108 -2 LINE SMOOTH",
"150 -2 OFFCURVE",
"169 9 OFFCURVE",
"171 30 CURVE SMOOTH",
"221 502 LINE SMOOTH",
"226 549 OFFCURVE",
"260 583 OFFCURVE",
"309 583 CURVE SMOOTH",
"358 583 OFFCURVE",
"374 547 OFFCURVE",
"374 518 CURVE SMOOTH",
"374 468 OFFCURVE",
"333 428 OFFCURVE",
"284 428 CURVE",
"282 428 LINE",
"254 428 OFFCURVE",
"245 396 OFFCURVE",
"244 353 CURVE",
"244 347 LINE",
"244 322 OFFCURVE",
"252 311 OFFCURVE",
"270 311 CURVE",
"273 311 LINE",
"338 310 OFFCURVE",
"368 276 OFFCURVE",
"368 225 CURVE SMOOTH",
"368 161 OFFCURVE",
"326 117 OFFCURVE",
"265 117 CURVE SMOOTH",
"250 117 LINE SMOOTH",
"222 117 OFFCURVE",
"213 85 OFFCURVE",
"212 41 CURVE",
"212 36 LINE",
"212 11 OFFCURVE",
"220 0 OFFCURVE",
"238 0 CURVE SMOOTH",
"261 0 LINE SMOOTH",
"419 0 OFFCURVE",
"518 105 OFFCURVE",
"518 239 CURVE SMOOTH",
"518 308 OFFCURVE",
"488 355 OFFCURVE",
"418 383 CURVE",
"418 387 LINE",
"487 414 OFFCURVE",
"527 475 OFFCURVE",
"527 550 CURVE SMOOTH",
"527 649 OFFCURVE",
"442 708 OFFCURVE",
"324 708 CURVE SMOOTH",
"191 708 OFFCURVE",
"86 623 OFFCURVE",
"72 490 CURVE SMOOTH",
"23 30 LINE",
"23 9 OFFCURVE",
"37 -2 OFFCURVE",
"80 -2 CURVE SMOOTH"
);
}
);
width = 554;
}
);
unicode = 00DF;
},
{
glyphname = longs;
layers = (
{
layerId = "DE974D70-A5B4-43AB-B940-69E4F08CB641";
paths = (
{
closed = 1;
nodes = (
"126 -2 LINE SMOOTH",
"165 -2 OFFCURVE",
"187 9 OFFCURVE",
"189 30 CURVE",
"249 600 LINE",
"252 629 OFFCURVE",
"263 643 OFFCURVE",
"289 643 CURVE SMOOTH",
"309 643 OFFCURVE",
"314 638 OFFCURVE",
"322 638 CURVE SMOOTH",
"339 638 OFFCURVE",
"359 697 OFFCURVE",
"359 714 CURVE SMOOTH",
"359 752 OFFCURVE",
"311 760 OFFCURVE",
"263 760 CURVE SMOOTH",
"168 760 OFFCURVE",
"109 700 OFFCURVE",
"100 598 CURVE SMOOTH",
"93 523 LINE",
"72 523 LINE SMOOTH",
"44 523 OFFCURVE",
"35 490 OFFCURVE",
"34 447 CURVE",
"34 442 LINE",
"34 417 OFFCURVE",
"42 406 OFFCURVE",
"60 406 CURVE SMOOTH",
"80 406 LINE",
"41 29 LINE",
"41 13 OFFCURVE",
"58 -2 OFFCURVE",
"98 -2 CURVE SMOOTH"
);
}
);
width = 325;
},
{
layerId = UUID0;
paths = (
{
closed = 1;
nodes = (
"114 -2 LINE SMOOTH",
"140 -2 OFFCURVE",
"154 5 OFFCURVE",
"156 20 CURVE",
"218 614 LINE",
"224 674 OFFCURVE",
"247 684 OFFCURVE",
"278 684 CURVE SMOOTH",
"308 684 OFFCURVE",
"319 677 OFFCURVE",
"323 677 CURVE SMOOTH",
"335 677 OFFCURVE",
"349 714 OFFCURVE",
"349 725 CURVE SMOOTH",
"349 755 OFFCURVE",
"295 756 OFFCURVE",
"278 756 CURVE SMOOTH",
"225 756 OFFCURVE",
"146 740 OFFCURVE",
"135 624 CURVE SMOOTH",
"125 523 LINE",
"85 523 LINE SMOOTH",
"63 523 OFFCURVE",
"60 495 OFFCURVE",
"60 481 CURVE",
"60 478 LINE",
"60 462 OFFCURVE",
"63 451 OFFCURVE",
"77 451 CURVE SMOOTH",
"117 451 LINE",
"72 20 LINE",
"72 5 OFFCURVE",
"82 -2 OFFCURVE",
"110 -2 CURVE SMOOTH"
);
}
);
width = 325;
}
);
rightKerningGroup = f;
unicode = 017F;
},
{
glyphname = t;
layers = (
{
anchors = (
{
name = bottom;
position = "{161, 0}";
},
{
name = caron;
position = "{232, 752}";
},
{
name = center;
position = "{173, 292}";
}
);
layerId = UUID0;
paths = (
{
closed = 1;
nodes = (
"226 -6 OFFCURVE",
"259 2 OFFCURVE",
"265 27 CURVE SMOOTH",
"269 44 OFFCURVE",
"270 63 OFFCURVE",
"270 64 CURVE SMOOTH",
"270 71 OFFCURVE",
"266 73 OFFCURVE",
"263 73 CURVE SMOOTH",
"256 73 OFFCURVE",
"249 66 OFFCURVE",
"218 66 CURVE SMOOTH",
"192 66 OFFCURVE",
"170 77 OFFCURVE",
"170 123 CURVE SMOOTH",
"170 143 OFFCURVE",
"204 451 OFFCURVE",
"204 451 CURVE",
"268 451 LINE SMOOTH",
"306 451 OFFCURVE",
"313 500 OFFCURVE",
"313 504 CURVE SMOOTH",
"313 518 OFFCURVE",
"309 523 OFFCURVE",
"297 523 CURVE SMOOTH",
"212 523 LINE",
"223 628 LINE",
"223 643 OFFCURVE",
"213 650 OFFCURVE",
"185 650 CURVE SMOOTH",
"181 650 LINE SMOOTH",
"155 650 OFFCURVE",
"142 644 OFFCURVE",
"140 628 CURVE SMOOTH",
"128 523 LINE",
"78 523 LINE SMOOTH",
"54 523 OFFCURVE",
"53 489 OFFCURVE",
"53 478 CURVE SMOOTH",
"53 462 OFFCURVE",
"56 451 OFFCURVE",
"70 451 CURVE SMOOTH",
"120 451 LINE",
"120 451 OFFCURVE",
"85 134 OFFCURVE",
"85 104 CURVE SMOOTH",
"85 8 OFFCURVE",
"152 -6 OFFCURVE",
"197 -6 CURVE SMOOTH"
);
}
);
width = 342;
},
{
anchors = (
{
name = bottom;
position = "{161, 0}";
},
{
name = caron;
position = "{241, 752}";
},
{
name = center;
position = "{156, 292}";
}
);
layerId = "DE974D70-A5B4-43AB-B940-69E4F08CB641";
paths = (
{
closed = 1;
nodes = (
"221 -8 OFFCURVE",
"268 7 OFFCURVE",
"274 44 CURVE SMOOTH",
"280 79 OFFCURVE",
"281 102 OFFCURVE",
"281 104 CURVE SMOOTH",
"281 113 OFFCURVE",
"279 115 OFFCURVE",
"273 115 CURVE SMOOTH",
"268 115 OFFCURVE",
"254 109 OFFCURVE",
"235 109 CURVE SMOOTH",
"214 109 OFFCURVE",
"205 119 OFFCURVE",
"205 142 CURVE SMOOTH",
"205 145 OFFCURVE",
"233 406 OFFCURVE",
"233 406 CURVE",
"262 406 LINE SMOOTH",
"301 406 OFFCURVE",
"320 466 OFFCURVE",
"320 503 CURVE SMOOTH",
"320 517 OFFCURVE",
"318 523 OFFCURVE",
"304 523 CURVE SMOOTH",
"245 523 LINE",
"255 619 LINE",
"255 635 OFFCURVE",
"238 650 OFFCURVE",
"198 650 CURVE SMOOTH",
"170 650 LINE SMOOTH",
"131 650 OFFCURVE",
"109 639 OFFCURVE",
"107 618 CURVE SMOOTH",
"97 523 LINE",
"77 523 LINE SMOOTH",
"48 523 OFFCURVE",
"39 488 OFFCURVE",
"39 442 CURVE SMOOTH",
"39 417 OFFCURVE",
"47 406 OFFCURVE",
"65 406 CURVE SMOOTH",
"85 406 LINE",
"85 406 OFFCURVE",
"56 147 OFFCURVE",
"56 125 CURVE SMOOTH",
"56 32 OFFCURVE",
"106 -8 OFFCURVE",
"186 -8 CURVE SMOOTH"
);
}
);
width = 342;
}
);
leftKerningGroup = t;
rightKerningGroup = t;
unicode = 0074;
},
{
glyphname = u;
layers = (
{
anchors = (
{
name = bottom;
position = "{231, 0}";
},
{
name = horn;
position = "{444, 525}";
},
{
name = ogonek;
position = "{487, 0}";
},
{
name = top;
position = "{299, 523}";
}
);
layerId = UUID0;
paths = (
{
closed = 1;
nodes = (
"257 -6 OFFCURVE",
"329 30 OFFCURVE",
"385 132 CURVE",
"367 141 LINE",
"367 92 LINE SMOOTH",
"367 24 OFFCURVE",
"400 -6 OFFCURVE",
"457 -6 CURVE SMOOTH",
"475 -6 OFFCURVE",
"512 2 OFFCURVE",
"517 27 CURVE SMOOTH",
"521 49 OFFCURVE",
"521 63 OFFCURVE",
"521 64 CURVE SMOOTH",
"521 70 OFFCURVE",
"518 71 OFFCURVE",
"515 71 CURVE SMOOTH",
"509 71 OFFCURVE",
"500 66 OFFCURVE",
"488 66 CURVE SMOOTH",
"472 66 OFFCURVE",
"452 66 OFFCURVE",
"452 107 CURVE SMOOTH",
"452 121 OFFCURVE",
"461 212 OFFCURVE",
"470 303 CURVE SMOOTH",
"476 366 OFFCURVE",
"485 452 OFFCURVE",
"491 503 CURVE",
"491 518 OFFCURVE",
"481 525 OFFCURVE",
"453 525 CURVE SMOOTH",
"449 525 LINE SMOOTH",
"423 525 OFFCURVE",
"409 519 OFFCURVE",
"407 503 CURVE",
"379 237 LINE",
"336 100 OFFCURVE",
"263 67 OFFCURVE",
"219 67 CURVE SMOOTH",
"152 67 OFFCURVE",
"138 103 OFFCURVE",
"145 173 CURVE SMOOTH",
"179 503 LINE SMOOTH",
"179 518 OFFCURVE",
"169 525 OFFCURVE",
"141 525 CURVE SMOOTH",
"137 525 LINE SMOOTH",
"111 525 OFFCURVE",
"97 519 OFFCURVE",
"95 503 CURVE SMOOTH",
"60 161 LINE SMOOTH",
"50 56 OFFCURVE",
"82 -6 OFFCURVE",
"189 -6 CURVE SMOOTH"
);
}
);
width = 557;
},
{
anchors = (
{
name = bottom;
position = "{231, 0}";
},
{
name = horn;
position = "{416, 525}";
},
{
name = ogonek;
position = "{482, 0}";
},
{
name = top;
position = "{294, 523}";
}
);
layerId = "DE974D70-A5B4-43AB-B940-69E4F08CB641";
paths = (
{
closed = 1;
nodes = (
"240 -8 OFFCURVE",
"315 52 OFFCURVE",
"341 102 CURVE",
"316 126 LINE",
"316 118 LINE",
"315 29 OFFCURVE",
"358 -8 OFFCURVE",
"436 -8 CURVE SMOOTH",
"471 -8 OFFCURVE",
"518 7 OFFCURVE",
"524 44 CURVE SMOOTH",
"530 79 OFFCURVE",
"531 102 OFFCURVE",
"531 104 CURVE SMOOTH",
"531 113 OFFCURVE",
"529 115 OFFCURVE",
"523 115 CURVE SMOOTH",
"519 115 OFFCURVE",
"508 109 OFFCURVE",
"494 109 CURVE SMOOTH",
"473 109 OFFCURVE",
"464 119 OFFCURVE",
"464 142 CURVE SMOOTH",
"464 147 OFFCURVE",
"472 219 OFFCURVE",
"480 297 CURVE SMOOTH",
"487 362 OFFCURVE",
"496 447 OFFCURVE",
"501 494 CURVE",
"501 510 OFFCURVE",
"484 525 OFFCURVE",
"444 525 CURVE SMOOTH",
"416 525 LINE SMOOTH",
"377 525 OFFCURVE",
"355 514 OFFCURVE",
"353 493 CURVE",
"319 168 LINE",
"301 143 OFFCURVE",
"271 114 OFFCURVE",
"233 114 CURVE SMOOTH",
"194 114 OFFCURVE",
"176 136 OFFCURVE",
"179 167 CURVE SMOOTH",
"213 494 LINE SMOOTH",
"213 510 OFFCURVE",
"196 525 OFFCURVE",
"156 525 CURVE SMOOTH",
"128 525 LINE SMOOTH",
"89 525 OFFCURVE",
"67 514 OFFCURVE",
"65 493 CURVE SMOOTH",
"30 146 LINE SMOOTH",
"22 66 OFFCURVE",
"46 -8 OFFCURVE",
"160 -8 CURVE SMOOTH"
);
}
);
width = 557;
}
);
leftKerningGroup = u;
rightKerningGroup = u;
unicode = 0075;
},
{
glyphname = v;
layers = (
{
layerId = UUID0;
paths = (
{
closed = 1;
nodes = (
"226 -2 LINE SMOOTH",
"246 -2 OFFCURVE",
"262 2 OFFCURVE",
"267 14 CURVE SMOOTH",
"479 494 LINE SMOOTH",
"482 501 OFFCURVE",
"483 505 OFFCURVE",
"483 510 CURVE SMOOTH",
"483 520 OFFCURVE",
"470 525 OFFCURVE",
"442 525 CURVE",
"441 525 LINE",
"426 525 OFFCURVE",
"405 521 OFFCURVE",
"400 509 CURVE SMOOTH",
"285 245 LINE",
"265 200 OFFCURVE",
"246 149 OFFCURVE",
"228 104 CURVE",
"223 104 LINE",
"212 151 OFFCURVE",
"202 198 OFFCURVE",
"191 245 CURVE",
"132 509 LINE SMOOTH",
"129 521 OFFCURVE",
"113 525 OFFCURVE",
"93 525 CURVE SMOOTH",
"85 525 LINE SMOOTH",
"55 525 OFFCURVE",
"41 518 OFFCURVE",
"40 508 CURVE SMOOTH",
"40 507 OFFCURVE",
"40 506 OFFCURVE",
"42 497 CURVE",
"152 14 LINE",
"155 2 OFFCURVE",
"171 -2 OFFCURVE",
"191 -2 CURVE SMOOTH"
);
}
);
width = 485;
},
{
layerId = "DE974D70-A5B4-43AB-B940-69E4F08CB641";
paths = (
{
closed = 1;
nodes = (
"223 -2 LINE SMOOTH",
"252 -2 OFFCURVE",
"274 3 OFFCURVE",
"281 19 CURVE SMOOTH",
"489 485 LINE SMOOTH",
"492 492 OFFCURVE",
"493 497 OFFCURVE",
"493 502 CURVE SMOOTH",
"493 525 OFFCURVE",
"458 525 OFFCURVE",
"436 525 CURVE SMOOTH",
"411 525 LINE SMOOTH",
"382 525 OFFCURVE",
"360 520 OFFCURVE",
"353 504 CURVE SMOOTH",
"275 319 LINE SMOOTH",
"265 296 OFFCURVE",
"247 242 OFFCURVE",
"234 198 CURVE",
"230 198 LINE",
"224 242 OFFCURVE",
"220 295 OFFCURVE",
"215 319 CURVE SMOOTH",
"175 504 LINE SMOOTH",
"171 520 OFFCURVE",
"148 525 OFFCURVE",
"121 525 CURVE SMOOTH",
"88 525 LINE SMOOTH",
"42 525 OFFCURVE",
"25 516 OFFCURVE",
"25 500 CURVE SMOOTH",
"25 496 OFFCURVE",
"26 491 OFFCURVE",
"27 485 CURVE SMOOTH",
"137 19 LINE SMOOTH",
"141 3 OFFCURVE",
"161 -2 OFFCURVE",
"191 -2 CURVE SMOOTH"
);
}
);
width = 485;
}
);
leftKerningGroup = v;
rightKerningGroup = v;
unicode = 0076;
},
{
glyphname = w;
layers = (
{
anchors = (
{
name = top;
position = "{394, 523}";
}
);
layerId = UUID0;
paths = (
{
closed = 1;
nodes = (
"208 -2 LINE SMOOTH",
"228 -2 OFFCURVE",
"245 2 OFFCURVE",
"249 14 CURVE SMOOTH",
"371 347 LINE",
"374 357 OFFCURVE",
"377 367 OFFCURVE",
"380 377 CURVE",
"384 377 LINE",
"385 368 OFFCURVE",
"385 359 OFFCURVE",
"386 350 CURVE",
"435 14 LINE SMOOTH",
"437 2 OFFCURVE",
"453 -2 OFFCURVE",
"473 -2 CURVE SMOOTH",
"506 -2 LINE SMOOTH",
"526 -2 OFFCURVE",
"542 2 OFFCURVE",
"547 14 CURVE SMOOTH",
"732 494 LINE SMOOTH",
"735 501 OFFCURVE",
"736 505 OFFCURVE",
"736 510 CURVE SMOOTH",
"736 520 OFFCURVE",
"723 525 OFFCURVE",
"696 525 CURVE",
"694 525 LINE",
"674 525 OFFCURVE",
"655 521 OFFCURVE",
"651 509 CURVE SMOOTH",
"527 171 LINE",
"521 150 OFFCURVE",
"514 130 OFFCURVE",
"508 109 CURVE",
"504 109 LINE",
"501 130 OFFCURVE",
"498 152 OFFCURVE",
"495 173 CURVE",
"441 508 LINE SMOOTH",
"439 521 OFFCURVE",
"424 525 OFFCURVE",
"404 525 CURVE SMOOTH",
"393 525 LINE SMOOTH",
"373 525 OFFCURVE",
"357 521 OFFCURVE",
"352 508 CURVE SMOOTH",
"232 179 LINE",
"224 156 OFFCURVE",
"215 132 OFFCURVE",
"207 109 CURVE",
"203 109 LINE",
"201 132 OFFCURVE",
"198 155 OFFCURVE",
"196 178 CURVE",
"144 509 LINE SMOOTH",
"142 521 OFFCURVE",
"125 525 OFFCURVE",
"105 525 CURVE SMOOTH",
"96 525 LINE SMOOTH",
"66 525 OFFCURVE",
"51 518 OFFCURVE",
"51 508 CURVE SMOOTH",
"51 505 OFFCURVE",
"52 496 OFFCURVE",
"54 486 CURVE SMOOTH",
"136 14 LINE SMOOTH",
"138 2 OFFCURVE",
"155 -2 OFFCURVE",
"175 -2 CURVE SMOOTH"
);
}
);
width = 747;
},
{
anchors = (
{
name = top;
position = "{404, 523}";
}
);
layerId = "DE974D70-A5B4-43AB-B940-69E4F08CB641";
paths = (
{
closed = 1;
nodes = (
"218 -2 LINE SMOOTH",
"247 -2 OFFCURVE",
"270 5 OFFCURVE",
"275 19 CURVE SMOOTH",
"361 268 LINE",
"365 286 OFFCURVE",
"369 305 OFFCURVE",
"373 323 CURVE",
"376 323 LINE",
"377 305 OFFCURVE",
"378 286 OFFCURVE",
"379 268 CURVE",
"415 19 LINE",
"418 5 OFFCURVE",
"436 -2 OFFCURVE",
"468 -2 CURVE SMOOTH",
"517 -2 LINE SMOOTH",
"545 -2 OFFCURVE",
"569 5 OFFCURVE",
"574 19 CURVE SMOOTH",
"741 484 LINE SMOOTH",
"743 491 OFFCURVE",
"744 497 OFFCURVE",
"744 501 CURVE SMOOTH",
"744 515 OFFCURVE",
"728 524 OFFCURVE",
"691 525 CURVE",
"685 525 LINE",
"649 525 OFFCURVE",
"629 518 OFFCURVE",
"624 504 CURVE SMOOTH",
"526 231 LINE",
"521 211 OFFCURVE",
"517 192 OFFCURVE",
"512 172 CURVE",
"509 172 LINE",
"508 191 OFFCURVE",
"507 211 OFFCURVE",
"506 230 CURVE",
"469 504 LINE SMOOTH",
"467 518 OFFCURVE",
"444 525 OFFCURVE",
"416 525 CURVE SMOOTH",
"392 525 LINE SMOOTH",
"359 525 OFFCURVE",
"340 518 OFFCURVE",
"335 504 CURVE SMOOTH",
"243 241 LINE",
"238 220 OFFCURVE",
"233 199 OFFCURVE",
"228 178 CURVE",
"224 178 LINE",
"222 199 OFFCURVE",
"220 219 OFFCURVE",
"218 240 CURVE",
"180 504 LINE SMOOTH",
"178 518 OFFCURVE",
"154 525 OFFCURVE",
"127 525 CURVE SMOOTH",
"103 525 LINE SMOOTH",
"60 525 OFFCURVE",
"40 515 OFFCURVE",
"38 499 CURVE SMOOTH",
"38 494 OFFCURVE",
"38 488 OFFCURVE",
"43 458 CURVE SMOOTH",
"116 19 LINE SMOOTH",
"118 5 OFFCURVE",
"136 -2 OFFCURVE",
"169 -2 CURVE SMOOTH"
);
}
);
width = 747;
}
);
leftKerningGroup = v;
rightKerningGroup = v;
unicode = 0077;
},
{
glyphname = x;
layers = (
{
layerId = UUID0;
paths = (
{
closed = 1;
nodes = (
"41 -2 LINE SMOOTH",
"59 -2 OFFCURVE",
"76 1 OFFCURVE",
"85 12 CURVE SMOOTH",
"219 180 LINE",
"223 185 OFFCURVE",
"226 189 OFFCURVE",
"230 194 CURVE",
"234 194 LINE",
"236 190 OFFCURVE",
"238 186 OFFCURVE",
"240 182 CURVE",
"337 13 LINE SMOOTH",
"344 1 OFFCURVE",
"358 -2 OFFCURVE",
"379 -2 CURVE SMOOTH",
"390 -2 LINE SMOOTH",
"424 -2 OFFCURVE",
"436 4 OFFCURVE",
"438 15 CURVE",
"438 20 OFFCURVE",
"436 26 OFFCURVE",
"431 33 CURVE",
"294 270 LINE",
"469 490 LINE SMOOTH",
"475 498 OFFCURVE",
"478 504 OFFCURVE",
"478 510 CURVE SMOOTH",
"478 520 OFFCURVE",
"465 525 OFFCURVE",
"434 525 CURVE SMOOTH",
"430 525 LINE SMOOTH",
"412 525 OFFCURVE",
"394 522 OFFCURVE",
"386 511 CURVE SMOOTH",
"275 372 LINE",
"269 363 OFFCURVE",
"262 355 OFFCURVE",
"256 346 CURVE",
"251 346 LINE",
"246 355 OFFCURVE",
"241 364 OFFCURVE",
"236 373 CURVE",
"157 510 LINE SMOOTH",
"150 522 OFFCURVE",
"136 525 OFFCURVE",
"115 525 CURVE SMOOTH",
"104 525 LINE SMOOTH",
"70 525 OFFCURVE",
"58 519 OFFCURVE",
"56 508 CURVE",
"56 503 OFFCURVE",
"58 497 OFFCURVE",
"63 490 CURVE",
"189 268 LINE",
"2 33 LINE",
"-4 24 OFFCURVE",
"-7 19 OFFCURVE",
"-7 13 CURVE SMOOTH",
"-7 2 OFFCURVE",
"6 -2 OFFCURVE",
"37 -2 CURVE SMOOTH"
);
}
);
width = 485;
},
{
layerId = "DE974D70-A5B4-43AB-B940-69E4F08CB641";
paths = (
{
closed = 1;
nodes = (
"62 -2 LINE SMOOTH",
"91 -2 OFFCURVE",
"112 -1 OFFCURVE",
"125 17 CURVE SMOOTH",
"209 131 LINE",
"213 137 OFFCURVE",
"216 142 OFFCURVE",
"220 148 CURVE",
"223 148 LINE",
"226 142 OFFCURVE",
"228 136 OFFCURVE",
"231 130 CURVE",
"290 17 LINE SMOOTH",
"299 -1 OFFCURVE",
"320 -2 OFFCURVE",
"349 -2 CURVE SMOOTH",
"381 -2 LINE SMOOTH",
"415 -2 OFFCURVE",
"444 -1 OFFCURVE",
"444 20 CURVE SMOOTH",
"444 25 OFFCURVE",
"442 33 OFFCURVE",
"437 42 CURVE SMOOTH",
"313 266 LINE",
"482 482 LINE SMOOTH",
"490 492 OFFCURVE",
"494 500 OFFCURVE",
"494 506 CURVE SMOOTH",
"494 525 OFFCURVE",
"458 525 OFFCURVE",
"434 525 CURVE SMOOTH",
"405 525 LINE SMOOTH",
"376 525 OFFCURVE",
"355 524 OFFCURVE",
"342 506 CURVE SMOOTH",
"267 406 LINE",
"262 399 OFFCURVE",
"258 391 OFFCURVE",
"253 384 CURVE",
"248 384 LINE",
"244 392 OFFCURVE",
"241 400 OFFCURVE",
"237 408 CURVE",
"187 506 LINE SMOOTH",
"178 524 OFFCURVE",
"157 525 OFFCURVE",
"128 525 CURVE SMOOTH",
"96 525 LINE SMOOTH",
"65 525 OFFCURVE",
"32 523 OFFCURVE",
"32 505 CURVE SMOOTH",
"32 499 OFFCURVE",
"34 491 OFFCURVE",
"40 481 CURVE SMOOTH",
"159 265 LINE",
"-16 41 LINE SMOOTH",
"-24 31 OFFCURVE",
"-28 24 OFFCURVE",
"-28 18 CURVE SMOOTH",
"-28 -2 OFFCURVE",
"10 -2 OFFCURVE",
"32 -2 CURVE SMOOTH"
);
}
);
width = 485;
}
);
leftKerningGroup = x;
rightKerningGroup = x;
unicode = 0078;
},
{
glyphname = y;
layers = (
{
anchors = (
{
name = bottom;
position = "{351, 0}";
},
{
name = top;
position = "{271, 523}";
}
);
layerId = UUID0;
paths = (
{
closed = 1;
nodes = (
"103 -208 LINE SMOOTH",
"127 -208 OFFCURVE",
"145 -202 OFFCURVE",
"152 -187 CURVE SMOOTH",
"481 494 LINE SMOOTH",
"484 501 OFFCURVE",
"485 504 OFFCURVE",
"485 509 CURVE SMOOTH",
"485 519 OFFCURVE",
"474 525 OFFCURVE",
"447 525 CURVE",
"444 525 LINE",
"423 525 OFFCURVE",
"407 521 OFFCURVE",
"401 509 CURVE SMOOTH",
"267 227 LINE SMOOTH",
"255 202 OFFCURVE",
"242 173 OFFCURVE",
"232 148 CURVE",
"230 148 LINE",
"223 174 OFFCURVE",
"216 201 OFFCURVE",
"209 227 CURVE SMOOTH",
"132 509 LINE SMOOTH",
"129 521 OFFCURVE",
"114 525 OFFCURVE",
"94 525 CURVE SMOOTH",
"86 525 LINE SMOOTH",
"56 525 OFFCURVE",
"41 518 OFFCURVE",
"41 508 CURVE SMOOTH",
"41 506 OFFCURVE",
"41 502 OFFCURVE",
"43 494 CURVE SMOOTH",
"171 22 LINE SMOOTH",
"175 8 OFFCURVE",
"181 3 OFFCURVE",
"190 3 CURVE",
"204 3 LINE",
"187 62 LINE",
"64 -175 LINE",
"59 -184 OFFCURVE",
"57 -191 OFFCURVE",
"57 -193 CURVE SMOOTH",
"57 -203 OFFCURVE",
"67 -208 OFFCURVE",
"88 -208 CURVE SMOOTH"
);
}
);
width = 481;
},
{
anchors = (
{
name = bottom;
position = "{361, 0}";
},
{
name = top;
position = "{261, 523}";
}
);
layerId = "DE974D70-A5B4-43AB-B940-69E4F08CB641";
paths = (
{
closed = 1;
nodes = (
"132 -206 LINE SMOOTH",
"161 -206 OFFCURVE",
"183 -201 OFFCURVE",
"190 -185 CURVE SMOOTH",
"490 485 LINE SMOOTH",
"493 492 OFFCURVE",
"495 499 OFFCURVE",
"495 504 CURVE SMOOTH",
"495 517 OFFCURVE",
"478 525 OFFCURVE",
"437 525 CURVE SMOOTH",
"413 525 LINE SMOOTH",
"383 525 OFFCURVE",
"362 520 OFFCURVE",
"355 504 CURVE SMOOTH",
"276 319 LINE SMOOTH",
"267 297 OFFCURVE",
"249 241 OFFCURVE",
"236 198 CURVE",
"232 198 LINE",
"227 241 OFFCURVE",
"221 296 OFFCURVE",
"216 319 CURVE SMOOTH",
"177 504 LINE SMOOTH",
"173 520 OFFCURVE",
"150 525 OFFCURVE",
"123 525 CURVE SMOOTH",
"91 525 LINE SMOOTH",
"43 525 OFFCURVE",
"27 515 OFFCURVE",
"27 499 CURVE SMOOTH",
"27 498 OFFCURVE",
"27 496 OFFCURVE",
"31 478 CURVE",
"146 -8 LINE",
"153 -27 OFFCURVE",
"163 -29 OFFCURVE",
"177 -29 CURVE",
"190 -29 LINE",
"173 61 LINE",
"63 -167 LINE SMOOTH",
"59 -174 OFFCURVE",
"57 -181 OFFCURVE",
"57 -186 CURVE SMOOTH",
"57 -199 OFFCURVE",
"75 -206 OFFCURVE",
"115 -206 CURVE SMOOTH"
);
}
);
width = 481;
}
);
leftKerningGroup = v;
rightKerningGroup = y;
unicode = 0079;
},
{
glyphname = z;
layers = (
{
anchors = (
{
name = bottom;
position = "{231, 0}";
},
{
name = top;
position = "{275, 523}";
}
);
layerId = UUID0;
paths = (
{
closed = 1;
nodes = (
"401 0 LINE SMOOTH",
"423 0 OFFCURVE",
"426 28 OFFCURVE",
"426 42 CURVE SMOOTH",
"426 45 LINE SMOOTH",
"426 61 OFFCURVE",
"423 72 OFFCURVE",
"409 72 CURVE SMOOTH",
"134 72 LINE",
"466 461 LINE SMOOTH",
"468 463 OFFCURVE",
"470 468 OFFCURVE",
"470 475 CURVE SMOOTH",
"470 494 OFFCURVE",
"464 523 OFFCURVE",
"455 523 CURVE SMOOTH",
"104 523 LINE SMOOTH",
"82 523 OFFCURVE",
"79 493 OFFCURVE",
"79 480 CURVE SMOOTH",
"79 478 LINE SMOOTH",
"79 462 OFFCURVE",
"82 451 OFFCURVE",
"96 451 CURVE SMOOTH",
"352 451 LINE",
"19 62 LINE SMOOTH",
"15 58 OFFCURVE",
"14 51 OFFCURVE",
"14 46 CURVE SMOOTH",
"14 26 OFFCURVE",
"24 0 OFFCURVE",
"31 0 CURVE SMOOTH"
);
}
);
width = 489;
},
{
anchors = (
{
name = bottom;
position = "{211, 0}";
},
{
name = top;
position = "{285, 523}";
}
);
layerId = "DE974D70-A5B4-43AB-B940-69E4F08CB641";
paths = (
{
closed = 1;
nodes = (
"402 0 LINE SMOOTH",
"430 0 OFFCURVE",
"440 34 OFFCURVE",
"440 75 CURVE SMOOTH",
"440 81 LINE SMOOTH",
"440 106 OFFCURVE",
"432 117 OFFCURVE",
"414 117 CURVE SMOOTH",
"207 117 LINE",
"468 431 LINE SMOOTH",
"471 434 OFFCURVE",
"472 441 OFFCURVE",
"472 450 CURVE SMOOTH",
"472 477 OFFCURVE",
"461 523 OFFCURVE",
"448 523 CURVE SMOOTH",
"96 523 LINE SMOOTH",
"68 523 OFFCURVE",
"58 489 OFFCURVE",
"58 445 CURVE SMOOTH",
"58 442 LINE SMOOTH",
"58 417 OFFCURVE",
"66 406 OFFCURVE",
"84 406 CURVE SMOOTH",
"272 406 LINE",
"11 92 LINE SMOOTH",
"8 89 OFFCURVE",
"7 82 OFFCURVE",
"7 73 CURVE SMOOTH",
"7 46 OFFCURVE",
"18 0 OFFCURVE",
"31 0 CURVE SMOOTH"
);
}
);
width = 489;
}
);
leftKerningGroup = z;
rightKerningGroup = z;
unicode = 007A;
},
{
glyphname = y.loclGUA;
layers = (
{
anchors = (
{
name = bottom;
position = "{501, 0}";
},
{
name = top;
position = "{315, 523}";
}
);
layerId = UUID0;
paths = (
{
closed = 1;
nodes = (
"364 -212 OFFCURVE",
"440 -140 OFFCURVE",
"465 99 CURVE SMOOTH",
"507 503 LINE SMOOTH",
"509 517 OFFCURVE",
"498 525 OFFCURVE",
"470 525 CURVE SMOOTH",
"466 525 LINE SMOOTH",
"438 525 OFFCURVE",
"425 517 OFFCURVE",
"423 503 CURVE SMOOTH",
"385 137 LINE",
"347 94 OFFCURVE",
"297 67 OFFCURVE",
"252 67 CURVE SMOOTH",
"193 67 OFFCURVE",
"159 97 OFFCURVE",
"159 149 CURVE SMOOTH",
"159 153 OFFCURVE",
"159 157 OFFCURVE",
"162 188 CURVE",
"195 503 LINE",
"196 517 OFFCURVE",
"186 525 OFFCURVE",
"158 525 CURVE SMOOTH",
"154 525 LINE SMOOTH",
"126 525 OFFCURVE",
"113 517 OFFCURVE",
"111 503 CURVE",
"77 174 LINE",
"74 142 OFFCURVE",
"74 140 OFFCURVE",
"74 131 CURVE SMOOTH",
"74 45 OFFCURVE",
"128 -6 OFFCURVE",
"221 -6 CURVE SMOOTH",
"282 -6 OFFCURVE",
"349 27 OFFCURVE",
"398 82 CURVE",
"382 110 LINE",
"380 87 LINE SMOOTH",
"369 -76 OFFCURVE",
"313 -140 OFFCURVE",
"221 -140 CURVE SMOOTH",
"117 -140 OFFCURVE",
"76 -86 OFFCURVE",
"64 -86 CURVE SMOOTH",
"57 -86 OFFCURVE",
"53 -97 OFFCURVE",
"51 -110 CURVE SMOOTH",
"49 -121 OFFCURVE",
"49 -133 OFFCURVE",
"49 -141 CURVE SMOOTH",
"50 -171 OFFCURVE",
"119 -212 OFFCURVE",
"221 -212 CURVE SMOOTH"
);
}
);
width = 557;
},
{
anchors = (
{
name = bottom;
position = "{521, 0}";
},
{
name = top;
position = "{301, 523}";
}
);
layerId = "DE974D70-A5B4-43AB-B940-69E4F08CB641";
paths = (
{
closed = 1;
nodes = (
"382 -212 OFFCURVE",
"462 -110 OFFCURVE",
"481 93 CURVE",
"523 493 LINE SMOOTH",
"526 514 OFFCURVE",
"509 525 OFFCURVE",
"467 525 CURVE SMOOTH",
"439 525 LINE SMOOTH",
"397 525 OFFCURVE",
"378 514 OFFCURVE",
"375 493 CURVE SMOOTH",
"342 172 LINE",
"327 149 OFFCURVE",
"297 114 OFFCURVE",
"256 114 CURVE SMOOTH",
"217 114 OFFCURVE",
"201 132 OFFCURVE",
"201 164 CURVE SMOOTH",
"201 166 OFFCURVE",
"201 169 OFFCURVE",
"205 202 CURVE",
"235 493 LINE",
"237 514 OFFCURVE",
"221 525 OFFCURVE",
"179 525 CURVE SMOOTH",
"151 525 LINE SMOOTH",
"109 525 OFFCURVE",
"89 514 OFFCURVE",
"87 493 CURVE",
"53 165 LINE",
"50 134 OFFCURVE",
"50 128 OFFCURVE",
"50 119 CURVE SMOOTH",
"50 32 OFFCURVE",
"93 -8 OFFCURVE",
"182 -8 CURVE SMOOTH",
"263 -8 OFFCURVE",
"335 51 OFFCURVE",
"359 96 CURVE",
"347 135 LINE",
"335 33 LINE SMOOTH",
"326 -49 OFFCURVE",
"274 -95 OFFCURVE",
"197 -95 CURVE SMOOTH",
"119 -95 OFFCURVE",
"73 -54 OFFCURVE",
"61 -54 CURVE SMOOTH",
"50 -54 OFFCURVE",
"45 -74 OFFCURVE",
"43 -96 CURVE SMOOTH",
"42 -112 OFFCURVE",
"42 -130 OFFCURVE",
"42 -142 CURVE SMOOTH",
"42 -183 OFFCURVE",
"124 -212 OFFCURVE",
"226 -212 CURVE SMOOTH"
);
}
);
width = 557;
}
);
leftKerningGroup = y.loclGUA;
rightKerningGroup = j;
},
{
glyphname = g.ss01;
layers = (
{
anchors = (
{
name = top;
position = "{310, 523}";
}
);
layerId = UUID0;
paths = (
{
closed = 1;
nodes = (
"412 -212 OFFCURVE",
"459 -118 OFFCURVE",
"459 -45 CURVE SMOOTH",
"459 33 OFFCURVE",
"389 50 OFFCURVE",
"320 59 CURVE SMOOTH",
"241 69 OFFCURVE",
"166 69 OFFCURVE",
"166 124 CURVE SMOOTH",
"166 183 OFFCURVE",
"208 202 OFFCURVE",
"269 202 CURVE SMOOTH",
"433 202 OFFCURVE",
"484 313 OFFCURVE",
"484 382 CURVE SMOOTH",
"484 406 OFFCURVE",
"477 430 OFFCURVE",
"466 450 CURVE",
"468 454 LINE",
"487 452 OFFCURVE",
"505 451 OFFCURVE",
"537 451 CURVE SMOOTH",
"559 451 OFFCURVE",
"561 486 OFFCURVE",
"561 498 CURVE",
"561 501 LINE",
"561 516 OFFCURVE",
"556 523 OFFCURVE",
"544 523 CURVE SMOOTH",
"362 523 LINE",
"345 527 OFFCURVE",
"325 529 OFFCURVE",
"304 529 CURVE SMOOTH",
"166 529 OFFCURVE",
"89 447 OFFCURVE",
"89 348 CURVE SMOOTH",
"89 295 OFFCURVE",
"113 250 OFFCURVE",
"161 225 CURVE",
"118 198 OFFCURVE",
"93 159 OFFCURVE",
"93 108 CURVE SMOOTH",
"93 77 OFFCURVE",
"106 56 OFFCURVE",
"125 39 CURVE",
"125 37 LINE",
"69 15 OFFCURVE",
"19 -33 OFFCURVE",
"19 -101 CURVE SMOOTH",
"19 -181 OFFCURVE",
"100 -212 OFFCURVE",
"214 -212 CURVE SMOOTH"
);
},
{
closed = 1;
nodes = (
"171 -144 OFFCURVE",
"97 -134 OFFCURVE",
"97 -79 CURVE SMOOTH",
"97 -33 OFFCURVE",
"132 -7 OFFCURVE",
"171 9 CURVE",
"201 0 OFFCURVE",
"241 -3 OFFCURVE",
"278 -7 CURVE SMOOTH",
"331 -13 OFFCURVE",
"377 -22 OFFCURVE",
"377 -62 CURVE SMOOTH",
"377 -120 OFFCURVE",
"325 -144 OFFCURVE",
"232 -144 CURVE SMOOTH"
);
},
{
closed = 1;
nodes = (
"215 269 OFFCURVE",
"166 289 OFFCURVE",
"166 350 CURVE SMOOTH",
"166 436 OFFCURVE",
"226 462 OFFCURVE",
"296 462 CURVE SMOOTH",
"362 462 OFFCURVE",
"406 439 OFFCURVE",
"406 381 CURVE SMOOTH",
"406 292 OFFCURVE",
"342 269 OFFCURVE",
"276 269 CURVE SMOOTH"
);
}
);
width = 546;
},
{
anchors = (
{
name = top;
position = "{308, 523}";
}
);
layerId = "DE974D70-A5B4-43AB-B940-69E4F08CB641";
paths = (
{
closed = 1;
nodes = (
"387 -212 OFFCURVE",
"500 -137 OFFCURVE",
"500 -23 CURVE SMOOTH",
"500 63 OFFCURVE",
"428 90 OFFCURVE",
"356 103 CURVE SMOOTH",
"286 116 OFFCURVE",
"216 116 OFFCURVE",
"216 147 CURVE SMOOTH",
"216 166 OFFCURVE",
"237 176 OFFCURVE",
"280 176 CURVE SMOOTH",
"394 176 OFFCURVE",
"502 237 OFFCURVE",
"502 353 CURVE SMOOTH",
"502 372 OFFCURVE",
"500 397 OFFCURVE",
"492 409 CURVE",
"495 413 LINE",
"503 411 OFFCURVE",
"530 409 OFFCURVE",
"537 409 CURVE SMOOTH",
"564 409 OFFCURVE",
"569 457 OFFCURVE",
"569 484 CURVE",
"569 489 LINE",
"569 513 OFFCURVE",
"561 523 OFFCURVE",
"543 523 CURVE SMOOTH",
"382 523 LINE",
"359 528 OFFCURVE",
"333 531 OFFCURVE",
"306 531 CURVE SMOOTH",
"133 531 OFFCURVE",
"71 431 OFFCURVE",
"71 330 CURVE SMOOTH",
"71 269 OFFCURVE",
"97 228 OFFCURVE",
"138 204 CURVE",
"94 182 OFFCURVE",
"68 148 OFFCURVE",
"68 109 CURVE SMOOTH",
"68 82 OFFCURVE",
"81 58 OFFCURVE",
"104 46 CURVE",
"103 42 LINE",
"35 17 OFFCURVE",
"-2 -30 OFFCURVE",
"-2 -89 CURVE SMOOTH",
"-2 -170 OFFCURVE",
"71 -212 OFFCURVE",
"223 -212 CURVE SMOOTH"
);
},
{
closed = 1;
nodes = (
"175 -95 OFFCURVE",
"146 -79 OFFCURVE",
"146 -54 CURVE SMOOTH",
"146 -33 OFFCURVE",
"167 -9 OFFCURVE",
"206 4 CURVE",
"243 1 OFFCURVE",
"272 -2 OFFCURVE",
"294 -6 CURVE SMOOTH",
"337 -13 OFFCURVE",
"354 -24 OFFCURVE",
"354 -42 CURVE SMOOTH",
"354 -74 OFFCURVE",
"318 -95 OFFCURVE",
"246 -95 CURVE SMOOTH"
);
},
{
closed = 1;
nodes = (
"239 283 OFFCURVE",
"212 303 OFFCURVE",
"212 341 CURVE SMOOTH",
"212 403 OFFCURVE",
"254 424 OFFCURVE",
"295 424 CURVE SMOOTH",
"333 424 OFFCURVE",
"363 406 OFFCURVE",
"363 365 CURVE SMOOTH",
"363 306 OFFCURVE",
"324 283 OFFCURVE",
"280 283 CURVE SMOOTH"
);
}
);
width = 546;
}
);
leftKerningGroup = g.ss01;
rightKerningGroup = j;
},
{
glyphname = f_f;
layers = (
{
components = (
{
name = f;
},
{
name = f;
transform = "{1, 0, 0, 1, 325, 0}";
}
);
layerId = UUID0;
paths = (
{
closed = 1;
nodes = (
"258 451 LINE",
"426 451 LINE",
"426 523 LINE",
"258 523 LINE"
);
}
);
width = 650;
},
{
components = (
{
name = f;
},
{
name = f;
transform = "{1, 0, 0, 1, 325, 0}";
}
);
layerId = "DE974D70-A5B4-43AB-B940-69E4F08CB641";
paths = (
{
closed = 1;
nodes = (
"260 406 LINE",
"409 406 LINE",
"409 523 LINE",
"260 523 LINE"
);
}
);
width = 650;
}
);
leftKerningGroup = f;
leftMetricsKey = f;
rightKerningGroup = f;
rightMetricsKey = f;
},
{
glyphname = f_t;
layers = (
{
components = (
{
name = f;
},
{
name = t;
transform = "{1, 0, 0, 1, 325, 0}";
}
);
layerId = UUID0;
paths = (
{
closed = 1;
nodes = (
"258 451 LINE",
"426 451 LINE",
"426 523 LINE",
"258 523 LINE"
);
}
);
width = 667;
},
{
components = (
{
name = f;
},
{
name = t;
transform = "{1, 0, 0, 1, 325, 0}";
}
);
layerId = "DE974D70-A5B4-43AB-B940-69E4F08CB641";
paths = (
{
closed = 1;
nodes = (
"260 406 LINE",
"409 406 LINE",
"409 523 LINE",
"260 523 LINE"
);
}
);
width = 667;
}
);
leftMetricsKey = f;
rightMetricsKey = t;
},
{
glyphname = fi;
layers = (
{
anchors = (
{
name = bottom;
position = "{428, 0}";
},
{
name = caret_1;
position = "{270, 0}";
},
{
name = ogonek;
position = "{459, 10}";
}
);
components = (
{
name = f;
},
{
name = dotaccentcomb;
transform = "{1.12, 0, 0, 1.1, 421, -52}";
}
);
layerId = UUID0;
paths = (
{
closed = 1;
nodes = (
"431 451 LINE",
"453 523 LINE",
"263 523 LINE",
"263 451 LINE"
);
},
{
closed = 1;
nodes = (
"473 -6 OFFCURVE",
"510 2 OFFCURVE",
"515 27 CURVE SMOOTH",
"520 51 OFFCURVE",
"522 71 OFFCURVE",
"513 71 CURVE SMOOTH",
"507 71 OFFCURVE",
"498 66 OFFCURVE",
"486 66 CURVE SMOOTH",
"470 66 OFFCURVE",
"451 66 OFFCURVE",
"451 107 CURVE SMOOTH",
"451 136 OFFCURVE",
"486 414 OFFCURVE",
"491 501 CURVE",
"491 516 OFFCURVE",
"481 523 OFFCURVE",
"453 523 CURVE SMOOTH",
"449 523 LINE SMOOTH",
"423 523 OFFCURVE",
"409 517 OFFCURVE",
"407 501 CURVE",
"400 417 OFFCURVE",
"384 288 OFFCURVE",
"372 167 CURVE SMOOTH",
"368 128 OFFCURVE",
"366 99 OFFCURVE",
"366 89 CURVE SMOOTH",
"366 23 OFFCURVE",
"399 -6 OFFCURVE",
"455 -6 CURVE SMOOTH"
);
}
);
width = 569;
},
{
anchors = (
{
name = bottom;
position = "{409, 0}";
},
{
name = caret_1;
position = "{270, 0}";
},
{
name = ogonek;
position = "{451, 20}";
}
);
components = (
{
name = f;
},
{
name = dotaccentcomb;
transform = "{1.24, 0, 0, 1.17, 415, -89}";
}
);
layerId = "DE974D70-A5B4-43AB-B940-69E4F08CB641";
paths = (
{
closed = 1;
nodes = (
"409 406 LINE",
"460 523 LINE",
"260 523 LINE",
"260 406 LINE"
);
},
{
closed = 1;
nodes = (
"487 -8 OFFCURVE",
"530 7 OFFCURVE",
"542 52 CURVE SMOOTH",
"551 85 OFFCURVE",
"550 115 OFFCURVE",
"539 115 CURVE SMOOTH",
"535 115 OFFCURVE",
"524 109 OFFCURVE",
"510 109 CURVE SMOOTH",
"489 109 OFFCURVE",
"480 119 OFFCURVE",
"480 142 CURVE SMOOTH",
"480 151 OFFCURVE",
"508 397 OFFCURVE",
"517 492 CURVE",
"517 508 OFFCURVE",
"500 523 OFFCURVE",
"460 523 CURVE SMOOTH",
"432 523 LINE SMOOTH",
"393 523 OFFCURVE",
"371 512 OFFCURVE",
"369 491 CURVE",
"359 406 OFFCURVE",
"345 272 OFFCURVE",
"335 170 CURVE SMOOTH",
"333 144 OFFCURVE",
"331 125 OFFCURVE",
"331 119 CURVE SMOOTH",
"331 29 OFFCURVE",
"374 -8 OFFCURVE",
"452 -8 CURVE SMOOTH"
);
}
);
width = 569;
}
);
leftKerningGroup = f;
rightKerningGroup = i;
rightMetricsKey = "=idotless";
unicode = FB01;
},
{
glyphname = ordfeminine;
layers = (
{
background = {
paths = (
{
closed = 1;
nodes = (
"151 439 OFFCURVE",
"177 451 OFFCURVE",
"196 483 CURVE",
"198 448 OFFCURVE",
"220 440 OFFCURVE",
"239 440 CURVE SMOOTH",
"272 440 OFFCURVE",
"285 451 OFFCURVE",
"285 472 CURVE SMOOTH",
"285 478 OFFCURVE",
"284 484 OFFCURVE",
"280 484 CURVE SMOOTH",
"276 484 OFFCURVE",
"273 482 OFFCURVE",
"267 482 CURVE SMOOTH",
"260 482 OFFCURVE",
"255 486 OFFCURVE",
"256 503 CURVE SMOOTH",
"258 539 OFFCURVE",
"265 591 OFFCURVE",
"271 639 CURVE SMOOTH",
"273 658 OFFCURVE",
"277 689 OFFCURVE",
"277 695 CURVE SMOOTH",
"277 701 OFFCURVE",
"272 706 OFFCURVE",
"260 706 CURVE",
"246 706 LINE",
"229 706 OFFCURVE",
"226 696 OFFCURVE",
"221 681 CURVE",
"210 692 OFFCURVE",
"191 708 OFFCURVE",
"158 708 CURVE SMOOTH",
"96 708 OFFCURVE",
"48 658 OFFCURVE",
"37 575 CURVE SMOOTH",
"27 509 OFFCURVE",
"47 439 OFFCURVE",
"124 439 CURVE SMOOTH"
);
},
{
closed = 1;
nodes = (
"95 488 OFFCURVE",
"91 534 OFFCURVE",
"98 577 CURVE SMOOTH",
"106 629 OFFCURVE",
"125 659 OFFCURVE",
"168 659 CURVE SMOOTH",
"191 659 OFFCURVE",
"204 653 OFFCURVE",
"213 649 CURVE",
"211 641 OFFCURVE",
"210 632 OFFCURVE",
"209 621 CURVE SMOOTH",
"200 538 LINE",
"186 501 OFFCURVE",
"161 488 OFFCURVE",
"141 488 CURVE SMOOTH"
);
}
);
};
layerId = UUID0;
paths = (
{
closed = 1;
nodes = (
"171 439 OFFCURVE",
"197 451 OFFCURVE",
"216 483 CURVE",
"218 448 OFFCURVE",
"240 440 OFFCURVE",
"259 440 CURVE SMOOTH",
"292 440 OFFCURVE",
"305 451 OFFCURVE",
"305 472 CURVE SMOOTH",
"305 478 OFFCURVE",
"304 484 OFFCURVE",
"300 484 CURVE SMOOTH",
"296 484 OFFCURVE",
"293 482 OFFCURVE",
"287 482 CURVE SMOOTH",
"280 482 OFFCURVE",
"275 486 OFFCURVE",
"276 503 CURVE SMOOTH",
"278 539 OFFCURVE",
"286 591 OFFCURVE",
"291 639 CURVE SMOOTH",
"293 658 OFFCURVE",
"297 689 OFFCURVE",
"297 695 CURVE SMOOTH",
"297 701 OFFCURVE",
"292 706 OFFCURVE",
"280 706 CURVE",
"266 706 LINE",
"249 706 OFFCURVE",
"246 696 OFFCURVE",
"241 681 CURVE",
"230 692 OFFCURVE",
"211 708 OFFCURVE",
"178 708 CURVE SMOOTH",
"116 708 OFFCURVE",
"68 658 OFFCURVE",
"57 575 CURVE SMOOTH",
"48 509 OFFCURVE",
"67 439 OFFCURVE",
"144 439 CURVE SMOOTH"
);
},
{
closed = 1;
nodes = (
"115 488 OFFCURVE",
"111 534 OFFCURVE",
"118 577 CURVE SMOOTH",
"126 629 OFFCURVE",
"145 659 OFFCURVE",
"188 659 CURVE SMOOTH",
"211 659 OFFCURVE",
"224 653 OFFCURVE",
"233 649 CURVE",
"231 641 OFFCURVE",
"230 632 OFFCURVE",
"229 621 CURVE SMOOTH",
"220 538 LINE",
"206 501 OFFCURVE",
"181 488 OFFCURVE",
"161 488 CURVE SMOOTH"
);
}
);
width = 313;
},
{
background = {
paths = (
{
closed = 1;
nodes = (
"150 437 OFFCURVE",
"172 456 OFFCURVE",
"187 474 CURVE",
"193 450 OFFCURVE",
"209 438 OFFCURVE",
"235 438 CURVE SMOOTH",
"271 438 OFFCURVE",
"290 461 OFFCURVE",
"290 489 CURVE SMOOTH",
"290 496 OFFCURVE",
"288 505 OFFCURVE",
"282 505 CURVE SMOOTH",
"280 505 OFFCURVE",
"277 505 OFFCURVE",
"275 505 CURVE SMOOTH",
"270 505 OFFCURVE",
"268 507 OFFCURVE",
"268 511 CURVE SMOOTH",
"268 513 OFFCURVE",
"274 578 OFFCURVE",
"281 634 CURVE SMOOTH",
"283 653 OFFCURVE",
"287 683 OFFCURVE",
"287 691 CURVE SMOOTH",
"287 700 OFFCURVE",
"276 705 OFFCURVE",
"253 705 CURVE",
"246 705 LINE",
"219 705 OFFCURVE",
"216 700 OFFCURVE",
"210 682 CURVE",
"197 692 OFFCURVE",
"179 708 OFFCURVE",
"141 708 CURVE SMOOTH",
"83 708 OFFCURVE",
"38 668 OFFCURVE",
"26 578 CURVE SMOOTH",
"17 513 OFFCURVE",
"32 437 OFFCURVE",
"111 437 CURVE SMOOTH"
);
},
{
closed = 1;
nodes = (
"106 505 OFFCURVE",
"105 535 OFFCURVE",
"110 576 CURVE SMOOTH",
"117 631 OFFCURVE",
"135 642 OFFCURVE",
"163 642 CURVE SMOOTH",
"180 642 OFFCURVE",
"190 640 OFFCURVE",
"199 635 CURVE",
"198 629 OFFCURVE",
"196 615 OFFCURVE",
"194 598 CURVE SMOOTH",
"186 520 LINE",
"180 516 OFFCURVE",
"166 505 OFFCURVE",
"145 505 CURVE SMOOTH"
);
}
);
};
layerId = "DE974D70-A5B4-43AB-B940-69E4F08CB641";
paths = (
{
closed = 1;
nodes = (
"172 437 OFFCURVE",
"194 456 OFFCURVE",
"209 474 CURVE",
"215 450 OFFCURVE",
"231 438 OFFCURVE",
"257 438 CURVE SMOOTH",
"293 438 OFFCURVE",
"312 461 OFFCURVE",
"312 489 CURVE SMOOTH",
"312 496 OFFCURVE",
"310 505 OFFCURVE",
"304 505 CURVE SMOOTH",
"302 505 OFFCURVE",
"299 505 OFFCURVE",
"297 505 CURVE SMOOTH",
"292 505 OFFCURVE",
"290 507 OFFCURVE",
"290 511 CURVE SMOOTH",
"290 513 OFFCURVE",
"297 578 OFFCURVE",
"303 634 CURVE SMOOTH",
"305 653 OFFCURVE",
"309 683 OFFCURVE",
"309 691 CURVE SMOOTH",
"309 700 OFFCURVE",
"298 705 OFFCURVE",
"275 705 CURVE",
"268 705 LINE",
"241 705 OFFCURVE",
"238 700 OFFCURVE",
"232 682 CURVE",
"219 692 OFFCURVE",
"201 708 OFFCURVE",
"163 708 CURVE SMOOTH",
"105 708 OFFCURVE",
"60 668 OFFCURVE",
"48 578 CURVE SMOOTH",
"39 513 OFFCURVE",
"54 437 OFFCURVE",
"133 437 CURVE SMOOTH"
);
},
{
closed = 1;
nodes = (
"128 505 OFFCURVE",
"127 535 OFFCURVE",
"132 576 CURVE SMOOTH",
"139 631 OFFCURVE",
"157 642 OFFCURVE",
"185 642 CURVE SMOOTH",
"202 642 OFFCURVE",
"212 640 OFFCURVE",
"221 635 CURVE",
"220 629 OFFCURVE",
"218 615 OFFCURVE",
"216 598 CURVE SMOOTH",
"208 520 LINE",
"202 516 OFFCURVE",
"188 505 OFFCURVE",
"167 505 CURVE SMOOTH"
);
}
);
width = 313;
}
);
unicode = 00AA;
userData = {
RMXScaler = {
source = a;
};
};
},
{
glyphname = ordmasculine;
layers = (
{
layerId = UUID0;
paths = (
{
closed = 1;
nodes = (
"209 441 OFFCURVE",
"282 464 OFFCURVE",
"282 600 CURVE SMOOTH",
"282 688 OFFCURVE",
"229 706 OFFCURVE",
"183 706 CURVE SMOOTH",
"130 706 OFFCURVE",
"53 681 OFFCURVE",
"53 547 CURVE SMOOTH",
"53 458 OFFCURVE",
"108 441 OFFCURVE",
"156 441 CURVE SMOOTH"
);
},
{
closed = 1;
nodes = (
"118 477 OFFCURVE",
"96 495 OFFCURVE",
"96 549 CURVE SMOOTH",
"96 639 OFFCURVE",
"132 670 OFFCURVE",
"178 670 CURVE SMOOTH",
"216 670 OFFCURVE",
"239 651 OFFCURVE",
"239 598 CURVE SMOOTH",
"239 507 OFFCURVE",
"204 477 OFFCURVE",
"157 477 CURVE SMOOTH"
);
}
);
width = 337;
},
{
layerId = "DE974D70-A5B4-43AB-B940-69E4F08CB641";
paths = (
{
closed = 1;
nodes = (
"237 441 OFFCURVE",
"289 497 OFFCURVE",
"289 600 CURVE SMOOTH",
"289 670 OFFCURVE",
"253 708 OFFCURVE",
"182 708 CURVE SMOOTH",
"82 708 OFFCURVE",
"45 628 OFFCURVE",
"45 548 CURVE SMOOTH",
"45 478 OFFCURVE",
"82 441 OFFCURVE",
"153 441 CURVE SMOOTH"
);
},
{
closed = 1;
nodes = (
"133 499 OFFCURVE",
"120 517 OFFCURVE",
"120 552 CURVE SMOOTH",
"120 616 OFFCURVE",
"140 650 OFFCURVE",
"175 650 CURVE SMOOTH",
"202 650 OFFCURVE",
"214 631 OFFCURVE",
"214 596 CURVE SMOOTH",
"214 532 OFFCURVE",
"193 499 OFFCURVE",
"160 499 CURVE SMOOTH"
);
}
);
width = 337;
}
);
unicode = 00BA;
},
{
glyphname = Delta;
layers = (
{
layerId = UUID0;
paths = (
{
closed = 1;
nodes = (
"378 710 LINE SMOOTH",
"361 710 OFFCURVE",
"348 703 OFFCURVE",
"340 687 CURVE SMOOTH",
"11 67 LINE SMOOTH",
"3 53 OFFCURVE",
"0 42 OFFCURVE",
"0 27 CURVE SMOOTH",
"0 26 OFFCURVE",
"0 26 OFFCURVE",
"0 25 CURVE SMOOTH",
"0 9 OFFCURVE",
"9 0 OFFCURVE",
"26 0 CURVE SMOOTH",
"605 0 LINE SMOOTH",
"629 0 OFFCURVE",
"639 14 OFFCURVE",
"639 38 CURVE SMOOTH",
"639 39 OFFCURVE",
"639 39 OFFCURVE",
"639 40 CURVE SMOOTH",
"639 49 OFFCURVE",
"637 57 OFFCURVE",
"634 67 CURVE SMOOTH",
"436 687 LINE SMOOTH",
"431 703 OFFCURVE",
"421 710 OFFCURVE",
"404 710 CURVE SMOOTH"
);
},
{
closed = 1;
nodes = (
"556 68 LINE",
"85 68 LINE",
"377 619 LINE",
"382 619 LINE"
);
}
);
width = 708;
},
{
layerId = "DE974D70-A5B4-43AB-B940-69E4F08CB641";
paths = (
{
closed = 1;
nodes = (
"384 710 LINE SMOOTH",
"364 710 OFFCURVE",
"350 702 OFFCURVE",
"340 683 CURVE SMOOTH",
"39 130 LINE SMOOTH",
"31 115 OFFCURVE",
"27 103 OFFCURVE",
"25 86 CURVE SMOOTH",
"21 48 OFFCURVE",
"20 30 OFFCURVE",
"20 27 CURVE SMOOTH",
"20 9 OFFCURVE",
"31 0 OFFCURVE",
"51 0 CURVE SMOOTH",
"628 0 LINE SMOOTH",
"650 0 OFFCURVE",
"665 12 OFFCURVE",
"667 35 CURVE SMOOTH",
"673 91 OFFCURVE",
"673 96 OFFCURVE",
"673 101 CURVE SMOOTH",
"673 111 OFFCURVE",
"671 120 OFFCURVE",
"668 130 CURVE SMOOTH",
"483 683 LINE SMOOTH",
"477 702 OFFCURVE",
"465 710 OFFCURVE",
"445 710 CURVE SMOOTH"
);
},
{
closed = 1;
nodes = (
"524 130 LINE",
"182 130 LINE",
"388 513 LINE",
"398 513 LINE"
);
}
);
width = 708;
}
);
unicode = 0394;
},
{
glyphname = Omega;
layers = (
{
anchors = (
{
name = topleft;
position = "{20, 700}";
}
);
layerId = UUID0;
paths = (
{
closed = 1;
nodes = (
"190 706 OFFCURVE",
"52 563 OFFCURVE",
"52 286 CURVE SMOOTH",
"52 189 OFFCURVE",
"77 115 OFFCURVE",
"127 64 CURVE",
"105 65 OFFCURVE",
"63 68 OFFCURVE",
"31 68 CURVE SMOOTH",
"9 68 OFFCURVE",
"6 38 OFFCURVE",
"6 21 CURVE",
"6 19 LINE",
"6 6 OFFCURVE",
"11 0 OFFCURVE",
"23 0 CURVE SMOOTH",
"264 0 LINE SMOOTH",
"280 0 OFFCURVE",
"285 15 OFFCURVE",
"285 42 CURVE SMOOTH",
"285 43 LINE SMOOTH",
"285 48 OFFCURVE",
"283 51 OFFCURVE",
"279 52 CURVE SMOOTH",
"188 76 OFFCURVE",
"143 148 OFFCURVE",
"143 279 CURVE SMOOTH",
"143 511 OFFCURVE",
"238 630 OFFCURVE",
"394 630 CURVE SMOOTH",
"519 630 OFFCURVE",
"585 556 OFFCURVE",
"585 412 CURVE SMOOTH",
"585 198 OFFCURVE",
"507 81 OFFCURVE",
"388 52 CURVE SMOOTH",
"378 49 OFFCURVE",
"377 29 OFFCURVE",
"377 20 CURVE SMOOTH",
"377 19 LINE SMOOTH",
"377 6 OFFCURVE",
"382 0 OFFCURVE",
"394 0 CURVE SMOOTH",
"631 0 LINE SMOOTH",
"654 0 OFFCURVE",
"656 30 OFFCURVE",
"656 46 CURVE",
"656 48 LINE",
"656 62 OFFCURVE",
"650 68 OFFCURVE",
"639 68 CURVE SMOOTH",
"615 68 OFFCURVE",
"559 65 OFFCURVE",
"541 64 CURVE",
"627 135 OFFCURVE",
"677 258 OFFCURVE",
"677 422 CURVE SMOOTH",
"677 610 OFFCURVE",
"582 706 OFFCURVE",
"402 706 CURVE SMOOTH"
);
}
);
width = 731;
},
{
anchors = (
{
name = topleft;
position = "{20, 700}";
}
);
layerId = "DE974D70-A5B4-43AB-B940-69E4F08CB641";
paths = (
{
closed = 1;
nodes = (
"191 708 OFFCURVE",
"42 568 OFFCURVE",
"42 314 CURVE SMOOTH",
"42 235 OFFCURVE",
"65 166 OFFCURVE",
"112 113 CURVE",
"93 119 OFFCURVE",
"61 131 OFFCURVE",
"32 131 CURVE SMOOTH",
"3 131 OFFCURVE",
"-6 71 OFFCURVE",
"-6 36 CURVE",
"-6 33 LINE",
"-6 10 OFFCURVE",
"1 0 OFFCURVE",
"18 0 CURVE SMOOTH",
"265 0 LINE SMOOTH",
"298 0 OFFCURVE",
"304 55 OFFCURVE",
"304 88 CURVE SMOOTH",
"304 90 LINE SMOOTH",
"304 101 OFFCURVE",
"301 107 OFFCURVE",
"293 110 CURVE SMOOTH",
"233 129 OFFCURVE",
"198 187 OFFCURVE",
"198 290 CURVE SMOOTH",
"198 475 OFFCURVE",
"271 576 OFFCURVE",
"389 576 CURVE SMOOTH",
"482 576 OFFCURVE",
"531 516 OFFCURVE",
"531 402 CURVE SMOOTH",
"531 229 OFFCURVE",
"466 133 OFFCURVE",
"387 110 CURVE SMOOTH",
"367 104 OFFCURVE",
"366 48 OFFCURVE",
"366 35 CURVE",
"366 33 LINE",
"366 10 OFFCURVE",
"374 0 OFFCURVE",
"391 0 CURVE SMOOTH",
"638 0 LINE SMOOTH",
"676 0 OFFCURVE",
"678 64 OFFCURVE",
"678 92 CURVE",
"678 95 LINE",
"678 120 OFFCURVE",
"670 131 OFFCURVE",
"652 131 CURVE SMOOTH",
"636 131 OFFCURVE",
"595 120 OFFCURVE",
"568 113 CURVE",
"653 189 OFFCURVE",
"690 298 OFFCURVE",
"690 422 CURVE SMOOTH",
"690 607 OFFCURVE",
"589 708 OFFCURVE",
"403 708 CURVE SMOOTH"
);
}
);
width = 731;
}
);
unicode = 03A9;
},
